<?xml version="1.0" standalone="no"?>
<!DOCTYPE svg PUBLIC "-//W3C//DTD SVG 20010904//EN"
 "http://www.w3.org/TR/2001/REC-SVG-20010904/DTD/svg10.dtd">
<svg version="1.0" xmlns="http://www.w3.org/2000/svg"
 width="1744.000000pt" height="1744.000000pt" viewBox="0 0 1744.000000 1744.000000"
 preserveAspectRatio="xMidYMid meet">
<metadata>
Created by potrace 1.14, written by Peter Selinger 2001-2017
</metadata>
<g transform="translate(0.000000,1744.000000) scale(0.100000,-0.100000)"
fill="#000000" stroke="none">
<path d="M6729 12755 c-3 -2 -18 -6 -34 -9 -17 -2 -31 -5 -32 -6 -2 -2 -6 -3
-10 -4 -31 -7 -96 -47 -134 -84 -50 -46 -93 -129 -104 -197 -6 -44 -8 -5012
-1 -5110 6 -83 16 -179 22 -207 3 -13 7 -43 9 -68 2 -25 5 -45 6 -45 1 0 3 -9
5 -20 1 -11 5 -29 7 -40 2 -11 8 -38 12 -60 5 -22 9 -45 10 -50 2 -6 13 -46
25 -90 12 -44 23 -87 25 -95 2 -8 9 -28 15 -45 7 -16 14 -41 16 -54 3 -14 8
-29 12 -35 4 -6 7 -14 8 -18 1 -5 3 -10 4 -13 1 -3 3 -8 5 -12 5 -20 20 -55
81 -193 24 -54 76 -154 128 -245 19 -34 156 -235 166 -245 3 -3 28 -33 54 -67
27 -35 53 -63 57 -63 5 0 9 -6 9 -12 0 -20 331 -338 350 -338 5 0 10 -4 12 -9
2 -5 55 -45 118 -90 63 -44 120 -85 127 -91 7 -5 15 -10 19 -10 3 0 25 -12 48
-28 40 -26 240 -128 341 -172 65 -29 341 -120 364 -120 10 0 21 -3 25 -8 4 -4
11 -7 14 -8 9 0 93 -15 115 -20 41 -9 64 -14 87 -19 33 -6 108 -17 145 -21 17
-1 62 -6 100 -10 135 -15 605 -8 690 10 11 2 43 7 70 10 69 9 200 33 200 36 0
1 9 3 20 4 11 2 58 13 105 25 47 13 90 24 95 25 6 2 17 6 25 9 8 3 49 17 90
30 111 37 142 51 295 123 109 51 306 166 325 189 7 8 17 15 22 15 6 0 24 11
42 25 41 34 47 38 72 55 112 78 356 314 446 431 12 17 28 36 34 42 5 7 35 46
64 87 30 41 58 77 62 78 5 2 8 8 8 12 0 5 25 48 55 95 30 47 52 85 48 85 -5 0
-3 4 2 8 34 25 159 295 227 492 28 81 33 96 42 138 2 9 11 44 19 77 21 78 29
115 31 142 2 13 6 26 10 30 4 5 124 8 267 8 204 1 258 -2 255 -12 -3 -7 -1
-15 4 -18 6 -4 10 -18 10 -31 0 -14 9 -60 19 -102 11 -43 22 -88 24 -102 7
-37 94 -293 118 -348 12 -26 28 -63 37 -82 38 -87 93 -193 139 -268 63 -104
193 -289 225 -323 7 -8 33 -39 58 -69 89 -107 229 -242 395 -379 51 -42 229
-162 291 -197 38 -21 71 -42 72 -46 2 -4 8 -8 14 -8 6 0 42 -15 82 -34 113
-54 165 -78 178 -80 7 -2 25 -8 41 -14 65 -27 211 -71 218 -66 5 3 9 1 9 -4 0
-5 30 -16 68 -23 80 -16 81 -16 85 -19 7 -5 107 -22 266 -45 108 -15 200 -19
416 -18 220 1 285 4 385 19 19 2 53 7 75 9 22 3 47 7 55 8 19 5 78 16 110 21
14 2 45 9 70 16 25 6 54 13 65 15 80 15 312 99 442 161 39 19 74 34 76 34 8 0
202 116 254 152 27 18 50 31 52 29 2 -1 7 1 10 6 3 5 38 33 76 63 39 30 75 59
81 65 7 5 35 30 64 55 49 42 119 130 104 130 -3 0 -1 6 5 14 17 20 20 124 6
174 -7 23 -11 42 -9 42 3 0 -2 10 -11 23 -8 13 -12 27 -8 30 3 4 1 7 -5 7 -7
0 -12 4 -12 10 0 5 -8 19 -17 31 -86 102 -163 143 -277 146 -115 3 -193 -30
-312 -129 -22 -18 -53 -42 -68 -53 -16 -11 -40 -29 -55 -41 -14 -11 -48 -33
-76 -50 -27 -16 -59 -35 -70 -41 -97 -58 -285 -132 -405 -161 -126 -30 -116
-28 -167 -36 -21 -3 -51 -8 -68 -11 -88 -14 -150 -18 -359 -21 -126 -1 -239 2
-253 7 -18 6 -22 6 -17 -3 5 -7 3 -8 -5 -3 -7 4 -28 9 -46 11 -18 1 -62 8 -97
15 -34 6 -72 13 -83 15 -11 1 -35 7 -53 13 -18 5 -36 10 -40 11 -4 0 -32 8
-62 17 -30 10 -57 18 -60 18 -3 1 -14 5 -25 9 -11 4 -33 13 -50 19 -16 6 -53
21 -82 34 -28 13 -62 28 -75 33 -89 39 -266 154 -383 250 -68 56 -225 220
-278 290 -32 41 -66 86 -77 100 -11 14 -20 30 -20 37 0 6 -4 13 -8 15 -13 5
-118 196 -153 278 -28 66 -87 228 -93 255 -2 6 -8 28 -14 50 -6 22 -14 54 -16
71 l-6 31 103 -1 c130 -2 307 30 307 55 0 4 12 10 26 13 51 13 198 185 209
246 1 3 7 25 14 50 17 57 21 195 9 257 -6 27 -11 55 -12 63 -5 36 -69 149
-108 191 -93 99 -198 146 -341 155 -50 3 -95 8 -99 10 -3 2 -9 1 -11 -3 -3 -5
-30 -6 -61 -5 -54 4 -56 5 -53 31 2 15 7 32 11 39 4 7 5 12 3 12 -2 0 2 26 10
58 8 31 16 66 17 77 2 11 5 27 9 35 3 8 20 60 37 115 18 55 36 104 41 110 5 5
9 15 9 22 0 13 53 124 102 213 40 74 133 210 173 256 6 7 26 31 45 55 107 132
305 300 455 387 69 39 243 122 257 122 8 0 18 4 24 9 8 7 129 48 167 55 7 2
23 6 37 9 14 4 37 9 53 12 15 3 38 7 52 10 114 23 203 29 395 29 96 0 195 -4
220 -8 25 -4 65 -9 90 -11 25 -2 74 -11 110 -20 36 -9 74 -18 85 -20 48 -10
111 -29 120 -35 6 -4 24 -10 40 -14 35 -9 63 -21 200 -86 97 -47 287 -164 293
-181 2 -5 8 -9 13 -9 6 0 21 -10 34 -22 13 -13 47 -43 76 -68 29 -25 84 -78
123 -119 140 -146 168 -171 229 -201 138 -67 279 -36 409 93 73 71 101 132
104 226 2 41 0 79 -4 85 -4 6 -7 13 -8 16 -10 50 -143 210 -314 376 -81 78
-243 213 -291 241 -16 9 -29 21 -29 25 0 4 -6 8 -13 8 -8 0 -22 9 -32 20 -10
11 -22 20 -28 20 -5 0 -21 8 -35 19 -49 34 -309 171 -326 171 -4 0 -31 10 -59
23 -29 13 -99 38 -157 57 -58 18 -112 35 -120 38 -8 3 -19 6 -25 7 -5 2 -28 8
-50 13 -22 6 -53 14 -70 16 -16 3 -39 8 -50 10 -11 2 -40 7 -65 11 -25 4 -55
9 -67 11 -12 2 -46 6 -75 9 -29 2 -80 7 -113 11 -78 9 -368 9 -470 0 -126 -10
-223 -24 -305 -41 -14 -3 -36 -7 -50 -10 -47 -9 -125 -27 -140 -32 -8 -3 -23
-8 -32 -9 -21 -5 -166 -53 -193 -64 -11 -5 -49 -21 -85 -35 -196 -79 -509
-268 -647 -391 -18 -16 -43 -37 -55 -47 -38 -29 -190 -180 -233 -231 -22 -26
-51 -59 -65 -74 -32 -34 -92 -116 -155 -212 -28 -41 -53 -76 -57 -78 -5 -2 -8
-9 -8 -16 0 -7 -11 -27 -25 -46 -13 -18 -22 -37 -19 -41 3 -5 1 -9 -4 -9 -11
0 -159 -295 -166 -332 -2 -7 -8 -24 -13 -38 -19 -45 -65 -175 -68 -191 -2 -8
-11 -40 -20 -70 -9 -30 -18 -68 -21 -86 -2 -17 -8 -43 -14 -58 -5 -14 -9 -29
-9 -33 1 -4 0 -9 -1 -12 -2 -6 -4 -19 -20 -110 -17 -99 -24 -108 -73 -100 -23
3 -55 3 -72 0 -16 -3 -106 -3 -200 0 -161 5 -170 6 -172 25 -1 11 -7 47 -13
80 -7 33 -13 69 -15 80 -1 11 -8 40 -15 65 -7 25 -14 52 -15 60 -2 8 -11 40
-20 70 -8 30 -17 62 -19 70 -3 8 -5 15 -6 15 -1 0 -3 7 -5 15 -3 15 -38 110
-58 160 -6 14 -11 27 -12 30 0 3 -14 34 -30 70 -17 36 -28 67 -27 69 2 2 0 7
-5 10 -4 3 -19 29 -33 56 -20 40 -82 149 -165 287 -17 28 -143 200 -178 242
-116 141 -391 395 -512 472 -16 10 -36 25 -43 32 -8 7 -27 19 -42 27 -16 8
-48 28 -72 43 -24 16 -72 44 -108 63 -36 19 -67 36 -70 39 -12 13 -196 93
-297 129 -108 40 -226 76 -273 85 -14 2 -32 7 -40 10 -8 3 -28 7 -45 10 -16 3
-68 12 -115 20 -82 14 -126 20 -255 33 -75 7 -413 7 -480 0 -27 -3 -75 -9
-105 -13 -30 -4 -66 -8 -80 -10 -14 -1 -25 -3 -25 -4 0 -1 -18 -4 -40 -6 -22
-3 -57 -9 -78 -15 -21 -6 -51 -12 -67 -14 -16 -2 -33 -6 -38 -9 -5 -3 -24 -8
-42 -11 -50 -9 -300 -95 -327 -112 -13 -8 -23 -13 -23 -10 0 15 -385 -192
-401 -216 -3 -5 -8 -7 -11 -5 -5 3 -141 -93 -188 -132 -10 -8 -35 -29 -57 -46
-21 -18 -51 -45 -68 -60 -16 -16 -52 -48 -78 -71 -26 -24 -46 -43 -43 -43 2 0
-12 -17 -32 -39 -54 -57 -112 -124 -112 -129 0 -3 -22 -32 -61 -79 -5 -7 -13
-13 -17 -13 -4 0 -7 685 -6 1522 0 838 -4 1539 -8 1558 -5 19 -11 45 -14 58
-18 86 -158 217 -254 240 -24 6 -187 12 -191 7z m2761 -3069 c44 -4 106 -13
145 -20 11 -2 38 -7 60 -11 22 -4 72 -16 110 -27 39 -10 78 -21 89 -23 24 -6
102 -33 141 -50 220 -98 323 -156 460 -259 140 -106 268 -231 361 -354 33 -42
62 -78 67 -80 4 -2 7 -7 7 -12 0 -4 18 -35 40 -68 22 -33 40 -65 40 -71 0 -6
3 -11 8 -11 4 0 13 -15 21 -32 8 -18 17 -35 20 -38 6 -5 71 -138 95 -195 7
-16 18 -41 24 -55 9 -20 32 -89 37 -110 1 -3 4 -12 7 -20 7 -18 14 -44 38
-137 l17 -73 -46 -1 c-222 -3 -399 -118 -475 -309 -23 -56 -30 -97 -30 -182
-1 -38 -5 -68 -9 -68 -5 0 -5 -6 0 -12 4 -7 9 -24 10 -38 5 -65 35 -142 87
-225 63 -101 244 -192 389 -197 26 -1 49 -4 51 -7 6 -10 -59 -217 -91 -291
-156 -361 -369 -644 -653 -867 -79 -61 -250 -173 -266 -173 -6 0 -17 -7 -24
-15 -7 -9 -15 -13 -18 -10 -3 3 -10 1 -16 -4 -16 -14 -196 -90 -196 -84 0 3
-6 0 -13 -6 -8 -6 -22 -12 -33 -14 -10 -2 -26 -7 -34 -10 -8 -3 -35 -12 -60
-18 -25 -7 -47 -13 -50 -14 -4 -1 -70 -16 -90 -20 -3 -1 -25 -5 -50 -9 -25 -5
-54 -10 -65 -12 -88 -18 -510 -26 -615 -11 -25 3 -65 9 -90 12 -24 4 -74 13
-110 22 -36 8 -76 17 -89 19 -49 10 -238 78 -319 115 -46 22 -88 39 -93 39 -5
0 -9 4 -9 9 0 5 -10 13 -22 16 -27 8 -233 144 -265 174 -12 12 -24 21 -27 21
-26 0 -326 312 -326 339 0 6 -4 11 -8 11 -10 0 -72 87 -72 100 0 6 -4 10 -9
10 -5 0 -13 9 -16 20 -3 11 -12 26 -18 32 -44 47 -195 374 -212 461 -2 9 -7
22 -10 27 -3 5 -8 18 -10 28 -1 9 -8 37 -15 62 -13 49 -15 59 -31 135 -12 62
-25 154 -35 255 -8 91 -4 490 6 490 3 0 5 12 6 28 1 28 12 113 19 147 3 11 7
31 9 45 7 41 36 149 64 234 14 45 26 83 27 86 0 3 6 15 13 26 6 12 8 24 5 28
-3 3 -1 6 5 6 7 0 11 3 10 8 -1 4 4 18 9 32 21 50 57 125 62 130 3 3 17 28 31
55 22 44 155 252 169 265 3 3 24 27 46 55 58 72 192 204 274 269 83 67 245
176 259 176 6 0 17 6 24 13 29 27 231 116 348 153 25 8 59 18 75 24 17 5 41
11 55 14 14 3 57 12 95 21 77 17 117 23 215 31 36 3 66 7 68 9 4 4 348 -3 402
-9z"/>
<path d="M2717 10414 c-1 -1 -45 -5 -97 -8 -52 -3 -106 -7 -120 -10 -14 -3
-50 -7 -80 -10 -30 -3 -65 -7 -76 -10 -12 -2 -39 -7 -60 -10 -22 -4 -46 -8
-54 -11 -8 -2 -26 -6 -40 -9 -83 -16 -220 -54 -299 -83 -36 -13 -70 -25 -76
-27 -12 -4 -30 -11 -110 -44 -149 -61 -419 -210 -519 -287 -25 -19 -49 -35
-52 -35 -5 0 -88 -64 -104 -80 -3 -3 -27 -23 -55 -45 -90 -72 -355 -344 -355
-365 0 -5 -4 -10 -8 -12 -11 -4 -120 -150 -163 -218 -93 -145 -179 -301 -179
-324 0 -8 -7 -19 -15 -26 -9 -7 -13 -15 -11 -18 3 -2 -2 -19 -11 -36 -10 -17
-18 -33 -18 -36 -2 -7 -14 -39 -35 -90 -15 -37 -41 -119 -44 -140 -1 -3 -4 -9
-7 -15 -6 -9 -34 -114 -44 -164 -2 -9 -9 -38 -15 -66 -6 -27 -14 -61 -16 -75
-2 -14 -6 -34 -9 -45 -2 -11 -7 -42 -10 -70 -3 -27 -8 -59 -10 -70 -19 -96
-27 -581 -12 -735 13 -125 42 -309 61 -382 9 -31 18 -69 20 -84 10 -54 69
-244 87 -276 5 -10 9 -22 9 -27 0 -5 7 -25 15 -45 8 -20 16 -39 16 -43 0 -5 7
-19 14 -33 8 -14 41 -81 75 -149 34 -68 91 -169 128 -225 37 -55 69 -105 71
-110 4 -9 28 -40 48 -61 7 -8 13 -16 13 -20 0 -14 151 -186 250 -286 89 -89
134 -130 237 -214 227 -185 545 -356 823 -440 3 -1 12 -5 20 -8 18 -8 207 -58
235 -62 11 -2 34 -6 50 -9 92 -18 120 -22 200 -31 28 -3 75 -8 105 -12 125
-15 544 -7 650 12 14 2 46 7 71 9 25 3 57 8 70 11 13 3 38 8 54 10 17 2 31 4
33 6 1 1 7 3 12 4 6 1 11 3 13 5 1 1 11 3 22 5 36 5 70 13 95 23 14 5 28 10
33 11 46 6 213 65 307 108 30 14 60 26 65 27 6 1 28 12 48 24 21 12 40 22 43
22 26 0 333 203 414 273 14 12 53 45 85 72 110 93 226 216 327 347 33 43 61
78 62 78 0 0 1 -152 1 -338 0 -227 3 -352 11 -383 15 -58 45 -117 81 -159 34
-41 128 -102 159 -104 13 0 24 -4 24 -7 0 -8 11 -9 105 -11 108 -3 145 4 220
41 108 53 178 157 193 282 8 76 7 2547 -2 2664 -3 44 -8 94 -10 110 -2 17 -7
57 -10 89 -4 33 -9 71 -13 85 -3 14 -7 37 -9 51 -1 14 -3 25 -4 25 -1 0 -4 11
-6 25 -10 51 -13 65 -14 65 -1 0 -3 14 -6 30 -5 35 -11 68 -15 75 -1 3 -3 10
-4 15 -1 6 -5 17 -8 25 -5 13 -47 150 -53 173 -1 4 -3 9 -4 12 -1 3 -3 8 -5
13 -1 4 -7 21 -14 37 -13 34 -22 58 -23 65 -3 14 -56 127 -105 225 -31 61 -61
120 -67 132 -6 13 -14 23 -18 23 -5 0 -8 4 -8 10 0 26 -176 279 -281 405 -57
68 -283 288 -350 340 -35 27 -66 52 -69 55 -15 15 -246 170 -254 170 -2 0 -33
17 -67 38 -54 33 -236 124 -304 153 -119 50 -207 80 -355 120 -63 17 -125 31
-137 30 -13 0 -23 4 -23 10 0 5 -4 8 -9 4 -5 -3 -29 -1 -53 4 -24 5 -68 12
-98 15 -30 4 -71 8 -90 11 -87 13 -474 28 -483 19z m373 -727 c19 -4 52 -9 73
-12 74 -10 113 -17 157 -27 25 -5 52 -11 60 -13 107 -22 478 -179 488 -206 2
-5 8 -9 14 -9 10 0 179 -107 188 -119 3 -4 21 -18 40 -31 70 -49 245 -216 317
-304 50 -59 152 -207 186 -267 57 -101 136 -259 130 -259 -3 0 -1 -6 4 -12 20
-26 103 -287 117 -368 3 -19 8 -46 11 -60 41 -192 51 -578 21 -760 -3 -14 -7
-41 -10 -60 -19 -117 -33 -179 -68 -295 -33 -109 -115 -312 -129 -321 -5 -3
-9 -14 -9 -24 0 -10 -3 -20 -7 -22 -5 -1 -21 -28 -37 -58 -16 -30 -41 -73 -55
-94 -14 -21 -30 -46 -36 -55 -24 -38 -115 -159 -139 -186 -118 -131 -335 -325
-364 -325 -6 0 -12 -4 -14 -9 -4 -10 -140 -98 -172 -111 -11 -5 -34 -18 -50
-29 -17 -11 -33 -18 -38 -15 -4 3 -8 0 -8 -5 0 -6 -9 -11 -20 -11 -11 0 -20
-4 -20 -10 0 -5 -7 -10 -15 -10 -8 0 -23 -4 -33 -9 -47 -25 -174 -71 -237 -86
-11 -3 -47 -11 -80 -20 -33 -8 -73 -17 -90 -20 -16 -2 -41 -6 -55 -9 -98 -20
-516 -28 -625 -13 -27 4 -65 9 -82 11 -69 9 -239 47 -283 63 -8 4 -19 7 -25 9
-45 12 -170 61 -242 95 -95 45 -256 138 -261 151 -2 4 -8 8 -13 8 -7 0 -75 48
-144 102 -58 46 -182 165 -232 224 -24 27 -54 61 -68 76 -14 15 -25 31 -25 37
0 5 -4 11 -8 13 -5 2 -33 39 -63 83 -30 44 -56 82 -59 85 -3 3 -18 32 -35 65
-16 33 -33 62 -36 65 -4 3 -28 55 -53 115 -26 61 -51 118 -56 127 -6 10 -10
27 -10 37 0 11 -4 22 -8 25 -7 4 -31 88 -37 126 0 3 -3 10 -6 15 -4 6 -9 26
-13 45 -3 19 -8 46 -11 60 -24 122 -34 194 -41 300 -5 85 -5 305 0 365 8 87
23 206 31 245 3 14 7 36 10 50 3 14 7 36 10 50 3 14 8 34 10 46 3 11 14 50 26
85 11 35 22 71 24 80 5 24 73 186 98 233 11 23 21 44 22 48 0 4 6 13 13 19 6
7 12 17 12 22 0 18 114 191 189 287 66 85 202 227 288 302 40 34 180 138 187
138 3 0 24 13 48 29 91 61 217 127 328 170 47 19 94 37 105 42 26 10 153 47
185 53 14 2 45 9 70 15 48 10 94 17 200 27 36 3 66 7 68 9 6 5 358 -2 392 -8z"/>
</g>
</svg>
