<svg width="2560" height="1653" viewBox="0 0 2560 1653" fill="none" xmlns="http://www.w3.org/2000/svg">
<g clip-path="url(#clip0_181_10)">
<path d="M0 593.383V-254H1007.75L0 593.383Z" fill="#114B5F"/>
<path d="M0 1100.15V240.392C54.448 192.958 196.355 73.9604 291.568 35.9386C300.794 32.3693 309.424 29.3947 317.757 27.3126C324.602 25.528 331.149 24.6355 337.398 24.0406C346.624 23.4458 354.659 24.6357 361.206 27.6101C364.182 29.0973 367.158 30.5845 369.539 32.6666C373.706 36.236 377.277 39.8053 380.848 43.6721C411.501 77.5809 406.144 115.948 385.014 155.211C334.426 250.093 193.366 351.816 247.53 419.332C319.843 509.455 375.494 402.973 444.237 490.419C519.635 587.171 103.664 999.9 0 1100.15Z" fill="#F5DD90"/>
<path d="M0 1635.45V520.115C83.04 495.725 286.797 443.569 351.386 497.557C476.074 601.362 234.432 815.811 146.643 925.267C116.586 963.043 90.3968 1026.69 134.442 1046.92C238.003 1094.51 400.486 904.152 556.422 1047.81C736.56 1214.12 153.488 1551.22 0 1635.45Z" fill="url(#paint0_linear_181_10)"/>
<path d="M1680.42 26.4236C1642.32 -18.7881 1860.75 -166.909 1909.86 -172.561C2096.71 -194.588 2291.51 -236.137 2449.38 -254H2560V318.563C2547.15 323.536 2534.75 324.22 2523.19 319.692C2395.23 269.724 2247.03 313.148 2111.33 335.456C2053 344.974 1983.37 347.946 1944.68 302.737C1896.47 246.226 2074.43 202.799 2018.18 154.021C1923.85 72.227 1744.4 240.872 1647.68 178.114C1566.14 125.466 1722.67 76.0937 1680.42 26.4236Z" fill="url(#paint1_linear_181_10)"/>
<path d="M2281.95 -254C2280.07 -246.152 2270.53 -237.311 2251.49 -227.886C2147.93 -179.108 1850.94 2.02958 1642.33 95.4241C1635.18 98.696 1628.34 101.67 1621.49 104.347C1615.24 107.024 1609 109.701 1602.75 112.081C1594.12 115.65 1586.08 118.922 1577.75 121.897C1571.5 124.276 1565.25 126.656 1559 128.738C1551.26 131.415 1543.52 134.092 1536.08 136.471C1529.54 138.554 1523.29 140.338 1517.33 142.123C1508.41 144.502 1500.37 146.585 1492.34 148.072C1484 149.559 1476.56 150.749 1469.42 151.046C1461.68 151.641 1454.84 151.344 1448.59 150.154C1444.72 149.559 1441.15 148.369 1437.88 146.882C1365.26 114.163 1533.7 70.1444 1474.48 42.1846C1372.41 -5.70087 1267.06 86.7981 1183.44 50.513C1117.97 21.9583 1142.07 -21.4653 1190.58 -51.2098C1242.36 -82.739 1301.88 -136.871 1388.77 -179.406C1414.72 -192.186 1475.02 -222.11 1544.57 -254H2281.95Z" fill="#114B5F"/>
<path d="M291.271 -50.6147H317.459V27.3127C309.424 29.3948 300.496 32.0719 291.271 35.9387V-50.6147Z" fill="#3C69AB"/>
<path d="M291.271 60.329V35.9387C300.496 32.3693 309.127 29.3948 317.459 27.3127V84.7163L291.271 60.329Z" fill="#CBCBC6"/>
<path d="M245.741 -50.6148H267.462V39.2104L245.741 14.8232V-50.6148Z" fill="#3C69AB"/>
<path d="M199.911 -50.6148H224.016V-6.29555L199.911 -30.9835V-50.6148Z" fill="#3C69AB"/>
<path d="M380.25 43.9697V-50.6147H406.439V175.136L384.714 155.505C405.546 115.951 410.903 77.8784 380.25 43.9697Z" fill="#3C69AB"/>
<path d="M384.714 155.508L380.547 151.642V43.9697C410.902 77.8784 405.546 115.951 384.714 155.508Z" fill="#CBCBC6"/>
<path d="M425.783 -50.6147H447.504V217.076L425.783 195.961V-50.6147Z" fill="#3C69AB"/>
<path d="M336.803 24.3413V-50.6116H360.612V27.9108C354.061 24.9363 346.026 23.7464 336.803 24.3413Z" fill="#3C69AB"/>
<path d="M336.803 105.838V24.044C346.029 23.4491 354.064 24.6387 360.612 27.6132V130.229L336.803 105.838Z" fill="#CBCBC6"/>
<path d="M291.271 -50.6147H317.459V27.3127C309.424 29.3948 300.496 32.0719 291.271 35.9387V-50.6147Z" fill="#3C69AB"/>
<path d="M291.271 60.329V35.9387C300.496 32.3693 309.127 29.3948 317.459 27.3127V84.7163L291.271 60.329Z" fill="#CBCBC6"/>
<path d="M245.741 -50.6148H267.462V39.2104L245.741 14.8232V-50.6148Z" fill="#3C69AB"/>
<path d="M199.911 -50.6148H224.016V-6.29555L199.911 -30.9835V-50.6148Z" fill="#3C69AB"/>
<path d="M336.803 105.838V24.044C346.029 23.4491 354.064 24.6387 360.612 27.6132V130.229L336.803 105.838Z" fill="#CBCBC6"/>
<path fill-rule="evenodd" clip-rule="evenodd" d="M380.25 43.9697C380.349 44.0797 380.448 44.1897 380.547 44.2998V43.9697C410.902 77.8777 405.546 115.95 384.715 155.506L384.714 155.505C402.942 120.896 409.322 87.4198 390.097 56.8754C387.35 52.5119 384.082 48.2082 380.25 43.9697Z" fill="#3C69AB"/>
<path fill-rule="evenodd" clip-rule="evenodd" d="M384.715 155.506L384.714 155.505C402.942 120.896 409.322 87.4198 390.097 56.8754C387.422 52.6252 384.251 48.4317 380.547 44.2998V43.9697C410.902 77.8777 405.546 115.95 384.715 155.506Z" fill="#CBCBC6"/>
<path fill-rule="evenodd" clip-rule="evenodd" d="M336.803 24.044V24.3413C346.026 23.7464 354.061 24.9363 360.612 27.9108V27.6132C354.064 24.6387 346.029 23.4491 336.803 24.044Z" fill="#3C69AB"/>
<path d="M1251 157.293C1253.67 162.052 1252.48 167.109 1247.72 172.76C1234.33 188.822 1203.97 195.366 1176.3 204.289C1140.59 215.89 1102.5 227.192 1056.67 227.192C981.677 227.192 898.054 191.499 877.52 150.752C858.474 112.679 890.912 77.8814 937.632 54.9781C954 46.9471 972.749 39.8084 995.958 37.4289C1019.17 35.0493 1047.74 38.3212 1067.97 48.4344C1094.16 61.5219 1099.22 80.5585 1106.66 97.8071C1114.1 115.056 1131.66 135.583 1163.8 140.937C1179.87 143.614 1195.64 141.829 1211.71 142.424C1227.49 143.015 1242.07 143.908 1251 157.293Z" fill="#E9D2F4"/>
<path d="M1635.18 278.945C1630.72 265.857 1607.8 261.693 1584.3 270.021C1560.49 278.052 1545.01 295.304 1549.48 308.392C1553.94 321.479 1576.86 325.644 1600.37 317.315C1623.88 308.984 1639.65 292.032 1635.18 278.945Z" fill="#114B5F"/>
<path d="M303.472 1142.4C325.197 1149.53 350.192 1145.96 368.941 1132.88C413.581 1101.65 414.47 1029.37 460.301 1000.22C481.133 986.835 507.021 985.348 531.424 981.778C555.827 978.209 582.013 970.773 596 950.547M284.426 1116.82C306.15 1123.95 331.145 1120.38 349.894 1107.3C394.534 1076.07 395.424 1003.79 441.254 974.64C462.086 961.255 487.974 959.768 512.377 956.198C536.781 952.629 562.966 945.193 576.953 924.967M265.082 1091.24C286.806 1098.38 311.802 1094.81 330.55 1081.72C375.187 1050.49 376.08 978.212 421.91 949.063C442.742 935.678 468.63 934.19 493.034 930.621C517.437 927.052 543.622 919.616 557.61 899.389" stroke="#63D5FF" stroke-width="1.1397" stroke-miterlimit="10"/>
<path d="M2527.36 1031.75C2516.05 1048.11 2494.03 1052.87 2478.55 1055.25C2475.57 1055.54 2472.6 1056.14 2469.92 1056.44C2453.85 1058.52 2437.18 1060.9 2423.5 1069.52C2405.05 1081.12 2395.82 1101.65 2386.89 1121.57C2378.26 1140.31 2369.63 1159.94 2352.97 1171.54C2338.98 1181.36 2320.23 1184.03 2303.87 1178.68L2302.97 1181.36C2320.23 1187.01 2339.88 1184.03 2354.75 1173.62C2372.01 1161.43 2380.94 1141.8 2389.57 1122.47C2398.5 1102.84 2407.43 1082.91 2424.99 1071.61C2438.38 1063.28 2454.45 1060.9 2470.22 1058.82C2473.19 1058.52 2476.17 1057.92 2479.15 1057.63C2495.22 1055.25 2518.13 1050.19 2530.03 1032.94L2527.36 1031.75Z" fill="#114B5F"/>
<path d="M2512.48 1012.12C2501.17 1028.48 2479.15 1033.24 2463.67 1035.62C2460.7 1035.91 2457.72 1036.51 2455.04 1036.81C2438.97 1038.89 2422.31 1041.27 2408.62 1049.89C2390.17 1061.49 2380.94 1082.02 2372.02 1101.94C2363.39 1120.68 2354.75 1140.31 2338.09 1151.91C2324.1 1161.73 2305.35 1164.4 2288.99 1159.05L2288.1 1161.73C2305.36 1167.38 2325 1164.4 2339.87 1153.99C2357.14 1141.8 2366.06 1122.17 2374.69 1102.84C2383.62 1083.2 2392.55 1063.28 2410.11 1051.98C2423.5 1043.65 2439.57 1041.27 2455.34 1039.19C2458.32 1038.89 2461.29 1038.29 2463.97 1038C2480.04 1035.62 2502.95 1030.56 2514.86 1013.31L2512.48 1012.12Z" fill="#114B5F"/>
<path d="M2497.6 992.192C2486.29 1008.55 2464.27 1013.31 2448.79 1015.69C2445.82 1015.99 2442.84 1016.58 2440.16 1016.88C2424.09 1018.96 2407.43 1021.34 2393.74 1029.97C2375.29 1041.57 2366.06 1062.09 2357.14 1082.02C2348.51 1100.76 2339.87 1120.39 2323.21 1131.98C2309.22 1141.8 2290.47 1144.48 2274.11 1139.12L2273.22 1141.8C2290.48 1147.45 2310.12 1144.48 2324.99 1134.07C2342.26 1121.87 2351.18 1102.24 2359.81 1082.91C2368.74 1063.28 2377.67 1043.35 2395.23 1032.05C2408.62 1023.72 2424.69 1021.34 2440.46 1019.26C2443.44 1018.96 2446.41 1018.37 2449.09 1018.07C2465.16 1015.69 2488.08 1010.63 2499.98 993.382L2497.6 992.192Z" fill="#114B5F"/>
<path d="M274.605 147.477C319.473 147.477 355.846 183.832 355.846 228.677C355.846 273.522 319.473 309.876 274.605 309.876C229.736 309.876 193.363 273.522 193.363 228.677C193.363 183.832 229.736 147.477 274.605 147.477Z" fill="#63D5FF"/>
<path d="M194.256 376.801H160.631V341.702H194.26L194.256 376.801ZM191.28 344.677H163.604V373.826H191.28V344.677Z" fill="#E9D2F4"/>
<path d="M204.374 386.911H150.512V331.292H204.374V386.911ZM201.398 334.564H153.488V384.234H201.398V334.564Z" fill="#E9D2F4"/>
<path d="M203.482 400.593H135.335V336.943L138.311 335.159V397.619H204.375L203.482 400.593Z" fill="#E9D2F4"/>
<path d="M218.064 357.764L215.088 366.39V320.881H162.118L167.174 317.907H218.064V357.764Z" fill="#E9D2F4"/>
<path d="M231.456 317.609L228.48 326.533V307.496H185.031L190.09 304.522H231.456V317.609Z" fill="#E9D2F4"/>
<path d="M198.72 414.276H147.834L143.668 411.301H199.911L198.72 414.276Z" fill="#E9D2F4"/>
<path d="M121.645 344.974L124.621 343.19V397.916L121.645 395.834V344.974Z" fill="#E9D2F4"/>
<path d="M109.741 352.113L112.717 350.328V389.588L109.741 387.506V352.113Z" fill="#E9D2F4"/>
<path d="M239.194 295.602H204.97L210.029 292.627H240.087L239.194 295.602Z" fill="#E9D2F4"/>
<path d="M194.852 425.876H164.5L160.333 422.902H195.744L194.852 425.876Z" fill="#E9D2F4"/>
<path d="M98.1348 359.251L101.111 357.467V380.965L98.1348 378.883V359.251Z" fill="#E9D2F4"/>
<path d="M243.062 283.704H224.909L229.968 280.729H243.955L243.062 283.704Z" fill="#E9D2F4"/>
<path d="M190.685 437.774H181.162L176.995 434.799H191.875L190.685 437.774Z" fill="#E9D2F4"/>
<path d="M194.256 376.801H160.631V341.702H194.26L194.256 376.801ZM191.28 344.677H163.604V373.826H191.28V344.677Z" fill="#E9D2F4"/>
<path d="M204.374 386.911H150.512V331.292H204.374V386.911ZM201.398 334.564H153.488V384.234H201.398V334.564Z" fill="#E9D2F4"/>
<path d="M203.482 400.593H135.335V336.943L138.311 335.159V397.619H204.375L203.482 400.593Z" fill="#E9D2F4"/>
<path d="M218.064 357.764L215.088 366.39V320.881H162.118L167.174 317.907H218.064V357.764Z" fill="#E9D2F4"/>
<path d="M231.456 317.609L228.48 326.533V307.496H185.031L190.09 304.522H231.456V317.609Z" fill="#E9D2F4"/>
<path d="M198.72 414.276H147.834L143.668 411.301H199.911L198.72 414.276Z" fill="#E9D2F4"/>
<path d="M121.645 344.974L124.621 343.19V397.916L121.645 395.834V344.974Z" fill="#E9D2F4"/>
<path d="M109.741 352.113L112.717 350.328V389.588L109.741 387.506V352.113Z" fill="#E9D2F4"/>
<path d="M239.194 295.602H204.97L210.029 292.627H240.087L239.194 295.602Z" fill="#E9D2F4"/>
<path d="M194.852 425.876H164.5L160.333 422.902H195.744L194.852 425.876Z" fill="#E9D2F4"/>
<path d="M98.1348 359.251L101.111 357.467V380.965L98.1348 378.883V359.251Z" fill="#E9D2F4"/>
<path d="M243.062 283.704H224.909L229.968 280.729H243.955L243.062 283.704Z" fill="#E9D2F4"/>
<path d="M190.685 437.774H181.162L176.995 434.799H191.875L190.685 437.774Z" fill="#E9D2F4"/>
<path d="M2365.47 407.137C2350.89 428.553 2322.02 434.8 2301.79 437.774C2297.92 438.369 2294.35 438.964 2290.48 439.261C2269.64 441.938 2247.92 444.913 2230.07 456.216C2206.26 471.385 2194.36 498.155 2182.75 523.733C2171.74 548.42 2160.13 573.7 2138.71 588.87C2120.26 601.66 2095.86 605.229 2074.43 598.388L2073.54 601.065C2095.56 608.501 2121.15 604.634 2140.2 591.249C2162.52 575.782 2174.12 549.905 2185.43 524.922C2196.74 499.64 2208.64 473.17 2231.85 458.595C2249.11 447.59 2270.54 444.615 2291.07 441.938C2294.94 441.343 2298.81 441.046 2302.38 440.451C2323.21 437.477 2352.67 430.635 2368.15 408.327L2365.47 407.137Z" fill="#114B5F"/>
<path d="M2346.42 381.56C2331.84 402.976 2302.98 409.222 2282.74 412.197C2278.87 412.792 2275.3 413.387 2271.43 413.684C2250.6 416.361 2228.88 419.336 2211.02 430.639C2187.21 445.808 2175.31 472.578 2163.71 498.155C2152.69 522.843 2141.09 548.123 2119.66 563.293C2101.21 576.083 2076.81 579.652 2055.39 572.811L2054.49 575.488C2076.51 582.924 2102.11 579.057 2121.15 565.672C2143.47 550.205 2155.08 524.327 2166.38 499.345C2177.69 474.062 2189.6 447.593 2212.81 433.018C2230.07 422.013 2251.5 419.038 2272.03 416.361C2275.9 415.766 2279.77 415.469 2283.34 414.874C2304.17 411.899 2333.63 405.058 2349.1 382.75L2346.42 381.56Z" fill="#114B5F"/>
<path d="M2327.08 355.98C2312.5 377.396 2283.63 383.642 2263.4 386.617C2259.53 387.211 2255.96 387.806 2252.09 388.104C2231.25 390.781 2209.53 393.755 2191.68 405.058C2167.87 420.228 2155.96 446.998 2144.36 472.575C2133.35 497.263 2121.74 522.543 2100.32 537.712C2081.87 550.502 2057.46 554.072 2036.04 547.231L2035.15 549.907C2057.17 557.344 2082.76 553.477 2101.8 540.092C2124.12 524.625 2135.73 498.747 2147.04 473.765C2158.35 448.482 2170.25 422.013 2193.46 407.438C2210.72 396.432 2232.15 393.458 2252.68 390.781C2256.55 390.186 2260.42 389.888 2263.99 389.294C2284.82 386.319 2314.28 379.478 2329.75 357.17L2327.08 355.98Z" fill="#114B5F"/>
<path d="M2357.43 390.48H2370.23V377.69H2357.43V390.48Z" fill="#F5DD90"/>
<path d="M2357.43 370.257H2370.23V357.467H2357.43V370.257Z" fill="#F5DD90"/>
<path d="M2357.43 349.733H2370.23V336.943H2357.43V349.733Z" fill="#F5DD90"/>
<path d="M2357.43 329.21H2370.23V316.42H2357.43V329.21Z" fill="#F5DD90"/>
<path d="M2357.43 308.686H2370.23V295.896H2357.43V308.686Z" fill="#F5DD90"/>
<path d="M2357.43 288.166H2370.23V275.376H2357.43V288.166Z" fill="#F5DD90"/>
<path d="M2357.43 267.94H2370.23V255.149H2357.43V267.94Z" fill="#F5DD90"/>
<path d="M2357.43 247.416H2370.23V234.626H2357.43V247.416Z" fill="#F5DD90"/>
<path d="M2357.43 226.892H2370.23V214.102H2357.43V226.892Z" fill="#F5DD90"/>
<path d="M2357.43 206.372H2370.23V193.581H2357.43V206.372Z" fill="#F5DD90"/>
<path d="M2357.43 185.848H2370.23V173.058H2357.43V185.848Z" fill="#F5DD90"/>
<path d="M2357.43 165.622H2370.23V152.831H2357.43V165.622Z" fill="#F5DD90"/>
<path d="M1492.94 104.946L1517.94 81.4477V142.421C1509.01 144.8 1500.97 146.882 1492.94 148.37V104.946Z" fill="#63D5FF"/>
<path d="M1449.49 150.452V148.37L1470.32 124.872V151.344C1462.58 151.939 1455.44 151.642 1449.49 150.452Z" fill="#63D5FF"/>
<path d="M1578.05 17.7977L1603.05 -4.80814V112.084C1594.42 115.654 1586.38 118.926 1578.05 121.9V17.7977Z" fill="#63D5FF"/>
<path d="M1621.49 104.351V-24.7368L1642.33 -44.9632V95.1303C1635.18 98.6997 1628.34 101.674 1621.49 104.351Z" fill="#63D5FF"/>
<path d="M1536.38 61.5188L1559.3 38.0206V129.036C1551.56 131.713 1543.82 134.39 1536.38 136.769V61.5188Z" fill="#63D5FF"/>
</g>
<defs>
<linearGradient id="paint0_linear_181_10" x1="0" y1="1054.7" x2="590.606" y2="1054.7" gradientUnits="userSpaceOnUse">
<stop stop-color="#3C2255"/>
<stop offset="1" stop-color="#5B3580"/>
</linearGradient>
<linearGradient id="paint1_linear_181_10" x1="2237.88" y1="103.495" x2="2050.8" y2="-91.7722" gradientUnits="userSpaceOnUse">
<stop stop-color="#5B3580"/>
<stop offset="1" stop-color="#451B6E"/>
</linearGradient>
<clipPath id="clip0_181_10">
<rect width="2560" height="1653" fill="white" transform="matrix(1 0 0 -1 0 1653)"/>
</clipPath>
</defs>
</svg>
