<svg width="1134" height="1500" viewBox="0 0 1134 1500" fill="none" xmlns="http://www.w3.org/2000/svg">
<g filter="url(#filter0_d_247_11)">
<path d="M254.414 -37.5779C216.321 -82.7896 434.753 -230.911 483.854 -236.562C670.711 -258.589 865.508 -300.139 1023.37 -318.001H1134V254.561C1121.14 259.535 1108.75 260.219 1097.19 255.69C969.227 205.723 821.025 249.146 685.326 271.455C626.999 280.973 557.364 283.944 518.676 238.736C470.465 182.224 648.423 138.797 592.18 90.0197C497.844 8.22549 318.398 176.87 221.681 114.113C140.142 61.4649 296.673 12.0922 254.414 -37.5779Z" fill="url(#paint0_linear_247_11)"/>
</g>
<g filter="url(#filter1_d_247_11)">
<path d="M931.432 326.479H944.229V313.689H931.432V326.479Z" fill="#F5DD90"/>
<path d="M931.432 306.256H944.229V293.466H931.432V306.256Z" fill="#F5DD90"/>
<path d="M931.432 285.732H944.229V272.942H931.432V285.732Z" fill="#F5DD90"/>
<path d="M931.432 265.208H944.229V252.418H931.432V265.208Z" fill="#F5DD90"/>
<path d="M931.432 244.685H944.229V231.895H931.432V244.685Z" fill="#F5DD90"/>
<path d="M931.432 224.164H944.229V211.374H931.432V224.164Z" fill="#F5DD90"/>
<path d="M931.432 203.938H944.229V191.148H931.432V203.938Z" fill="#F5DD90"/>
<path d="M931.432 183.414H944.229V170.624H931.432V183.414Z" fill="#F5DD90"/>
<path d="M931.432 162.891H944.229V150.1H931.432V162.891Z" fill="#F5DD90"/>
<path d="M931.432 142.37H944.229V129.58H931.432V142.37Z" fill="#F5DD90"/>
<path d="M931.432 121.846H944.229V109.056H931.432V121.846Z" fill="#F5DD90"/>
<path d="M931.432 101.62H944.229V88.8299H931.432V101.62Z" fill="#F5DD90"/>
</g>
<g filter="url(#filter2_d_247_11)">
<path d="M1181.64 352.999C1173.79 354.88 1164.95 364.419 1155.53 383.459C1106.75 487.021 925.61 784.013 832.216 992.624C828.944 999.767 825.969 1006.61 823.292 1013.46C820.615 1019.71 817.938 1025.96 815.559 1032.2C811.989 1040.84 808.717 1048.87 805.743 1057.2C803.363 1063.45 800.984 1069.7 798.902 1075.95C796.225 1083.69 793.548 1091.43 791.168 1098.87C789.086 1105.41 787.301 1111.66 785.517 1117.62C783.137 1126.54 781.055 1134.58 779.568 1142.61C778.081 1150.95 776.891 1158.39 776.593 1165.53C775.998 1173.27 776.296 1180.11 777.486 1186.36C778.081 1190.23 779.27 1193.8 780.758 1197.08C813.477 1269.69 857.495 1101.25 885.455 1160.47C933.341 1262.54 840.842 1367.89 877.127 1451.51C905.681 1516.98 949.105 1492.88 978.849 1444.37C1010.38 1392.59 1064.51 1333.07 1107.05 1246.18C1119.83 1220.23 1149.75 1159.93 1181.64 1090.38L1181.64 352.999Z" fill="#114B5F"/>
<g filter="url(#filter3_d_247_11)">
<path d="M822.694 1142.01L846.192 1117.01L785.219 1117.01C782.839 1125.94 780.757 1133.98 779.27 1142.01L822.694 1142.01Z" fill="#63D5FF"/>
<path d="M777.188 1185.46L779.27 1185.46L802.768 1164.63L776.295 1164.63C775.701 1172.37 775.998 1179.51 777.188 1185.46Z" fill="#63D5FF"/>
<path d="M909.842 1056.9L932.448 1031.9L815.555 1031.9C811.986 1040.53 808.714 1048.57 805.739 1056.9L909.842 1056.9Z" fill="#63D5FF"/>
<path d="M823.289 1013.46L952.376 1013.46L972.603 992.624L832.509 992.624C828.94 999.767 825.966 1006.61 823.289 1013.46Z" fill="#63D5FF"/>
<path d="M866.121 1098.57L889.619 1075.65L798.604 1075.65C795.927 1083.39 793.25 1091.13 790.87 1098.57L866.121 1098.57Z" fill="#63D5FF"/>
</g>
</g>
<g filter="url(#filter4_d_247_11)">
<path d="M939.467 343.136C924.884 364.552 896.017 370.798 875.784 373.773C871.915 374.368 868.344 374.962 864.475 375.26C843.643 377.937 821.918 380.911 804.065 392.214C780.257 407.384 768.353 434.154 756.75 459.731C745.739 484.419 734.132 509.699 712.708 524.868C694.257 537.658 669.854 541.228 648.43 534.387L647.537 537.064C669.56 544.5 695.15 540.633 714.196 527.248C736.516 511.781 748.123 485.903 759.428 460.921C770.737 435.638 782.641 409.169 805.851 394.594C823.111 383.588 844.539 380.614 865.07 377.937C868.939 377.342 872.808 377.045 876.379 376.45C897.211 373.475 926.67 366.634 942.145 344.326L939.467 343.136Z" fill="#114B5F"/>
<path d="M920.42 317.559C905.838 338.975 876.974 345.221 856.737 348.195C852.868 348.79 849.297 349.385 845.428 349.683C824.596 352.36 802.874 355.334 785.018 366.637C761.21 381.807 749.307 408.577 737.703 434.154C726.692 458.842 715.086 484.121 693.662 499.291C675.211 512.081 650.807 515.651 629.383 508.809L628.49 511.486C650.513 518.922 676.103 515.056 695.15 501.671C717.47 486.204 729.076 460.326 740.382 435.344C751.69 410.061 763.594 383.591 786.807 369.017C804.068 358.011 825.495 355.037 846.026 352.36C849.895 351.765 853.764 351.467 857.335 350.872C878.167 347.898 907.626 341.057 923.102 318.748L920.42 317.559Z" fill="#114B5F"/>
<path d="M901.076 291.978C886.494 313.394 857.63 319.641 837.393 322.615C833.524 323.21 829.953 323.805 826.084 324.102C805.252 326.779 783.528 329.754 765.675 341.057C741.867 356.226 729.963 382.996 718.36 408.574C707.348 433.261 695.742 458.541 674.315 473.711C655.864 486.501 631.461 490.07 610.037 483.229L609.144 485.906C631.166 493.342 656.757 489.475 675.803 476.09C698.123 460.623 709.729 434.746 721.035 409.763C732.344 384.481 744.248 358.011 767.457 343.436C784.718 332.431 806.145 329.456 826.676 326.779C830.545 326.184 834.414 325.887 837.985 325.292C858.817 322.318 888.276 315.476 903.752 293.168L901.076 291.978Z" fill="#114B5F"/>
</g>
<g filter="url(#filter5_d_247_11)">
<path d="M196.318 246.581C186.39 217.319 135.426 208.008 83.1445 226.63C30.1944 244.586 -4.22299 283.158 5.70514 312.419C15.6333 341.681 66.5978 350.992 118.879 332.371C171.167 313.742 206.246 275.842 196.318 246.581Z" fill="#F5DD90"/>
</g>
<defs>
<filter id="filter0_d_247_11" x="193.759" y="-318.001" width="944.239" height="603.26" filterUnits="userSpaceOnUse" color-interpolation-filters="sRGB">
<feFlood flood-opacity="0" result="BackgroundImageFix"/>
<feColorMatrix in="SourceAlpha" type="matrix" values="0 0 0 0 0 0 0 0 0 0 0 0 0 0 0 0 0 0 127 0" result="hardAlpha"/>
<feOffset dy="4"/>
<feGaussianBlur stdDeviation="2"/>
<feComposite in2="hardAlpha" operator="out"/>
<feColorMatrix type="matrix" values="0 0 0 0 0 0 0 0 0 0 0 0 0 0 0 0 0 0 0.25 0"/>
<feBlend mode="normal" in2="BackgroundImageFix" result="effect1_dropShadow_247_11"/>
<feBlend mode="normal" in="SourceGraphic" in2="effect1_dropShadow_247_11" result="shape"/>
</filter>
<filter id="filter1_d_247_11" x="927.432" y="88.8298" width="20.7969" height="245.649" filterUnits="userSpaceOnUse" color-interpolation-filters="sRGB">
<feFlood flood-opacity="0" result="BackgroundImageFix"/>
<feColorMatrix in="SourceAlpha" type="matrix" values="0 0 0 0 0 0 0 0 0 0 0 0 0 0 0 0 0 0 127 0" result="hardAlpha"/>
<feOffset dy="4"/>
<feGaussianBlur stdDeviation="2"/>
<feComposite in2="hardAlpha" operator="out"/>
<feColorMatrix type="matrix" values="0 0 0 0 0 0 0 0 0 0 0 0 0 0 0 0 0 0 0.25 0"/>
<feBlend mode="normal" in2="BackgroundImageFix" result="effect1_dropShadow_247_11"/>
<feBlend mode="normal" in="SourceGraphic" in2="effect1_dropShadow_247_11" result="shape"/>
</filter>
<filter id="filter2_d_247_11" x="771.998" y="352.999" width="413.642" height="1146.47" filterUnits="userSpaceOnUse" color-interpolation-filters="sRGB">
<feFlood flood-opacity="0" result="BackgroundImageFix"/>
<feColorMatrix in="SourceAlpha" type="matrix" values="0 0 0 0 0 0 0 0 0 0 0 0 0 0 0 0 0 0 127 0" result="hardAlpha"/>
<feOffset dy="4"/>
<feGaussianBlur stdDeviation="2"/>
<feComposite in2="hardAlpha" operator="out"/>
<feColorMatrix type="matrix" values="0 0 0 0 0 0 0 0 0 0 0 0 0 0 0 0 0 0 0.25 0"/>
<feBlend mode="normal" in2="BackgroundImageFix" result="effect1_dropShadow_247_11"/>
<feBlend mode="normal" in="SourceGraphic" in2="effect1_dropShadow_247_11" result="shape"/>
</filter>
<filter id="filter3_d_247_11" x="771.998" y="992.624" width="204.604" height="200.838" filterUnits="userSpaceOnUse" color-interpolation-filters="sRGB">
<feFlood flood-opacity="0" result="BackgroundImageFix"/>
<feColorMatrix in="SourceAlpha" type="matrix" values="0 0 0 0 0 0 0 0 0 0 0 0 0 0 0 0 0 0 127 0" result="hardAlpha"/>
<feOffset dy="4"/>
<feGaussianBlur stdDeviation="2"/>
<feComposite in2="hardAlpha" operator="out"/>
<feColorMatrix type="matrix" values="0 0 0 0 0 0 0 0 0 0 0 0 0 0 0 0 0 0 0.25 0"/>
<feBlend mode="normal" in2="BackgroundImageFix" result="effect1_dropShadow_247_11"/>
<feBlend mode="normal" in="SourceGraphic" in2="effect1_dropShadow_247_11" result="shape"/>
</filter>
<filter id="filter4_d_247_11" x="605.144" y="291.978" width="341.002" height="256.821" filterUnits="userSpaceOnUse" color-interpolation-filters="sRGB">
<feFlood flood-opacity="0" result="BackgroundImageFix"/>
<feColorMatrix in="SourceAlpha" type="matrix" values="0 0 0 0 0 0 0 0 0 0 0 0 0 0 0 0 0 0 127 0" result="hardAlpha"/>
<feOffset dy="4"/>
<feGaussianBlur stdDeviation="2"/>
<feComposite in2="hardAlpha" operator="out"/>
<feColorMatrix type="matrix" values="0 0 0 0 0 0 0 0 0 0 0 0 0 0 0 0 0 0 0.25 0"/>
<feBlend mode="normal" in2="BackgroundImageFix" result="effect1_dropShadow_247_11"/>
<feBlend mode="normal" in="SourceGraphic" in2="effect1_dropShadow_247_11" result="shape"/>
</filter>
<filter id="filter5_d_247_11" x="0" y="217" width="202" height="133" filterUnits="userSpaceOnUse" color-interpolation-filters="sRGB">
<feFlood flood-opacity="0" result="BackgroundImageFix"/>
<feColorMatrix in="SourceAlpha" type="matrix" values="0 0 0 0 0 0 0 0 0 0 0 0 0 0 0 0 0 0 127 0" result="hardAlpha"/>
<feOffset dy="4"/>
<feGaussianBlur stdDeviation="2"/>
<feComposite in2="hardAlpha" operator="out"/>
<feColorMatrix type="matrix" values="0 0 0 0 0 0 0 0 0 0 0 0 0 0 0 0 0 0 0.25 0"/>
<feBlend mode="normal" in2="BackgroundImageFix" result="effect1_dropShadow_247_11"/>
<feBlend mode="normal" in="SourceGraphic" in2="effect1_dropShadow_247_11" result="shape"/>
</filter>
<linearGradient id="paint0_linear_247_11" x1="811.875" y1="39.4934" x2="624.802" y2="-155.774" gradientUnits="userSpaceOnUse">
<stop stop-color="#5B3580"/>
<stop offset="1" stop-color="#451B6E"/>
</linearGradient>
</defs>
</svg>
