<svg width="2560" height="1589" viewBox="0 0 2560 1589" fill="none" xmlns="http://www.w3.org/2000/svg">
<g clip-path="url(#clip0_181_10)">
<path d="M0 529.383V-318H1007.75L0 529.383Z" fill="#114B5F"/>
<path d="M0 1036.15V176.392C54.448 128.958 196.355 9.96039 291.568 -28.0614C300.794 -31.6307 309.424 -34.6053 317.757 -36.6874C324.602 -38.472 331.149 -39.3645 337.398 -39.9594C346.624 -40.5542 354.659 -39.3643 361.206 -36.3899C364.182 -34.9027 367.158 -33.4155 369.539 -31.3334C373.706 -27.764 377.277 -24.1947 380.848 -20.3279C411.501 13.5809 406.144 51.9481 385.014 91.2109C334.426 186.093 193.366 287.816 247.53 355.332C319.843 445.455 375.494 338.973 444.237 426.419C519.635 523.171 103.664 935.9 0 1036.15Z" fill="#F5DD90"/>
<path d="M0 1571.45V456.115C83.04 431.725 286.797 379.569 351.386 433.557C476.074 537.362 234.432 751.811 146.643 861.267C116.586 899.043 90.3968 962.693 134.442 982.919C238.003 1030.51 400.486 840.152 556.422 983.811C736.56 1150.12 153.488 1487.22 0 1571.45Z" fill="url(#paint0_linear_181_10)"/>
<path d="M1680.42 -37.5764C1642.32 -82.7881 1860.75 -230.909 1909.86 -236.561C2096.71 -258.588 2291.51 -300.137 2449.38 -318H2560V254.563C2547.15 259.536 2534.75 260.22 2523.19 255.692C2395.23 205.724 2247.03 249.148 2111.33 271.456C2053 280.974 1983.37 283.946 1944.68 238.737C1896.47 182.226 2074.43 138.799 2018.18 90.0211C1923.85 8.22695 1744.4 176.872 1647.68 114.114C1566.14 61.4664 1722.67 12.0937 1680.42 -37.5764Z" fill="url(#paint1_linear_181_10)"/>
<path d="M291.271 -114.615H317.459V-36.6873C309.424 -34.6052 300.496 -31.9281 291.271 -28.0613V-114.615Z" fill="#3C69AB"/>
<path d="M291.271 -3.67099V-28.0613C300.496 -31.6307 309.127 -34.6052 317.459 -36.6873V20.7163L291.271 -3.67099Z" fill="#CBCBC6"/>
<path d="M245.741 -114.615H267.462V-24.7896L245.741 -49.1768V-114.615Z" fill="#3C69AB"/>
<path d="M199.911 -114.615H224.016V-70.2955L199.911 -94.9835V-114.615Z" fill="#3C69AB"/>
<path d="M380.25 -20.0303V-114.615H406.439V111.136L384.714 91.5051C405.546 51.9513 410.903 13.8784 380.25 -20.0303Z" fill="#3C69AB"/>
<path d="M384.714 91.5083L380.547 87.6416V-20.0303C410.902 13.8784 405.546 51.9514 384.714 91.5083Z" fill="#CBCBC6"/>
<path d="M425.783 -114.615H447.504V153.076L425.783 131.961V-114.615Z" fill="#3C69AB"/>
<path d="M336.803 -39.6587V-114.612H360.612V-36.0892C354.061 -39.0637 346.026 -40.2536 336.803 -39.6587Z" fill="#3C69AB"/>
<path d="M336.803 41.8381V-39.956C346.029 -40.5509 354.064 -39.3613 360.612 -36.3868V66.2286L336.803 41.8381Z" fill="#CBCBC6"/>
<path d="M291.271 -114.615H317.459V-36.6873C309.424 -34.6052 300.496 -31.9281 291.271 -28.0613V-114.615Z" fill="#3C69AB"/>
<path d="M291.271 -3.67099V-28.0613C300.496 -31.6307 309.127 -34.6052 317.459 -36.6873V20.7163L291.271 -3.67099Z" fill="#CBCBC6"/>
<path d="M245.741 -114.615H267.462V-24.7896L245.741 -49.1768V-114.615Z" fill="#3C69AB"/>
<path d="M199.911 -114.615H224.016V-70.2955L199.911 -94.9835V-114.615Z" fill="#3C69AB"/>
<path d="M336.803 41.8381V-39.956C346.029 -40.5509 354.064 -39.3613 360.612 -36.3868V66.2286L336.803 41.8381Z" fill="#CBCBC6"/>
<path fill-rule="evenodd" clip-rule="evenodd" d="M380.25 -20.0303C380.349 -19.9203 380.448 -19.8103 380.547 -19.7002V-20.0303C410.902 13.8777 405.546 51.9498 384.715 91.5059L384.714 91.5051C402.942 56.8955 409.322 23.4198 390.097 -7.12462C387.35 -11.4881 384.082 -15.7918 380.25 -20.0303Z" fill="#3C69AB"/>
<path fill-rule="evenodd" clip-rule="evenodd" d="M384.715 91.5059L384.714 91.5051C402.942 56.8955 409.322 23.4198 390.097 -7.12462C387.422 -11.3748 384.251 -15.5683 380.547 -19.7002V-20.0303C410.902 13.8777 405.546 51.9498 384.715 91.5059Z" fill="#CBCBC6"/>
<path fill-rule="evenodd" clip-rule="evenodd" d="M336.803 -39.956V-39.6587C346.026 -40.2536 354.061 -39.0637 360.612 -36.0892V-36.3868C354.064 -39.3613 346.029 -40.5509 336.803 -39.956Z" fill="#3C69AB"/>
<path d="M1251 93.2929C1253.67 98.052 1252.48 103.109 1247.72 108.76C1234.33 124.822 1203.97 131.366 1176.3 140.289C1140.59 151.89 1102.5 163.192 1056.67 163.192C981.677 163.192 898.054 127.499 877.52 86.7522C858.474 48.6793 890.912 13.8814 937.632 -9.02188C954 -17.0529 972.749 -24.1916 995.958 -26.5711C1019.17 -28.9507 1047.74 -25.6788 1067.97 -15.5656C1094.16 -2.47805 1099.22 16.5585 1106.66 33.8071C1114.1 51.0557 1131.66 71.5825 1163.8 76.9366C1179.87 79.6136 1195.64 77.8289 1211.71 78.4238C1227.49 79.0155 1242.07 79.9078 1251 93.2929Z" fill="#E9D2F4"/>
<path d="M1635.18 214.945C1630.72 201.857 1607.8 197.693 1584.3 206.021C1560.49 214.052 1545.01 231.304 1549.48 244.392C1553.94 257.479 1576.86 261.644 1600.37 253.315C1623.88 244.984 1639.65 228.032 1635.18 214.945Z" fill="#114B5F"/>
<path d="M303.472 1078.4C325.197 1085.53 350.192 1081.96 368.941 1068.88C413.581 1037.65 414.47 965.37 460.301 936.22C481.133 922.835 507.021 921.348 531.424 917.778C555.827 914.209 582.013 906.773 596 886.547M284.426 1052.82C306.15 1059.95 331.145 1056.38 349.894 1043.3C394.534 1012.07 395.424 939.79 441.254 910.64C462.086 897.255 487.974 895.768 512.377 892.198C536.781 888.629 562.966 881.193 576.953 860.967M265.082 1027.24C286.806 1034.38 311.802 1030.81 330.55 1017.72C375.187 986.488 376.08 914.212 421.91 885.063C442.742 871.678 468.63 870.19 493.034 866.621C517.437 863.052 543.622 855.616 557.61 835.389" stroke="#63D5FF" stroke-width="1.1397" stroke-miterlimit="10"/>
<path d="M274.605 83.4774C319.473 83.4774 355.846 119.832 355.846 164.677C355.846 209.522 319.473 245.876 274.605 245.876C229.736 245.876 193.363 209.522 193.363 164.677C193.363 119.832 229.736 83.4774 274.605 83.4774Z" fill="#63D5FF"/>
<path d="M194.256 312.801H160.631V277.702H194.26L194.256 312.801ZM191.28 280.677H163.604V309.826H191.28V280.677Z" fill="#E9D2F4"/>
<path d="M204.374 322.911H150.512V267.292H204.374V322.911ZM201.398 270.564H153.488V320.234H201.398V270.564Z" fill="#E9D2F4"/>
<path d="M203.482 336.593H135.335V272.943L138.311 271.159V333.619H204.375L203.482 336.593Z" fill="#E9D2F4"/>
<path d="M218.064 293.764L215.088 302.39V256.881H162.118L167.174 253.907H218.064V293.764Z" fill="#E9D2F4"/>
<path d="M231.456 253.609L228.48 262.533V243.496H185.031L190.09 240.522H231.456V253.609Z" fill="#E9D2F4"/>
<path d="M198.72 350.276H147.834L143.668 347.301H199.911L198.72 350.276Z" fill="#E9D2F4"/>
<path d="M121.645 280.974L124.621 279.19V333.916L121.645 331.834V280.974Z" fill="#E9D2F4"/>
<path d="M109.741 288.113L112.717 286.328V325.588L109.741 323.506V288.113Z" fill="#E9D2F4"/>
<path d="M239.194 231.602H204.97L210.029 228.627H240.087L239.194 231.602Z" fill="#E9D2F4"/>
<path d="M194.852 361.876H164.5L160.333 358.902H195.744L194.852 361.876Z" fill="#E9D2F4"/>
<path d="M98.1348 295.251L101.111 293.467V316.965L98.1348 314.883V295.251Z" fill="#E9D2F4"/>
<path d="M243.062 219.704H224.909L229.968 216.729H243.955L243.062 219.704Z" fill="#E9D2F4"/>
<path d="M190.685 373.774H181.162L176.995 370.799H191.875L190.685 373.774Z" fill="#E9D2F4"/>
<path d="M194.256 312.801H160.631V277.702H194.26L194.256 312.801ZM191.28 280.677H163.604V309.826H191.28V280.677Z" fill="#E9D2F4"/>
<path d="M204.374 322.911H150.512V267.292H204.374V322.911ZM201.398 270.564H153.488V320.234H201.398V270.564Z" fill="#E9D2F4"/>
<path d="M203.482 336.593H135.335V272.943L138.311 271.159V333.619H204.375L203.482 336.593Z" fill="#E9D2F4"/>
<path d="M218.064 293.764L215.088 302.39V256.881H162.118L167.174 253.907H218.064V293.764Z" fill="#E9D2F4"/>
<path d="M231.456 253.609L228.48 262.533V243.496H185.031L190.09 240.522H231.456V253.609Z" fill="#E9D2F4"/>
<path d="M198.72 350.276H147.834L143.668 347.301H199.911L198.72 350.276Z" fill="#E9D2F4"/>
<path d="M121.645 280.974L124.621 279.19V333.916L121.645 331.834V280.974Z" fill="#E9D2F4"/>
<path d="M109.741 288.113L112.717 286.328V325.588L109.741 323.506V288.113Z" fill="#E9D2F4"/>
<path d="M239.194 231.602H204.97L210.029 228.627H240.087L239.194 231.602Z" fill="#E9D2F4"/>
<path d="M194.852 361.876H164.5L160.333 358.902H195.744L194.852 361.876Z" fill="#E9D2F4"/>
<path d="M98.1348 295.251L101.111 293.467V316.965L98.1348 314.883V295.251Z" fill="#E9D2F4"/>
<path d="M243.062 219.704H224.909L229.968 216.729H243.955L243.062 219.704Z" fill="#E9D2F4"/>
<path d="M190.685 373.774H181.162L176.995 370.799H191.875L190.685 373.774Z" fill="#E9D2F4"/>
<path d="M2365.47 343.137C2350.89 364.553 2322.02 370.8 2301.79 373.774C2297.92 374.369 2294.35 374.964 2290.48 375.261C2269.64 377.938 2247.92 380.913 2230.07 392.216C2206.26 407.385 2194.36 434.155 2182.75 459.733C2171.74 484.42 2160.13 509.7 2138.71 524.87C2120.26 537.66 2095.86 541.229 2074.43 534.388L2073.54 537.065C2095.56 544.501 2121.15 540.634 2140.2 527.249C2162.52 511.782 2174.12 485.905 2185.43 460.922C2196.74 435.64 2208.64 409.17 2231.85 394.595C2249.11 383.59 2270.54 380.615 2291.07 377.938C2294.94 377.343 2298.81 377.046 2302.38 376.451C2323.21 373.477 2352.67 366.635 2368.15 344.327L2365.47 343.137Z" fill="#114B5F"/>
<path d="M2346.42 317.56C2331.84 338.976 2302.98 345.222 2282.74 348.197C2278.87 348.792 2275.3 349.387 2271.43 349.684C2250.6 352.361 2228.88 355.336 2211.02 366.639C2187.21 381.808 2175.31 408.578 2163.71 434.155C2152.69 458.843 2141.09 484.123 2119.66 499.293C2101.21 512.083 2076.81 515.652 2055.39 508.811L2054.49 511.488C2076.51 518.924 2102.11 515.057 2121.15 501.672C2143.47 486.205 2155.08 460.327 2166.38 435.345C2177.69 410.062 2189.6 383.593 2212.81 369.018C2230.07 358.013 2251.5 355.038 2272.03 352.361C2275.9 351.766 2279.77 351.469 2283.34 350.874C2304.17 347.899 2333.63 341.058 2349.1 318.75L2346.42 317.56Z" fill="#114B5F"/>
<path d="M2327.08 291.98C2312.5 313.396 2283.63 319.642 2263.4 322.617C2259.53 323.211 2255.96 323.806 2252.09 324.104C2231.25 326.781 2209.53 329.755 2191.68 341.058C2167.87 356.228 2155.96 382.998 2144.36 408.575C2133.35 433.263 2121.74 458.543 2100.32 473.712C2081.87 486.502 2057.46 490.072 2036.04 483.231L2035.15 485.907C2057.17 493.344 2082.76 489.477 2101.8 476.092C2124.12 460.625 2135.73 434.747 2147.04 409.765C2158.35 384.482 2170.25 358.013 2193.46 343.438C2210.72 332.432 2232.15 329.458 2252.68 326.781C2256.55 326.186 2260.42 325.888 2263.99 325.294C2284.82 322.319 2314.28 315.478 2329.75 293.17L2327.08 291.98Z" fill="#114B5F"/>
<path d="M2357.43 326.48H2370.23V313.69H2357.43V326.48Z" fill="#F5DD90"/>
<path d="M2357.43 306.257H2370.23V293.467H2357.43V306.257Z" fill="#F5DD90"/>
<path d="M2357.43 285.733H2370.23V272.943H2357.43V285.733Z" fill="#F5DD90"/>
<path d="M2357.43 265.21H2370.23V252.42H2357.43V265.21Z" fill="#F5DD90"/>
<path d="M2357.43 244.686H2370.23V231.896H2357.43V244.686Z" fill="#F5DD90"/>
<path d="M2357.43 224.166H2370.23V211.376H2357.43V224.166Z" fill="#F5DD90"/>
<path d="M2357.43 203.94H2370.23V191.149H2357.43V203.94Z" fill="#F5DD90"/>
<path d="M2357.43 183.416H2370.23V170.626H2357.43V183.416Z" fill="#F5DD90"/>
<path d="M2357.43 162.892H2370.23V150.102H2357.43V162.892Z" fill="#F5DD90"/>
<path d="M2357.43 142.372H2370.23V129.581H2357.43V142.372Z" fill="#F5DD90"/>
<path d="M2357.43 121.848H2370.23V109.058H2357.43V121.848Z" fill="#F5DD90"/>
<path d="M2357.43 101.622H2370.23V88.8314H2357.43V101.622Z" fill="#F5DD90"/>
<path d="M2607.64 353C2599.79 354.882 2590.95 364.421 2581.53 383.461C2532.75 487.022 2351.61 784.014 2258.22 992.626C2254.95 999.768 2251.97 1006.61 2249.29 1013.46C2246.62 1019.71 2243.94 1025.96 2241.56 1032.21C2237.99 1040.84 2234.72 1048.87 2231.74 1057.2C2229.37 1063.45 2226.99 1069.7 2224.9 1075.95C2222.23 1083.69 2219.55 1091.43 2217.17 1098.87C2215.09 1105.42 2213.3 1111.67 2211.52 1117.62C2209.14 1126.55 2207.06 1134.58 2205.57 1142.62C2204.08 1150.95 2202.89 1158.39 2202.6 1165.53C2202 1173.27 2202.3 1180.11 2203.49 1186.36C2204.08 1190.23 2205.27 1193.8 2206.76 1197.08C2239.48 1269.69 2283.5 1101.25 2311.46 1160.47C2359.34 1262.55 2266.84 1367.89 2303.13 1451.52C2331.68 1516.98 2375.11 1492.88 2404.85 1444.37C2436.38 1392.59 2490.51 1333.07 2533.05 1246.18C2545.83 1220.23 2575.75 1159.93 2607.64 1090.38L2607.64 353Z" fill="#114B5F"/>
<path d="M2248.7 1142.01L2272.19 1117.02L2211.22 1117.02C2208.84 1125.94 2206.76 1133.98 2205.27 1142.01L2248.7 1142.01Z" fill="#63D5FF"/>
<path d="M2203.19 1185.46L2205.27 1185.46L2228.77 1164.63L2202.3 1164.63C2201.7 1172.37 2202 1179.51 2203.19 1185.46Z" fill="#63D5FF"/>
<path d="M2335.84 1056.9L2358.45 1031.91L2241.56 1031.91C2237.99 1040.54 2234.72 1048.57 2231.74 1056.9L2335.84 1056.9Z" fill="#63D5FF"/>
<path d="M2249.29 1013.46L2378.38 1013.46L2398.6 992.626L2258.51 992.626C2254.94 999.768 2251.97 1006.61 2249.29 1013.46Z" fill="#63D5FF"/>
<path d="M2292.12 1098.57L2315.62 1075.65L2224.61 1075.65C2221.93 1083.39 2219.25 1091.13 2216.87 1098.57L2292.12 1098.57Z" fill="#63D5FF"/>
</g>
<defs>
<linearGradient id="paint0_linear_181_10" x1="0" y1="990.698" x2="590.606" y2="990.698" gradientUnits="userSpaceOnUse">
<stop stop-color="#3C2255"/>
<stop offset="1" stop-color="#5B3580"/>
</linearGradient>
<linearGradient id="paint1_linear_181_10" x1="2237.88" y1="39.4948" x2="2050.8" y2="-155.772" gradientUnits="userSpaceOnUse">
<stop stop-color="#5B3580"/>
<stop offset="1" stop-color="#451B6E"/>
</linearGradient>
<clipPath id="clip0_181_10">
<rect width="2560" height="1589" fill="white" transform="matrix(1 0 0 -1 0 1589)"/>
</clipPath>
</defs>
</svg>
