<svg width="1257" height="1580" viewBox="0 0 1257 1580" fill="none" xmlns="http://www.w3.org/2000/svg">
<g filter="url(#filter0_d_247_12)">
<path d="M-0.00195312 529.381V-318.001H1007.75L-0.00195312 529.381Z" fill="#114B5F"/>
</g>
<g filter="url(#filter1_d_247_12)">
<path d="M-0.00195312 1036.15V176.391C54.446 128.956 196.353 9.95892 291.566 -28.0629C300.792 -31.6322 309.422 -34.6067 317.755 -36.6888C324.6 -38.4735 331.147 -39.3659 337.396 -39.9608C346.622 -40.5557 354.657 -39.3658 361.204 -36.3914C364.18 -34.9041 367.156 -33.417 369.537 -31.3348C373.704 -27.7655 377.275 -24.1961 380.846 -20.3293C411.499 13.5794 406.142 51.9467 385.012 91.2094C334.424 186.091 193.364 287.814 247.528 355.331C319.841 445.454 375.492 338.972 444.235 426.417C519.633 523.17 103.662 935.899 -0.00195312 1036.15Z" fill="#F5DD90"/>
</g>
<g filter="url(#filter2_d_247_12)">
<path d="M291.269 -114.616H317.457V-36.6887C309.422 -34.6066 300.494 -31.9295 291.269 -28.0627V-114.616Z" fill="#E9D2F4"/>
<path d="M291.269 -3.67236V-28.0627C300.494 -31.6321 309.125 -34.6066 317.457 -36.6887V20.7149L291.269 -3.67236Z" fill="#E9D2F4"/>
<path d="M245.739 -114.616H267.46V-24.791L245.739 -49.1782V-114.616Z" fill="#E9D2F4"/>
<path d="M199.909 -114.616H224.014V-70.2969L199.909 -94.9848V-114.616Z" fill="#E9D2F4"/>
<path d="M380.248 -20.0317V-114.616H406.437V111.135L384.712 91.5037C405.544 51.9499 410.901 13.877 380.248 -20.0317Z" fill="#E9D2F4"/>
<path d="M384.712 91.507L380.545 87.6402V-20.0317C410.9 13.877 405.544 51.95 384.712 91.507Z" fill="#E9D2F4"/>
<path d="M425.781 -114.616H447.502V153.075L425.781 131.959V-114.616Z" fill="#E9D2F4"/>
<path d="M336.802 -39.66V-114.613H360.61V-36.0906C354.059 -39.0651 346.024 -40.2549 336.802 -39.66Z" fill="#E9D2F4"/>
<path d="M336.802 41.8367V-39.9574C346.027 -40.5523 354.062 -39.3626 360.61 -36.3882V66.2272L336.802 41.8367Z" fill="#E9D2F4"/>
<path d="M291.269 -114.616H317.457V-36.6887C309.422 -34.6066 300.494 -31.9295 291.269 -28.0627V-114.616Z" fill="#E9D2F4"/>
<path d="M291.269 -3.67236V-28.0627C300.494 -31.6321 309.125 -34.6066 317.457 -36.6887V20.7149L291.269 -3.67236Z" fill="#E9D2F4"/>
<path d="M245.739 -114.616H267.46V-24.791L245.739 -49.1782V-114.616Z" fill="#E9D2F4"/>
<path d="M199.909 -114.616H224.014V-70.2969L199.909 -94.9848V-114.616Z" fill="#E9D2F4"/>
<path d="M336.802 41.8367V-39.9574C346.027 -40.5523 354.062 -39.3626 360.61 -36.3882V66.2272L336.802 41.8367Z" fill="#E9D2F4"/>
<path fill-rule="evenodd" clip-rule="evenodd" d="M380.248 -20.0317C380.347 -19.9217 380.447 -19.8116 380.545 -19.7015V-20.0317C410.9 13.8764 405.544 51.9484 384.713 91.5045L384.712 91.5037C402.94 56.8942 409.32 23.4184 390.095 -7.12599C387.349 -11.4895 384.08 -15.7931 380.248 -20.0317Z" fill="#E9D2F4"/>
<path fill-rule="evenodd" clip-rule="evenodd" d="M384.713 91.5045L384.712 91.5037C402.94 56.8942 409.32 23.4184 390.095 -7.12599C387.42 -11.3762 384.249 -15.5697 380.545 -19.7015V-20.0317C410.9 13.8764 405.544 51.9484 384.713 91.5045Z" fill="#E9D2F4"/>
<path fill-rule="evenodd" clip-rule="evenodd" d="M336.802 -39.9574V-39.66C346.024 -40.2549 354.059 -39.0651 360.61 -36.0906V-36.3882C354.062 -39.3626 346.027 -40.5523 336.802 -39.9574Z" fill="#E9D2F4"/>
</g>
<g filter="url(#filter3_d_247_12)">
<path d="M303.47 1078.39C325.195 1085.53 350.19 1081.96 368.939 1068.88C413.579 1037.64 414.468 965.368 460.299 936.219C481.131 922.834 507.019 921.346 531.422 917.777C555.825 914.208 582.011 906.772 595.998 886.545M284.424 1052.81C306.148 1059.95 331.144 1056.38 349.892 1043.3C394.532 1012.06 395.422 939.788 441.252 910.638C462.084 897.253 487.972 895.766 512.376 892.197C536.779 888.628 562.964 881.191 576.952 860.965M265.08 1027.24C286.804 1034.38 311.8 1030.81 330.548 1017.72C375.185 986.487 376.078 914.211 421.908 885.061C442.74 871.676 468.628 870.189 493.032 866.62C517.435 863.05 543.62 855.614 557.608 835.388" stroke="#63D5FF" stroke-width="1.1397" stroke-miterlimit="10" shape-rendering="crispEdges"/>
</g>
<g filter="url(#filter4_d_247_12)">
<path d="M274.603 83.4759C319.471 83.4759 355.845 119.83 355.845 164.675C355.845 209.52 319.471 245.875 274.603 245.875C229.734 245.875 193.361 209.52 193.361 164.675C193.361 119.83 229.734 83.4759 274.603 83.4759Z" fill="#63D5FF"/>
</g>
<g filter="url(#filter5_d_247_12)">
<path d="M194.255 312.799H160.629V277.701H194.258L194.255 312.799ZM191.279 280.675H163.602V309.825H191.279V280.675Z" fill="#E9D2F4"/>
<path d="M204.373 322.91H150.51V267.291H204.373V322.91ZM201.397 270.563H153.486V320.233H201.397V270.563Z" fill="#E9D2F4"/>
<path d="M203.48 336.592H135.333V272.942L138.309 271.157V333.617H204.373L203.48 336.592Z" fill="#E9D2F4"/>
<path d="M218.062 293.763L215.086 302.389V256.88H162.116L167.173 253.905H218.062V293.763Z" fill="#E9D2F4"/>
<path d="M231.454 253.608L228.478 262.531V243.495H185.029L190.088 240.52H231.454V253.608Z" fill="#E9D2F4"/>
<path d="M198.718 350.274H147.832L143.666 347.3H199.909L198.718 350.274Z" fill="#E9D2F4"/>
<path d="M121.643 280.973L124.619 279.188V333.915L121.643 331.833V280.973Z" fill="#E9D2F4"/>
<path d="M109.739 288.111L112.715 286.327V325.586L109.739 323.504V288.111Z" fill="#E9D2F4"/>
<path d="M239.192 231.6H204.968L210.027 228.626H240.085L239.192 231.6Z" fill="#E9D2F4"/>
<path d="M194.85 361.875H164.498L160.331 358.9H195.742L194.85 361.875Z" fill="#E9D2F4"/>
<path d="M98.1328 295.25L101.109 293.465V316.964L98.1328 314.881V295.25Z" fill="#E9D2F4"/>
<path d="M243.061 219.702H224.907L229.966 216.728H243.953L243.061 219.702Z" fill="#E9D2F4"/>
<path d="M190.683 373.772H181.16L176.993 370.798H191.873L190.683 373.772Z" fill="#E9D2F4"/>
</g>
<g filter="url(#filter6_d_247_12)">
<path d="M194.255 312.799H160.629V277.701H194.258L194.255 312.799ZM191.279 280.675H163.602V309.825H191.279V280.675Z" fill="#114B5F"/>
<path d="M204.373 322.91H150.51V267.291H204.373V322.91ZM201.397 270.563H153.486V320.233H201.397V270.563Z" fill="#114B5F"/>
<path d="M203.48 336.592H135.333V272.942L138.309 271.157V333.617H204.373L203.48 336.592Z" fill="#114B5F"/>
<path d="M218.062 293.763L215.086 302.389V256.88H162.116L167.172 253.905H218.062V293.763Z" fill="#114B5F"/>
<path d="M231.454 253.608L228.478 262.531V243.495H185.029L190.088 240.52H231.454V253.608Z" fill="#114B5F"/>
<path d="M198.718 350.274H147.832L143.666 347.3H199.909L198.718 350.274Z" fill="#114B5F"/>
<path d="M121.643 280.973L124.619 279.188V333.915L121.643 331.833V280.973Z" fill="#114B5F"/>
<path d="M109.739 288.111L112.715 286.327V325.586L109.739 323.504V288.111Z" fill="#114B5F"/>
<path d="M239.192 231.6H204.968L210.027 228.626H240.085L239.192 231.6Z" fill="#114B5F"/>
<path d="M194.85 361.875H164.498L160.331 358.9H195.742L194.85 361.875Z" fill="#114B5F"/>
<path d="M98.1328 295.25L101.109 293.465V316.964L98.1328 314.881V295.25Z" fill="#114B5F"/>
<path d="M243.06 219.702H224.907L229.966 216.728H243.953L243.06 219.702Z" fill="#114B5F"/>
<path d="M190.683 373.772H181.16L176.993 370.798H191.873L190.683 373.772Z" fill="#114B5F"/>
</g>
<g filter="url(#filter7_d_247_12)">
<path d="M-0.00195312 1571.45V456.114C83.0381 431.723 286.795 379.568 351.384 433.556C476.072 537.361 234.43 751.809 146.641 861.266C116.584 899.041 90.3949 962.691 134.44 982.917C238.001 1030.51 400.484 840.15 556.421 983.81C736.558 1150.12 153.486 1487.21 -0.00195312 1571.45Z" fill="url(#paint0_linear_247_12)"/>
</g>
<g filter="url(#filter8_d_247_12)">
<path d="M1250.99 93.2914C1253.67 98.0505 1252.48 103.107 1247.72 108.759C1234.33 124.821 1203.97 131.364 1176.3 140.288C1140.59 151.888 1102.5 163.191 1056.67 163.191C981.675 163.191 898.052 127.498 877.518 86.7508C858.472 48.6778 890.91 13.8799 937.63 -9.02335C953.998 -17.0544 972.747 -24.193 995.956 -26.5726C1019.17 -28.9521 1047.74 -25.6802 1067.97 -15.5671C1094.16 -2.47952 1099.22 16.557 1106.66 33.8056C1114.1 51.0542 1131.66 71.5811 1163.8 76.9351C1179.87 79.6121 1195.64 77.8274 1211.71 78.4223C1227.49 79.014 1242.07 79.9064 1250.99 93.2914Z" fill="#E9D2F4"/>
</g>
<defs>
<filter id="filter0_d_247_12" x="-4.00195" y="-318.001" width="1015.75" height="855.383" filterUnits="userSpaceOnUse" color-interpolation-filters="sRGB">
<feFlood flood-opacity="0" result="BackgroundImageFix"/>
<feColorMatrix in="SourceAlpha" type="matrix" values="0 0 0 0 0 0 0 0 0 0 0 0 0 0 0 0 0 0 127 0" result="hardAlpha"/>
<feOffset dy="4"/>
<feGaussianBlur stdDeviation="2"/>
<feComposite in2="hardAlpha" operator="out"/>
<feColorMatrix type="matrix" values="0 0 0 0 0 0 0 0 0 0 0 0 0 0 0 0 0 0 0.25 0"/>
<feBlend mode="normal" in2="BackgroundImageFix" result="effect1_dropShadow_247_12"/>
<feBlend mode="normal" in="SourceGraphic" in2="effect1_dropShadow_247_12" result="shape"/>
</filter>
<filter id="filter1_d_247_12" x="-4.00195" y="-40.1096" width="461.316" height="1084.26" filterUnits="userSpaceOnUse" color-interpolation-filters="sRGB">
<feFlood flood-opacity="0" result="BackgroundImageFix"/>
<feColorMatrix in="SourceAlpha" type="matrix" values="0 0 0 0 0 0 0 0 0 0 0 0 0 0 0 0 0 0 127 0" result="hardAlpha"/>
<feOffset dy="4"/>
<feGaussianBlur stdDeviation="2"/>
<feComposite in2="hardAlpha" operator="out"/>
<feColorMatrix type="matrix" values="0 0 0 0 0 0 0 0 0 0 0 0 0 0 0 0 0 0 0.25 0"/>
<feBlend mode="normal" in2="BackgroundImageFix" result="effect1_dropShadow_247_12"/>
<feBlend mode="normal" in="SourceGraphic" in2="effect1_dropShadow_247_12" result="shape"/>
</filter>
<filter id="filter2_d_247_12" x="195.909" y="-114.616" width="255.594" height="275.691" filterUnits="userSpaceOnUse" color-interpolation-filters="sRGB">
<feFlood flood-opacity="0" result="BackgroundImageFix"/>
<feColorMatrix in="SourceAlpha" type="matrix" values="0 0 0 0 0 0 0 0 0 0 0 0 0 0 0 0 0 0 127 0" result="hardAlpha"/>
<feOffset dy="4"/>
<feGaussianBlur stdDeviation="2"/>
<feComposite in2="hardAlpha" operator="out"/>
<feColorMatrix type="matrix" values="0 0 0 0 0 0 0 0 0 0 0 0 0 0 0 0 0 0 0.25 0"/>
<feBlend mode="normal" in2="BackgroundImageFix" result="effect1_dropShadow_247_12"/>
<feBlend mode="normal" in="SourceGraphic" in2="effect1_dropShadow_247_12" result="shape"/>
</filter>
<filter id="filter3_d_247_12" x="260.902" y="835.064" width="339.564" height="255.515" filterUnits="userSpaceOnUse" color-interpolation-filters="sRGB">
<feFlood flood-opacity="0" result="BackgroundImageFix"/>
<feColorMatrix in="SourceAlpha" type="matrix" values="0 0 0 0 0 0 0 0 0 0 0 0 0 0 0 0 0 0 127 0" result="hardAlpha"/>
<feOffset dy="4"/>
<feGaussianBlur stdDeviation="2"/>
<feComposite in2="hardAlpha" operator="out"/>
<feColorMatrix type="matrix" values="0 0 0 0 0 0 0 0 0 0 0 0 0 0 0 0 0 0 0.25 0"/>
<feBlend mode="normal" in2="BackgroundImageFix" result="effect1_dropShadow_247_12"/>
<feBlend mode="normal" in="SourceGraphic" in2="effect1_dropShadow_247_12" result="shape"/>
</filter>
<filter id="filter4_d_247_12" x="189.361" y="83.4758" width="170.483" height="170.399" filterUnits="userSpaceOnUse" color-interpolation-filters="sRGB">
<feFlood flood-opacity="0" result="BackgroundImageFix"/>
<feColorMatrix in="SourceAlpha" type="matrix" values="0 0 0 0 0 0 0 0 0 0 0 0 0 0 0 0 0 0 127 0" result="hardAlpha"/>
<feOffset dy="4"/>
<feGaussianBlur stdDeviation="2"/>
<feComposite in2="hardAlpha" operator="out"/>
<feColorMatrix type="matrix" values="0 0 0 0 0 0 0 0 0 0 0 0 0 0 0 0 0 0 0.25 0"/>
<feBlend mode="normal" in2="BackgroundImageFix" result="effect1_dropShadow_247_12"/>
<feBlend mode="normal" in="SourceGraphic" in2="effect1_dropShadow_247_12" result="shape"/>
</filter>
<filter id="filter5_d_247_12" x="94.1328" y="216.728" width="153.82" height="165.044" filterUnits="userSpaceOnUse" color-interpolation-filters="sRGB">
<feFlood flood-opacity="0" result="BackgroundImageFix"/>
<feColorMatrix in="SourceAlpha" type="matrix" values="0 0 0 0 0 0 0 0 0 0 0 0 0 0 0 0 0 0 127 0" result="hardAlpha"/>
<feOffset dy="4"/>
<feGaussianBlur stdDeviation="2"/>
<feComposite in2="hardAlpha" operator="out"/>
<feColorMatrix type="matrix" values="0 0 0 0 0 0 0 0 0 0 0 0 0 0 0 0 0 0 0.25 0"/>
<feBlend mode="normal" in2="BackgroundImageFix" result="effect1_dropShadow_247_12"/>
<feBlend mode="normal" in="SourceGraphic" in2="effect1_dropShadow_247_12" result="shape"/>
</filter>
<filter id="filter6_d_247_12" x="94.1328" y="216.728" width="153.82" height="165.044" filterUnits="userSpaceOnUse" color-interpolation-filters="sRGB">
<feFlood flood-opacity="0" result="BackgroundImageFix"/>
<feColorMatrix in="SourceAlpha" type="matrix" values="0 0 0 0 0 0 0 0 0 0 0 0 0 0 0 0 0 0 127 0" result="hardAlpha"/>
<feOffset dy="4"/>
<feGaussianBlur stdDeviation="2"/>
<feComposite in2="hardAlpha" operator="out"/>
<feColorMatrix type="matrix" values="0 0 0 0 0 0 0 0 0 0 0 0 0 0 0 0 0 0 0.25 0"/>
<feBlend mode="normal" in2="BackgroundImageFix" result="effect1_dropShadow_247_12"/>
<feBlend mode="normal" in="SourceGraphic" in2="effect1_dropShadow_247_12" result="shape"/>
</filter>
<filter id="filter7_d_247_12" x="-4.00195" y="409.946" width="598.606" height="1169.5" filterUnits="userSpaceOnUse" color-interpolation-filters="sRGB">
<feFlood flood-opacity="0" result="BackgroundImageFix"/>
<feColorMatrix in="SourceAlpha" type="matrix" values="0 0 0 0 0 0 0 0 0 0 0 0 0 0 0 0 0 0 127 0" result="hardAlpha"/>
<feOffset dy="4"/>
<feGaussianBlur stdDeviation="2"/>
<feComposite in2="hardAlpha" operator="out"/>
<feColorMatrix type="matrix" values="0 0 0 0 0 0 0 0 0 0 0 0 0 0 0 0 0 0 0.25 0"/>
<feBlend mode="normal" in2="BackgroundImageFix" result="effect1_dropShadow_247_12"/>
<feBlend mode="normal" in="SourceGraphic" in2="effect1_dropShadow_247_12" result="shape"/>
</filter>
<filter id="filter8_d_247_12" x="867.971" y="-27.3132" width="388.426" height="198.504" filterUnits="userSpaceOnUse" color-interpolation-filters="sRGB">
<feFlood flood-opacity="0" result="BackgroundImageFix"/>
<feColorMatrix in="SourceAlpha" type="matrix" values="0 0 0 0 0 0 0 0 0 0 0 0 0 0 0 0 0 0 127 0" result="hardAlpha"/>
<feOffset dy="4"/>
<feGaussianBlur stdDeviation="2"/>
<feComposite in2="hardAlpha" operator="out"/>
<feColorMatrix type="matrix" values="0 0 0 0 0 0 0 0 0 0 0 0 0 0 0 0 0 0 0.25 0"/>
<feBlend mode="normal" in2="BackgroundImageFix" result="effect1_dropShadow_247_12"/>
<feBlend mode="normal" in="SourceGraphic" in2="effect1_dropShadow_247_12" result="shape"/>
</filter>
<linearGradient id="paint0_linear_247_12" x1="-0.00195312" y1="990.697" x2="590.604" y2="990.697" gradientUnits="userSpaceOnUse">
<stop stop-color="#3C2255"/>
<stop offset="1" stop-color="#5B3580"/>
</linearGradient>
</defs>
</svg>
