<svg width="551" height="427" viewBox="0 0 551 427" fill="none" xmlns="http://www.w3.org/2000/svg">
<g clip-path="url(#clip0_155_596)">
<g clip-path="url(#clip1_155_596)">
<path d="M418.013 1.23865L394.113 13.4756H424.291L418.013 1.23865ZM310.512 56.2678H446.25L434.693 33.7462H354.515L310.512 56.2678ZM226.913 99.0601H468.206L456.65 76.5385H270.911L226.913 99.0601ZM238.224 141.852H490.167L478.608 119.331H226.667L238.224 141.852ZM260.185 184.645H512.123L500.567 162.123H248.628L260.185 184.645ZM282.141 227.437H463.316L507.315 204.915H270.585L282.141 227.437ZM304.1 270.227H379.718L423.718 247.707H292.543L304.1 270.227ZM319.829 300.884L340.12 290.497H314.5L319.829 300.884Z" fill="#E9D2F4"/>
</g>
<g clip-path="url(#clip2_155_596)">
<path d="M353.12 119.737L223.318 312.569L45.5454 192.402L175.348 -0.430664L353.12 119.737Z" fill="#F5DD90"/>
</g>
<g clip-path="url(#clip3_155_596)">
<path d="M160.322 236.909L160.36 236.984C160.374 236.945 160.391 236.908 160.407 236.869L160.322 236.909ZM204.064 182.105C203.602 182.411 203.142 182.72 202.685 183.032L204.161 182.303L204.064 182.105ZM228.281 170.359L228.092 169.975C225.038 171.091 222.034 172.338 219.087 173.712L219.565 174.676L228.281 170.359ZM172.737 213.066C170.917 215.757 169.212 218.524 167.627 221.36L175.034 217.693L172.737 213.066ZM190.443 210.069L186.118 201.362L194.837 197.045L199.16 205.75L190.443 210.069ZM214.558 198.124L210.233 189.419L218.952 185.102L223.275 193.808L214.558 198.124ZM238.676 186.183L234.353 177.477L243.071 173.16L247.395 181.865L238.676 186.183ZM262.79 174.236L271.508 169.919L268.169 163.195C267.765 163.191 267.368 163.164 266.961 163.164C265.65 163.164 264.348 163.218 263.047 163.264L258.467 165.531L262.79 174.236Z" fill="#5B3580"/>
<path d="M173.364 241.296L169.041 232.591L160.406 236.867C160.392 236.906 160.375 236.944 160.36 236.983L164.645 245.613L173.364 241.296ZM188.768 233.674L184.445 224.969L193.162 220.651L197.485 229.357L188.768 233.674ZM212.888 221.731L208.565 213.026L217.282 208.708L221.607 217.414L212.888 221.731ZM237.008 209.787L232.683 201.082L241.402 196.764L245.726 205.47L237.008 209.787ZM261.121 197.844L256.798 189.139L265.516 184.821L269.84 193.527L261.121 197.844ZM164.027 256.038L168.35 264.743L159.633 269.06L155.309 260.355L164.027 256.038ZM183.762 257.122L179.439 248.417L188.156 244.1L192.479 252.805L183.762 257.122ZM207.877 245.177L203.553 236.472L212.271 232.154L216.596 240.86L207.877 245.177ZM231.999 233.235L227.675 224.53L236.394 220.213L240.717 228.919L231.999 233.235ZM256.114 221.291L251.79 212.585L260.509 208.268L264.832 216.973L256.114 221.291ZM280.234 209.349L275.91 200.642L284.629 196.325L288.952 205.03L280.234 209.349ZM162.352 279.641L166.676 288.346L157.958 292.664L153.635 283.958L162.352 279.641ZM190.801 276.402L182.083 280.72L177.76 272.013L186.478 267.697L190.801 276.402ZM206.21 268.784L201.887 260.078L210.604 255.762L214.927 264.467L206.21 268.784ZM230.323 256.841L225.999 248.136L234.718 243.817L239.041 252.524L230.323 256.841ZM254.441 244.895L250.118 236.189L258.835 231.872L263.16 240.577L254.441 244.895ZM278.558 232.953L274.234 224.246L282.953 219.929L287.276 228.634L278.558 232.953ZM157.349 303.093L156.366 303.579C157.142 306.779 158.058 309.944 159.111 313.064L161.671 311.795L157.349 303.093ZM181.463 291.145L185.787 299.85L177.068 304.167L172.745 295.462L181.463 291.145ZM205.58 279.202L209.904 287.907L201.185 292.225L196.862 283.519L205.58 279.202ZM229.699 267.261L234.023 275.966L225.304 280.283L220.981 271.578L229.699 267.261ZM258.147 264.022L249.429 268.339L245.106 259.634L253.824 255.315L258.147 264.022ZM269.218 247.7L277.936 243.383L282.261 252.088L273.542 256.406L269.218 247.7ZM297.668 244.458L293.345 235.753L302.063 231.436L306.386 240.141L297.668 244.458ZM179.786 314.746L184.11 323.453L175.392 327.77L171.069 319.065L179.786 314.746ZM203.908 302.806L208.231 311.513L199.513 315.83L195.189 307.124L203.908 302.806ZM232.358 299.567L223.639 303.884L219.315 295.179L228.033 290.862L232.358 299.567ZM243.425 283.251L252.144 278.934L256.467 287.639L247.749 291.956L243.425 283.251ZM280.595 275.677L271.876 279.995L267.553 271.288L276.271 266.971L280.595 275.677ZM296 268.065L291.677 259.359L300.395 255.042L304.718 263.747L296 268.065ZM173.776 341.998C175.556 344.546 177.442 347.019 179.427 349.411L175.357 341.215L173.776 341.998ZM199.469 329.27L203.792 337.976L195.075 342.294L190.751 333.587L199.469 329.27ZM223.584 317.325L227.907 326.03L219.19 330.347L214.866 321.642L223.584 317.325ZM247.705 305.385L252.028 314.09L243.311 318.408L238.988 309.702L247.705 305.385ZM276.156 302.141L267.437 306.458L263.114 297.753L271.832 293.434L276.156 302.141ZM300.274 290.202L291.555 294.519L287.232 285.814L295.949 281.496L300.274 290.202ZM315.672 282.583L311.349 273.877L320.067 269.559L324.391 278.266L315.672 282.583ZM197.802 352.878L189.084 357.195L191.306 361.668C192.586 362.808 193.891 363.919 195.22 365.002L202.124 361.584L197.802 352.878ZM221.912 340.929L226.235 349.634L217.517 353.952L213.193 345.246L221.912 340.929ZM246.032 328.989L250.355 337.694L241.637 342.011L237.314 333.306L246.032 328.989ZM261.433 321.375L270.151 317.057L274.474 325.763L265.756 330.08L261.433 321.375ZM285.553 309.428L294.272 305.111L298.595 313.816L289.878 318.133L285.553 309.428ZM314.008 306.189L309.684 297.484L318.402 293.166L322.726 301.872L314.008 306.189ZM216.91 364.383L208.192 368.7L211.966 376.296C212.407 376.538 212.846 376.782 213.292 377.019L221.235 373.087L216.91 364.383ZM241.023 352.436L245.348 361.141L236.629 365.458L232.306 356.753L241.023 352.436ZM265.137 340.489L269.461 349.195L260.742 353.513L256.419 344.806L265.137 340.489ZM289.261 328.551L293.585 337.256L284.866 341.574L280.543 332.867L289.261 328.551ZM313.373 316.606L317.696 325.312L308.979 329.63L304.655 320.923L313.373 316.606ZM337.49 304.662L341.814 313.369L333.096 317.686L328.773 308.979L337.49 304.662ZM239.355 376.044L230.637 380.361L233.105 385.329C235.087 385.945 237.098 386.496 239.123 387.004L243.677 384.748L239.355 376.044ZM263.469 364.096L267.792 372.802L259.074 377.119L254.75 368.414L263.469 364.096ZM287.586 352.153L291.909 360.86L283.192 365.177L278.868 356.472L287.586 352.153ZM311.698 340.208L316.023 348.914L307.304 353.231L302.981 344.526L311.698 340.208ZM335.821 328.27L340.145 336.975L331.427 341.292L327.103 332.587L335.821 328.27ZM254.115 389.702C255.99 389.912 257.877 390.075 259.779 390.193L258.465 387.547L254.115 389.702ZM282.576 375.602L286.899 384.308L278.182 388.625L273.859 379.92L282.576 375.602ZM306.695 363.659L311.018 372.365L302.3 376.682L297.976 367.977L306.695 363.659ZM330.814 351.716L335.137 360.421L326.418 364.739L322.095 356.033L330.814 351.716ZM354.936 339.777L346.219 344.094L350.542 352.801L352.326 351.917C354.201 349.799 355.997 347.613 357.711 345.363L354.936 339.777Z" fill="#5B3580"/>
</g>
<g clip-path="url(#clip4_155_596)">
<path d="M325.82 199.143C376.077 190.315 412.3 157.593 406.728 126.057C401.155 94.5205 355.897 76.1116 305.639 84.9395C255.382 93.7674 219.159 126.489 224.731 158.026C230.304 189.562 275.563 207.971 325.82 199.143Z" fill="#F9F7F8"/>
<path d="M340.164 271.671C339.909 271.671 339.66 271.594 339.449 271.45C339.239 271.307 339.077 271.103 338.985 270.866C336.264 263.887 338.111 256.215 339.898 248.796C341.893 240.511 343.778 232.684 339.269 226.531C335.827 221.832 329.576 219.94 323.914 218.709C316.78 217.156 309.391 216.141 302.245 215.159C293.265 213.925 283.979 212.649 275.037 210.292C255.855 205.234 241.541 195.271 234.734 182.237C232.679 178.301 231.311 174.026 230.603 169.572C228.63 166.79 227.075 163.736 225.987 160.506C217.94 136.513 238.974 112.099 261.924 99.5675C283.902 87.565 308.75 80.5494 333.779 79.28C334.47 79.264 335.071 79.7794 335.106 80.4755C335.123 80.8094 335.006 81.1365 334.782 81.3846C334.557 81.6328 334.242 81.7817 333.907 81.7987C309.256 83.0488 284.784 89.9576 263.138 101.778C241.082 113.822 220.798 137.087 228.385 159.705C228.848 161.084 229.404 162.43 230.052 163.733C229.609 149.896 235.064 135.018 245.622 123.392C257.643 110.153 274.996 100.702 300.231 93.6448C335.263 83.85 364.308 84.9143 386.559 96.8075C400.749 104.392 414.025 119.642 411.697 136.614C410.793 143.2 407.676 149.714 401.89 157.112C387.908 174.986 367.217 187.56 342.053 193.473C319.27 198.828 293.549 198.424 269.626 192.336C257.721 189.307 243.47 183.796 234.126 173.873C234.827 176.364 235.782 178.777 236.978 181.073C245.713 197.799 264.978 205.031 275.683 207.853C284.477 210.171 293.685 211.436 302.59 212.66C309.784 213.649 317.223 214.671 324.453 216.244C330.578 217.577 337.37 219.663 341.311 225.043C346.51 232.138 344.399 240.906 342.357 249.386C340.661 256.427 338.908 263.708 341.342 269.953C341.416 270.144 341.443 270.35 341.419 270.554C341.396 270.757 341.323 270.952 341.207 271.121C341.091 271.291 340.935 271.429 340.753 271.525C340.572 271.62 340.369 271.67 340.164 271.671ZM233.002 168.58C241.591 180.348 257.345 186.608 270.252 189.893C312.923 200.75 369.556 194.345 399.895 155.56C405.396 148.528 408.35 142.399 409.191 136.273C411.354 120.5 398.783 106.203 385.365 99.0311C363.707 87.454 335.294 86.4603 300.915 96.0736C276.159 102.995 259.185 112.214 247.497 125.085C236.099 137.635 230.899 154.099 233.002 168.58Z" fill="#1B236D"/>
<path d="M259.372 134.68C259.372 134.16 259.464 133.652 259.648 133.156C259.84 132.652 260.116 132.196 260.476 131.788C260.836 131.372 261.276 131.044 261.796 130.804C262.316 130.556 262.908 130.432 263.572 130.432C264.356 130.432 265.032 130.604 265.6 130.948C266.176 131.292 266.604 131.74 266.884 132.292L265.612 133.168C265.468 132.848 265.28 132.596 265.048 132.412C264.816 132.22 264.568 132.088 264.304 132.016C264.04 131.936 263.78 131.896 263.524 131.896C263.108 131.896 262.744 131.98 262.432 132.148C262.128 132.316 261.872 132.536 261.664 132.808C261.456 133.08 261.3 133.384 261.196 133.72C261.1 134.056 261.052 134.392 261.052 134.728C261.052 135.104 261.112 135.468 261.232 135.82C261.352 136.164 261.52 136.472 261.736 136.744C261.96 137.008 262.224 137.22 262.528 137.38C262.84 137.532 263.18 137.608 263.548 137.608C263.812 137.608 264.08 137.564 264.352 137.476C264.624 137.388 264.876 137.248 265.108 137.056C265.34 136.864 265.52 136.616 265.648 136.312L267.004 137.092C266.836 137.516 266.56 137.876 266.176 138.172C265.8 138.468 265.376 138.692 264.904 138.844C264.432 138.996 263.964 139.072 263.5 139.072C262.892 139.072 262.336 138.948 261.832 138.7C261.328 138.444 260.892 138.108 260.524 137.692C260.164 137.268 259.88 136.796 259.672 136.276C259.472 135.748 259.372 135.216 259.372 134.68ZM267.527 137.14C267.527 136.732 267.639 136.376 267.863 136.072C268.095 135.76 268.415 135.52 268.823 135.352C269.231 135.184 269.699 135.1 270.227 135.1C270.491 135.1 270.759 135.12 271.031 135.16C271.303 135.2 271.539 135.264 271.739 135.352V135.016C271.739 134.616 271.619 134.308 271.379 134.092C271.147 133.876 270.799 133.768 270.335 133.768C269.991 133.768 269.663 133.828 269.351 133.948C269.039 134.068 268.711 134.244 268.367 134.476L267.851 133.42C268.267 133.148 268.691 132.944 269.123 132.808C269.563 132.672 270.023 132.604 270.503 132.604C271.399 132.604 272.095 132.828 272.591 133.276C273.095 133.724 273.347 134.364 273.347 135.196V137.2C273.347 137.368 273.375 137.488 273.431 137.56C273.495 137.632 273.595 137.676 273.731 137.692V139C273.587 139.024 273.455 139.044 273.335 139.06C273.223 139.076 273.127 139.084 273.047 139.084C272.727 139.084 272.483 139.012 272.315 138.868C272.155 138.724 272.055 138.548 272.015 138.34L271.979 138.016C271.707 138.368 271.367 138.64 270.959 138.832C270.551 139.024 270.135 139.12 269.711 139.12C269.295 139.12 268.919 139.036 268.583 138.868C268.255 138.692 267.995 138.456 267.803 138.16C267.619 137.856 267.527 137.516 267.527 137.14ZM271.439 137.464C271.527 137.368 271.599 137.272 271.655 137.176C271.711 137.08 271.739 136.992 271.739 136.912V136.276C271.547 136.196 271.339 136.136 271.115 136.096C270.891 136.048 270.679 136.024 270.479 136.024C270.063 136.024 269.719 136.116 269.447 136.3C269.183 136.476 269.051 136.712 269.051 137.008C269.051 137.168 269.095 137.32 269.183 137.464C269.271 137.608 269.399 137.724 269.567 137.812C269.735 137.9 269.935 137.944 270.167 137.944C270.407 137.944 270.643 137.9 270.875 137.812C271.107 137.716 271.295 137.6 271.439 137.464ZM274.837 130.24H276.445V136.984C276.445 137.272 276.493 137.468 276.589 137.572C276.685 137.668 276.817 137.716 276.985 137.716C277.113 137.716 277.245 137.7 277.381 137.668C277.517 137.636 277.637 137.596 277.741 137.548L277.957 138.772C277.741 138.876 277.489 138.956 277.201 139.012C276.913 139.068 276.653 139.096 276.421 139.096C275.917 139.096 275.525 138.964 275.245 138.7C274.973 138.428 274.837 138.044 274.837 137.548V130.24ZM278.646 130.24H280.254V136.984C280.254 137.272 280.302 137.468 280.398 137.572C280.494 137.668 280.626 137.716 280.794 137.716C280.922 137.716 281.054 137.7 281.19 137.668C281.326 137.636 281.446 137.596 281.55 137.548L281.766 138.772C281.55 138.876 281.298 138.956 281.01 139.012C280.722 139.068 280.462 139.096 280.23 139.096C279.726 139.096 279.334 138.964 279.054 138.7C278.782 138.428 278.646 138.044 278.646 137.548V130.24ZM294.789 139H293.181V135.472C293.181 134.976 293.093 134.612 292.917 134.38C292.749 134.14 292.513 134.02 292.209 134.02C291.897 134.02 291.597 134.144 291.309 134.392C291.029 134.632 290.829 134.948 290.709 135.34V139H289.101V135.472C289.101 134.968 289.013 134.6 288.837 134.368C288.669 134.136 288.433 134.02 288.129 134.02C287.817 134.02 287.517 134.14 287.229 134.38C286.949 134.62 286.749 134.936 286.629 135.328V139H285.021V132.712H286.473V133.876C286.713 133.468 287.033 133.156 287.433 132.94C287.833 132.716 288.293 132.604 288.813 132.604C289.333 132.604 289.737 132.732 290.025 132.988C290.321 133.244 290.509 133.56 290.589 133.936C290.845 133.504 291.169 133.176 291.561 132.952C291.961 132.72 292.409 132.604 292.905 132.604C293.297 132.604 293.613 132.676 293.853 132.82C294.101 132.956 294.293 133.144 294.429 133.384C294.565 133.616 294.657 133.88 294.705 134.176C294.761 134.472 294.789 134.772 294.789 135.076V139ZM299.105 139.12C298.601 139.12 298.145 139.036 297.737 138.868C297.329 138.692 296.981 138.456 296.693 138.16C296.405 137.856 296.181 137.512 296.021 137.128C295.869 136.736 295.793 136.324 295.793 135.892C295.793 135.292 295.925 134.744 296.189 134.248C296.461 133.752 296.845 133.356 297.341 133.06C297.845 132.756 298.437 132.604 299.117 132.604C299.805 132.604 300.393 132.756 300.881 133.06C301.369 133.356 301.741 133.752 301.997 134.248C302.261 134.736 302.393 135.264 302.393 135.832C302.393 135.928 302.389 136.028 302.381 136.132C302.373 136.228 302.365 136.308 302.357 136.372H297.497C297.529 136.692 297.621 136.972 297.773 137.212C297.933 137.452 298.133 137.636 298.373 137.764C298.621 137.884 298.885 137.944 299.165 137.944C299.485 137.944 299.785 137.868 300.065 137.716C300.353 137.556 300.549 137.348 300.653 137.092L302.033 137.476C301.881 137.796 301.661 138.08 301.373 138.328C301.093 138.576 300.761 138.772 300.377 138.916C299.993 139.052 299.569 139.12 299.105 139.12ZM297.461 135.352H300.749C300.717 135.032 300.625 134.756 300.473 134.524C300.329 134.284 300.137 134.1 299.897 133.972C299.657 133.836 299.389 133.768 299.093 133.768C298.805 133.768 298.541 133.836 298.301 133.972C298.069 134.1 297.877 134.284 297.725 134.524C297.581 134.756 297.493 135.032 297.461 135.352ZM303.517 140.38L303.841 138.952H303.337V137.272H304.729V138.952L304.237 140.38H303.517ZM312.621 139.12C312.141 139.12 311.713 139.012 311.337 138.796C310.961 138.58 310.665 138.284 310.449 137.908V139H309.045V130.24H310.653V133.816C310.877 133.44 311.169 133.144 311.529 132.928C311.897 132.712 312.325 132.604 312.813 132.604C313.221 132.604 313.593 132.692 313.929 132.868C314.265 133.036 314.553 133.272 314.793 133.576C315.041 133.88 315.229 134.228 315.357 134.62C315.493 135.012 315.561 135.432 315.561 135.88C315.561 136.328 315.485 136.748 315.333 137.14C315.189 137.532 314.985 137.88 314.721 138.184C314.457 138.48 314.145 138.712 313.785 138.88C313.433 139.04 313.045 139.12 312.621 139.12ZM312.177 137.752C312.433 137.752 312.665 137.704 312.873 137.608C313.089 137.504 313.273 137.368 313.425 137.2C313.585 137.032 313.705 136.836 313.785 136.612C313.873 136.38 313.917 136.14 313.917 135.892C313.917 135.548 313.845 135.232 313.701 134.944C313.565 134.648 313.373 134.412 313.125 134.236C312.885 134.06 312.601 133.972 312.273 133.972C312.041 133.972 311.817 134.028 311.601 134.14C311.393 134.244 311.205 134.388 311.037 134.572C310.877 134.756 310.749 134.964 310.653 135.196V136.696C310.701 136.856 310.777 137 310.881 137.128C310.993 137.256 311.121 137.368 311.265 137.464C311.409 137.552 311.557 137.624 311.709 137.68C311.869 137.728 312.025 137.752 312.177 137.752ZM319.566 139.12C319.062 139.12 318.606 139.036 318.198 138.868C317.79 138.692 317.442 138.456 317.154 138.16C316.866 137.856 316.642 137.512 316.482 137.128C316.33 136.736 316.254 136.324 316.254 135.892C316.254 135.292 316.386 134.744 316.65 134.248C316.922 133.752 317.306 133.356 317.802 133.06C318.306 132.756 318.898 132.604 319.578 132.604C320.266 132.604 320.854 132.756 321.342 133.06C321.83 133.356 322.202 133.752 322.458 134.248C322.722 134.736 322.854 135.264 322.854 135.832C322.854 135.928 322.85 136.028 322.842 136.132C322.834 136.228 322.826 136.308 322.818 136.372H317.958C317.99 136.692 318.082 136.972 318.234 137.212C318.394 137.452 318.594 137.636 318.834 137.764C319.082 137.884 319.346 137.944 319.626 137.944C319.946 137.944 320.246 137.868 320.526 137.716C320.814 137.556 321.01 137.348 321.114 137.092L322.494 137.476C322.342 137.796 322.122 138.08 321.834 138.328C321.554 138.576 321.222 138.772 320.838 138.916C320.454 139.052 320.03 139.12 319.566 139.12ZM317.922 135.352H321.21C321.178 135.032 321.086 134.756 320.934 134.524C320.79 134.284 320.598 134.1 320.358 133.972C320.118 133.836 319.85 133.768 319.554 133.768C319.266 133.768 319.002 133.836 318.762 133.972C318.53 134.1 318.338 134.284 318.186 134.524C318.042 134.756 317.954 135.032 317.922 135.352ZM326.75 139.12C326.246 139.12 325.79 139.036 325.382 138.868C324.974 138.692 324.626 138.456 324.338 138.16C324.05 137.856 323.826 137.512 323.666 137.128C323.514 136.736 323.438 136.324 323.438 135.892C323.438 135.292 323.57 134.744 323.834 134.248C324.106 133.752 324.49 133.356 324.986 133.06C325.49 132.756 326.082 132.604 326.762 132.604C327.45 132.604 328.038 132.756 328.526 133.06C329.014 133.356 329.386 133.752 329.642 134.248C329.906 134.736 330.038 135.264 330.038 135.832C330.038 135.928 330.034 136.028 330.026 136.132C330.018 136.228 330.01 136.308 330.002 136.372H325.142C325.174 136.692 325.266 136.972 325.418 137.212C325.578 137.452 325.778 137.636 326.018 137.764C326.266 137.884 326.53 137.944 326.81 137.944C327.13 137.944 327.43 137.868 327.71 137.716C327.998 137.556 328.194 137.348 328.298 137.092L329.678 137.476C329.526 137.796 329.306 138.08 329.018 138.328C328.738 138.576 328.406 138.772 328.022 138.916C327.638 139.052 327.214 139.12 326.75 139.12ZM325.106 135.352H328.394C328.362 135.032 328.27 134.756 328.118 134.524C327.974 134.284 327.782 134.1 327.542 133.972C327.302 133.836 327.034 133.768 326.738 133.768C326.45 133.768 326.186 133.836 325.946 133.972C325.714 134.1 325.522 134.284 325.37 134.524C325.226 134.756 325.138 135.032 325.106 135.352ZM334.785 139.12C334.297 139.12 333.865 139.012 333.489 138.796C333.121 138.572 332.833 138.272 332.625 137.896V141.556H331.017V132.712H332.421V133.792C332.661 133.424 332.965 133.136 333.333 132.928C333.701 132.712 334.121 132.604 334.593 132.604C335.017 132.604 335.405 132.688 335.757 132.856C336.117 133.024 336.429 133.26 336.693 133.564C336.957 133.86 337.161 134.204 337.305 134.596C337.457 134.98 337.533 135.396 337.533 135.844C337.533 136.452 337.413 137.004 337.173 137.5C336.941 137.996 336.617 138.392 336.201 138.688C335.793 138.976 335.321 139.12 334.785 139.12ZM334.245 137.752C334.493 137.752 334.717 137.7 334.917 137.596C335.117 137.492 335.289 137.352 335.433 137.176C335.585 136.992 335.697 136.788 335.769 136.564C335.849 136.332 335.889 136.092 335.889 135.844C335.889 135.58 335.845 135.336 335.757 135.112C335.677 134.888 335.557 134.692 335.397 134.524C335.237 134.348 335.049 134.212 334.833 134.116C334.625 134.02 334.397 133.972 334.149 133.972C333.997 133.972 333.841 134 333.681 134.056C333.529 134.104 333.381 134.176 333.237 134.272C333.093 134.368 332.965 134.48 332.853 134.608C332.749 134.736 332.673 134.876 332.625 135.028V136.504C332.721 136.736 332.849 136.948 333.009 137.14C333.177 137.332 333.369 137.484 333.585 137.596C333.801 137.7 334.021 137.752 334.245 137.752ZM351.273 139H349.665V135.472C349.665 134.976 349.577 134.612 349.401 134.38C349.233 134.14 348.997 134.02 348.693 134.02C348.381 134.02 348.081 134.144 347.793 134.392C347.513 134.632 347.313 134.948 347.193 135.34V139H345.585V135.472C345.585 134.968 345.497 134.6 345.321 134.368C345.153 134.136 344.917 134.02 344.613 134.02C344.301 134.02 344.001 134.14 343.713 134.38C343.433 134.62 343.233 134.936 343.113 135.328V139H341.505V132.712H342.957V133.876C343.197 133.468 343.517 133.156 343.917 132.94C344.317 132.716 344.777 132.604 345.297 132.604C345.817 132.604 346.221 132.732 346.509 132.988C346.805 133.244 346.993 133.56 347.073 133.936C347.329 133.504 347.653 133.176 348.045 132.952C348.445 132.72 348.893 132.604 349.389 132.604C349.781 132.604 350.097 132.676 350.337 132.82C350.585 132.956 350.777 133.144 350.913 133.384C351.049 133.616 351.141 133.88 351.189 134.176C351.245 134.472 351.273 134.772 351.273 135.076V139ZM355.589 139.12C355.085 139.12 354.629 139.036 354.221 138.868C353.813 138.692 353.465 138.456 353.177 138.16C352.889 137.856 352.665 137.512 352.505 137.128C352.353 136.736 352.277 136.324 352.277 135.892C352.277 135.292 352.409 134.744 352.673 134.248C352.945 133.752 353.329 133.356 353.825 133.06C354.329 132.756 354.921 132.604 355.601 132.604C356.289 132.604 356.877 132.756 357.365 133.06C357.853 133.356 358.225 133.752 358.481 134.248C358.745 134.736 358.877 135.264 358.877 135.832C358.877 135.928 358.873 136.028 358.865 136.132C358.857 136.228 358.849 136.308 358.841 136.372H353.981C354.013 136.692 354.105 136.972 354.257 137.212C354.417 137.452 354.617 137.636 354.857 137.764C355.105 137.884 355.369 137.944 355.649 137.944C355.969 137.944 356.269 137.868 356.549 137.716C356.837 137.556 357.033 137.348 357.137 137.092L358.517 137.476C358.365 137.796 358.145 138.08 357.857 138.328C357.577 138.576 357.245 138.772 356.861 138.916C356.477 139.052 356.053 139.12 355.589 139.12ZM353.945 135.352H357.233C357.201 135.032 357.109 134.756 356.957 134.524C356.813 134.284 356.621 134.1 356.381 133.972C356.141 133.836 355.873 133.768 355.577 133.768C355.289 133.768 355.025 133.836 354.785 133.972C354.553 134.1 354.361 134.284 354.209 134.524C354.065 134.756 353.977 135.032 353.945 135.352ZM360.001 140.38L360.325 138.952H359.821V137.272H361.213V138.952L360.721 140.38H360.001ZM259.732 153V146.712H261.34V153H259.732ZM259.732 145.836V144.24H261.34V145.836H259.732ZM263.175 153V148.272H262.347V147.048H263.175V146.664C263.175 146.144 263.259 145.696 263.427 145.32C263.603 144.936 263.847 144.64 264.159 144.432C264.479 144.224 264.851 144.12 265.275 144.12C265.531 144.12 265.787 144.152 266.043 144.216C266.307 144.28 266.567 144.372 266.823 144.492L266.499 145.704C266.379 145.64 266.239 145.588 266.079 145.548C265.919 145.5 265.767 145.476 265.623 145.476C265.351 145.476 265.143 145.572 264.999 145.764C264.855 145.956 264.783 146.236 264.783 146.604V147.048H266.319V148.272H264.783V153H263.175ZM269.661 154.224C269.805 154.256 269.937 154.284 270.057 154.308C270.185 154.332 270.293 154.344 270.381 154.344C270.533 154.344 270.657 154.304 270.753 154.224C270.857 154.152 270.957 154.016 271.053 153.816C271.149 153.624 271.249 153.352 271.353 153L268.869 146.712H270.537L272.229 151.356L273.717 146.712H275.253L272.613 154.248C272.517 154.528 272.369 154.78 272.169 155.004C271.977 155.236 271.733 155.416 271.437 155.544C271.149 155.68 270.825 155.748 270.465 155.748C270.337 155.748 270.209 155.736 270.081 155.712C269.953 155.696 269.813 155.664 269.661 155.616V154.224ZM278.82 153.12C278.308 153.12 277.848 153.036 277.44 152.868C277.032 152.692 276.684 152.452 276.396 152.148C276.116 151.844 275.9 151.496 275.748 151.104C275.596 150.712 275.52 150.3 275.52 149.868C275.52 149.428 275.596 149.012 275.748 148.62C275.9 148.228 276.116 147.88 276.396 147.576C276.684 147.272 277.032 147.036 277.44 146.868C277.848 146.692 278.308 146.604 278.82 146.604C279.332 146.604 279.788 146.692 280.188 146.868C280.596 147.036 280.944 147.272 281.232 147.576C281.52 147.88 281.736 148.228 281.88 148.62C282.032 149.012 282.108 149.428 282.108 149.868C282.108 150.3 282.032 150.712 281.88 151.104C281.736 151.496 281.52 151.844 281.232 152.148C280.952 152.452 280.608 152.692 280.2 152.868C279.792 153.036 279.332 153.12 278.82 153.12ZM277.176 149.868C277.176 150.236 277.248 150.564 277.392 150.852C277.536 151.132 277.732 151.352 277.98 151.512C278.228 151.672 278.508 151.752 278.82 151.752C279.124 151.752 279.4 151.672 279.648 151.512C279.896 151.344 280.092 151.12 280.236 150.84C280.388 150.552 280.464 150.224 280.464 149.856C280.464 149.496 280.388 149.172 280.236 148.884C280.092 148.596 279.896 148.372 279.648 148.212C279.4 148.052 279.124 147.972 278.82 147.972C278.508 147.972 278.228 148.056 277.98 148.224C277.732 148.384 277.536 148.608 277.392 148.896C277.248 149.176 277.176 149.5 277.176 149.868ZM283.133 150.648V146.712H284.741V150.3C284.741 150.78 284.829 151.144 285.005 151.392C285.181 151.632 285.441 151.752 285.785 151.752C285.993 151.752 286.197 151.712 286.397 151.632C286.605 151.544 286.793 151.416 286.961 151.248C287.137 151.08 287.285 150.868 287.405 150.612V146.712H289.013V151.2C289.013 151.368 289.041 151.488 289.097 151.56C289.161 151.632 289.261 151.676 289.397 151.692V153C289.237 153.024 289.101 153.04 288.989 153.048C288.885 153.064 288.789 153.072 288.701 153.072C288.413 153.072 288.177 153.008 287.993 152.88C287.817 152.744 287.713 152.56 287.681 152.328L287.645 151.824C287.365 152.248 287.005 152.572 286.565 152.796C286.125 153.012 285.641 153.12 285.113 153.12C284.465 153.12 283.973 152.912 283.637 152.496C283.301 152.072 283.133 151.456 283.133 150.648ZM300.954 146.712H302.478L299.85 153H298.506L297.45 150.3L296.418 153H295.062L292.446 146.712H293.958L295.83 151.464L296.562 149.412L295.47 146.724H296.802L297.45 148.644L298.11 146.724H299.442L298.35 149.412L299.094 151.464L300.954 146.712ZM302.636 151.14C302.636 150.732 302.748 150.376 302.972 150.072C303.204 149.76 303.524 149.52 303.932 149.352C304.34 149.184 304.808 149.1 305.336 149.1C305.6 149.1 305.868 149.12 306.14 149.16C306.412 149.2 306.648 149.264 306.848 149.352V149.016C306.848 148.616 306.728 148.308 306.488 148.092C306.256 147.876 305.908 147.768 305.444 147.768C305.1 147.768 304.772 147.828 304.46 147.948C304.148 148.068 303.82 148.244 303.476 148.476L302.96 147.42C303.376 147.148 303.8 146.944 304.232 146.808C304.672 146.672 305.132 146.604 305.612 146.604C306.508 146.604 307.204 146.828 307.7 147.276C308.204 147.724 308.456 148.364 308.456 149.196V151.2C308.456 151.368 308.484 151.488 308.54 151.56C308.604 151.632 308.704 151.676 308.84 151.692V153C308.696 153.024 308.564 153.044 308.444 153.06C308.332 153.076 308.236 153.084 308.156 153.084C307.836 153.084 307.592 153.012 307.424 152.868C307.264 152.724 307.164 152.548 307.124 152.34L307.088 152.016C306.816 152.368 306.476 152.64 306.068 152.832C305.66 153.024 305.244 153.12 304.82 153.12C304.404 153.12 304.028 153.036 303.692 152.868C303.364 152.692 303.104 152.456 302.912 152.16C302.728 151.856 302.636 151.516 302.636 151.14ZM306.548 151.464C306.636 151.368 306.708 151.272 306.764 151.176C306.82 151.08 306.848 150.992 306.848 150.912V150.276C306.656 150.196 306.448 150.136 306.224 150.096C306 150.048 305.788 150.024 305.588 150.024C305.172 150.024 304.828 150.116 304.556 150.3C304.292 150.476 304.16 150.712 304.16 151.008C304.16 151.168 304.204 151.32 304.292 151.464C304.38 151.608 304.508 151.724 304.676 151.812C304.844 151.9 305.044 151.944 305.276 151.944C305.516 151.944 305.752 151.9 305.984 151.812C306.216 151.716 306.404 151.6 306.548 151.464ZM315.803 153H314.195V149.472C314.195 148.968 314.107 148.6 313.931 148.368C313.755 148.136 313.511 148.02 313.199 148.02C312.983 148.02 312.763 148.076 312.539 148.188C312.323 148.3 312.127 148.456 311.951 148.656C311.775 148.848 311.647 149.072 311.567 149.328V153H309.959V146.712H311.411V147.876C311.571 147.604 311.775 147.376 312.023 147.192C312.271 147 312.555 146.856 312.875 146.76C313.203 146.656 313.547 146.604 313.907 146.604C314.299 146.604 314.619 146.676 314.867 146.82C315.123 146.956 315.315 147.144 315.443 147.384C315.579 147.616 315.671 147.88 315.719 148.176C315.775 148.472 315.803 148.772 315.803 149.076V153ZM323.045 153H321.437V149.472C321.437 148.968 321.349 148.6 321.173 148.368C320.997 148.136 320.753 148.02 320.441 148.02C320.225 148.02 320.005 148.076 319.781 148.188C319.565 148.3 319.369 148.456 319.193 148.656C319.017 148.848 318.889 149.072 318.809 149.328V153H317.201V146.712H318.653V147.876C318.813 147.604 319.017 147.376 319.265 147.192C319.513 147 319.797 146.856 320.117 146.76C320.445 146.656 320.789 146.604 321.149 146.604C321.541 146.604 321.861 146.676 322.109 146.82C322.365 146.956 322.557 147.144 322.685 147.384C322.821 147.616 322.913 147.88 322.961 148.176C323.017 148.472 323.045 148.772 323.045 149.076V153ZM324.011 151.14C324.011 150.732 324.123 150.376 324.347 150.072C324.579 149.76 324.899 149.52 325.307 149.352C325.715 149.184 326.183 149.1 326.711 149.1C326.975 149.1 327.243 149.12 327.515 149.16C327.787 149.2 328.023 149.264 328.223 149.352V149.016C328.223 148.616 328.103 148.308 327.863 148.092C327.631 147.876 327.283 147.768 326.819 147.768C326.475 147.768 326.147 147.828 325.835 147.948C325.523 148.068 325.195 148.244 324.851 148.476L324.335 147.42C324.751 147.148 325.175 146.944 325.607 146.808C326.047 146.672 326.507 146.604 326.987 146.604C327.883 146.604 328.579 146.828 329.075 147.276C329.579 147.724 329.831 148.364 329.831 149.196V151.2C329.831 151.368 329.859 151.488 329.915 151.56C329.979 151.632 330.079 151.676 330.215 151.692V153C330.071 153.024 329.939 153.044 329.819 153.06C329.707 153.076 329.611 153.084 329.531 153.084C329.211 153.084 328.967 153.012 328.799 152.868C328.639 152.724 328.539 152.548 328.499 152.34L328.463 152.016C328.191 152.368 327.851 152.64 327.443 152.832C327.035 153.024 326.619 153.12 326.195 153.12C325.779 153.12 325.403 153.036 325.067 152.868C324.739 152.692 324.479 152.456 324.287 152.16C324.103 151.856 324.011 151.516 324.011 151.14ZM327.923 151.464C328.011 151.368 328.083 151.272 328.139 151.176C328.195 151.08 328.223 150.992 328.223 150.912V150.276C328.031 150.196 327.823 150.136 327.599 150.096C327.375 150.048 327.163 150.024 326.963 150.024C326.547 150.024 326.203 150.116 325.931 150.3C325.667 150.476 325.535 150.712 325.535 151.008C325.535 151.168 325.579 151.32 325.667 151.464C325.755 151.608 325.883 151.724 326.051 151.812C326.219 151.9 326.419 151.944 326.651 151.944C326.891 151.944 327.127 151.9 327.359 151.812C327.591 151.716 327.779 151.6 327.923 151.464ZM337.96 148.104C337.472 148.104 337.036 148.2 336.652 148.392C336.268 148.576 335.992 148.844 335.824 149.196V153H334.216V146.712H335.692V148.056C335.916 147.624 336.2 147.284 336.544 147.036C336.888 146.788 337.252 146.652 337.636 146.628C337.724 146.628 337.792 146.628 337.84 146.628C337.888 146.628 337.928 146.632 337.96 146.64V148.104ZM341.691 153.12C341.187 153.12 340.731 153.036 340.323 152.868C339.915 152.692 339.567 152.456 339.279 152.16C338.991 151.856 338.767 151.512 338.607 151.128C338.455 150.736 338.379 150.324 338.379 149.892C338.379 149.292 338.511 148.744 338.775 148.248C339.047 147.752 339.431 147.356 339.927 147.06C340.431 146.756 341.023 146.604 341.703 146.604C342.391 146.604 342.979 146.756 343.467 147.06C343.955 147.356 344.327 147.752 344.583 148.248C344.847 148.736 344.979 149.264 344.979 149.832C344.979 149.928 344.975 150.028 344.967 150.132C344.959 150.228 344.951 150.308 344.943 150.372H340.083C340.115 150.692 340.207 150.972 340.359 151.212C340.519 151.452 340.719 151.636 340.959 151.764C341.207 151.884 341.471 151.944 341.751 151.944C342.071 151.944 342.371 151.868 342.651 151.716C342.939 151.556 343.135 151.348 343.239 151.092L344.619 151.476C344.467 151.796 344.247 152.08 343.959 152.328C343.679 152.576 343.347 152.772 342.963 152.916C342.579 153.052 342.155 153.12 341.691 153.12ZM340.047 149.352H343.335C343.303 149.032 343.211 148.756 343.059 148.524C342.915 148.284 342.723 148.1 342.483 147.972C342.243 147.836 341.975 147.768 341.679 147.768C341.391 147.768 341.127 147.836 340.887 147.972C340.655 148.1 340.463 148.284 340.311 148.524C340.167 148.756 340.079 149.032 340.047 149.352ZM345.527 151.14C345.527 150.732 345.639 150.376 345.863 150.072C346.095 149.76 346.415 149.52 346.823 149.352C347.231 149.184 347.699 149.1 348.227 149.1C348.491 149.1 348.759 149.12 349.031 149.16C349.303 149.2 349.539 149.264 349.739 149.352V149.016C349.739 148.616 349.619 148.308 349.379 148.092C349.147 147.876 348.799 147.768 348.335 147.768C347.991 147.768 347.663 147.828 347.351 147.948C347.039 148.068 346.711 148.244 346.367 148.476L345.851 147.42C346.267 147.148 346.691 146.944 347.123 146.808C347.563 146.672 348.023 146.604 348.503 146.604C349.399 146.604 350.095 146.828 350.591 147.276C351.095 147.724 351.347 148.364 351.347 149.196V151.2C351.347 151.368 351.375 151.488 351.431 151.56C351.495 151.632 351.595 151.676 351.731 151.692V153C351.587 153.024 351.455 153.044 351.335 153.06C351.223 153.076 351.127 153.084 351.047 153.084C350.727 153.084 350.483 153.012 350.315 152.868C350.155 152.724 350.055 152.548 350.015 152.34L349.979 152.016C349.707 152.368 349.367 152.64 348.959 152.832C348.551 153.024 348.135 153.12 347.711 153.12C347.295 153.12 346.919 153.036 346.583 152.868C346.255 152.692 345.995 152.456 345.803 152.16C345.619 151.856 345.527 151.516 345.527 151.14ZM349.439 151.464C349.527 151.368 349.599 151.272 349.655 151.176C349.711 151.08 349.739 150.992 349.739 150.912V150.276C349.547 150.196 349.339 150.136 349.115 150.096C348.891 150.048 348.679 150.024 348.479 150.024C348.063 150.024 347.719 150.116 347.447 150.3C347.183 150.476 347.051 150.712 347.051 151.008C347.051 151.168 347.095 151.32 347.183 151.464C347.271 151.608 347.399 151.724 347.567 151.812C347.735 151.9 347.935 151.944 348.167 151.944C348.407 151.944 348.643 151.9 348.875 151.812C349.107 151.716 349.295 151.6 349.439 151.464ZM355.777 153.12C355.265 153.12 354.805 153.036 354.397 152.868C353.989 152.692 353.641 152.452 353.353 152.148C353.065 151.836 352.841 151.484 352.681 151.092C352.529 150.7 352.453 150.288 352.453 149.856C352.453 149.264 352.585 148.724 352.849 148.236C353.121 147.74 353.505 147.344 354.001 147.048C354.497 146.752 355.085 146.604 355.765 146.604C356.445 146.604 357.029 146.752 357.517 147.048C358.005 147.344 358.369 147.732 358.609 148.212L357.037 148.692C356.901 148.46 356.721 148.284 356.497 148.164C356.273 148.036 356.025 147.972 355.753 147.972C355.449 147.972 355.169 148.052 354.913 148.212C354.665 148.364 354.469 148.584 354.325 148.872C354.181 149.152 354.109 149.48 354.109 149.856C354.109 150.224 354.181 150.552 354.325 150.84C354.477 151.12 354.677 151.344 354.925 151.512C355.173 151.672 355.449 151.752 355.753 151.752C355.945 151.752 356.125 151.72 356.293 151.656C356.469 151.592 356.625 151.504 356.761 151.392C356.897 151.28 356.997 151.152 357.061 151.008L358.633 151.488C358.489 151.8 358.277 152.08 357.997 152.328C357.725 152.576 357.401 152.772 357.025 152.916C356.657 153.052 356.241 153.12 355.777 153.12ZM365.467 153H363.859V149.472C363.859 148.984 363.763 148.62 363.571 148.38C363.387 148.14 363.131 148.02 362.803 148.02C362.611 148.02 362.407 148.076 362.191 148.188C361.975 148.3 361.779 148.456 361.603 148.656C361.435 148.848 361.311 149.072 361.231 149.328V153H359.623V144.24H361.231V147.876C361.463 147.476 361.779 147.164 362.179 146.94C362.579 146.716 363.015 146.604 363.487 146.604C363.895 146.604 364.227 146.676 364.483 146.82C364.739 146.956 364.939 147.144 365.083 147.384C365.227 147.616 365.327 147.88 365.383 148.176C365.439 148.464 365.467 148.764 365.467 149.076V153ZM379.516 153H377.908V149.472C377.908 148.976 377.82 148.612 377.644 148.38C377.476 148.14 377.24 148.02 376.936 148.02C376.624 148.02 376.324 148.144 376.036 148.392C375.756 148.632 375.556 148.948 375.436 149.34V153H373.828V149.472C373.828 148.968 373.74 148.6 373.564 148.368C373.396 148.136 373.16 148.02 372.856 148.02C372.544 148.02 372.244 148.14 371.956 148.38C371.676 148.62 371.476 148.936 371.356 149.328V153H369.748V146.712H371.2V147.876C371.44 147.468 371.76 147.156 372.16 146.94C372.56 146.716 373.02 146.604 373.54 146.604C374.06 146.604 374.464 146.732 374.752 146.988C375.048 147.244 375.236 147.56 375.316 147.936C375.572 147.504 375.896 147.176 376.288 146.952C376.688 146.72 377.136 146.604 377.632 146.604C378.024 146.604 378.34 146.676 378.58 146.82C378.828 146.956 379.02 147.144 379.156 147.384C379.292 147.616 379.384 147.88 379.432 148.176C379.488 148.472 379.516 148.772 379.516 149.076V153ZM383.832 153.12C383.328 153.12 382.872 153.036 382.464 152.868C382.056 152.692 381.708 152.456 381.42 152.16C381.132 151.856 380.908 151.512 380.748 151.128C380.596 150.736 380.52 150.324 380.52 149.892C380.52 149.292 380.652 148.744 380.916 148.248C381.188 147.752 381.572 147.356 382.068 147.06C382.572 146.756 383.164 146.604 383.844 146.604C384.532 146.604 385.12 146.756 385.608 147.06C386.096 147.356 386.468 147.752 386.724 148.248C386.988 148.736 387.12 149.264 387.12 149.832C387.12 149.928 387.116 150.028 387.108 150.132C387.1 150.228 387.092 150.308 387.084 150.372H382.224C382.256 150.692 382.348 150.972 382.5 151.212C382.66 151.452 382.86 151.636 383.1 151.764C383.348 151.884 383.612 151.944 383.892 151.944C384.212 151.944 384.512 151.868 384.792 151.716C385.08 151.556 385.276 151.348 385.38 151.092L386.76 151.476C386.608 151.796 386.388 152.08 386.1 152.328C385.82 152.576 385.488 152.772 385.104 152.916C384.72 153.052 384.296 153.12 383.832 153.12ZM382.188 149.352H385.476C385.444 149.032 385.352 148.756 385.2 148.524C385.056 148.284 384.864 148.1 384.624 147.972C384.384 147.836 384.116 147.768 383.82 147.768C383.532 147.768 383.268 147.836 383.028 147.972C382.796 148.1 382.604 148.284 382.452 148.524C382.308 148.756 382.22 149.032 382.188 149.352ZM388.063 153V151.272H389.383V153H388.063Z" fill="#5B3580"/>
</g>
<g clip-path="url(#clip5_155_596)">
<path d="M496.945 394.371H410.848L464.839 284.191H550.936L496.945 394.371Z" fill="#63D5FF"/>
<path d="M493.078 385.731L425.646 378.962L467.24 292.831H538.601L493.078 385.731Z" fill="#30B0DE"/>
<path d="M493.328 403.906L392.223 409.391V393.845L497.854 392.872V399.154C497.854 400.381 497.382 401.56 496.539 402.445C495.696 403.33 494.545 403.854 493.328 403.906Z" fill="#64A9C4"/>
<path d="M392.538 409.338L344.597 397.205C343.559 396.96 342.634 396.369 341.972 395.528C341.31 394.687 340.95 393.645 340.95 392.572V384.542L392.538 393.791V409.338Z" fill="#4494B3"/>
<path d="M416.305 383.078L340.6 384.553L392.557 393.833L497.855 392.87L416.305 383.078Z" fill="#90C2D5"/>
</g>
<g clip-path="url(#clip6_155_596)">
<path d="M353.191 307.427H344.021V326.507H353.191V307.427Z" fill="url(#paint0_linear_155_596)"/>
<path d="M84.5881 332.877C88.8887 325.89 90.802 322.094 90.5492 316.179C90.5273 315.658 77.8829 304.256 73.1738 302.671C62.495 319.352 49.9461 342.45 38.2939 362.557C42.2549 364.269 45.967 364.16 55.4243 359.404C57.5167 358.353 76.4619 347.011 76.9963 345.396C77.2944 344.495 84.0904 333.686 84.5881 332.877Z" fill="url(#paint1_linear_155_596)"/>
<path d="M109.193 326.67C98.8669 317.217 94.0952 314.469 86.9893 312.911C84.4908 323.759 78.5031 333.257 76.7824 345.288C95.4833 365.259 119.897 382.892 141.335 399.899C143.237 401.409 145.203 402.934 147.513 403.685C149.783 404.422 152.226 404.36 154.612 404.289L277.476 400.655C281.531 396.468 279.829 389.04 275.509 385.127C271.188 381.215 264.814 380.962 251.458 378.229C236.208 375.107 219.404 373.425 202.985 374.218C195.763 374.566 179.571 377.409 174.015 372.785C158.526 359.895 149.38 356.171 143.325 353.307C139.22 351.366 128.228 348.018 125.542 346.433C119.231 342.711 115.981 332.886 109.193 326.67Z" fill="#114B5F"/>
<path d="M450 343.929C449.48 344.698 449.196 345.619 448.594 346.326C447.846 347.204 446.563 348.296 447.301 349.184C447.92 349.928 449.154 349.272 449.684 348.463C450.215 347.654 450.668 346.599 451.62 346.423C450.894 347.003 450.137 347.625 449.805 348.492C449.473 349.359 449.756 350.535 450.631 350.851L456.584 347.231C457.272 346.813 458.029 346.294 458.144 345.499C458.214 345.019 458.025 344.537 457.774 344.122C456.178 341.488 451.725 341.377 450 343.929ZM416.883 311.852C416.768 312.3 416.555 312.971 416.093 312.923C414.925 312.803 414.577 311.163 414.239 310.04C413.65 308.084 412.821 302.993 412.758 302.481C412.724 302.209 412.722 301.914 412.869 301.682C413.15 301.241 413.848 301.263 414.255 301.59C414.662 301.917 414.852 302.438 415.024 302.929L416.046 305.876C416.714 307.806 417.391 309.873 416.883 311.852Z" fill="#BF986C"/>
<path d="M414.779 310.661C413.829 310.402 413.387 309.346 412.994 308.446C412.264 306.778 411.273 305.239 410.271 303.719C409.842 303.068 409.394 302.378 409.339 301.601C409.282 300.823 409.817 299.609 410.554 299.871C413.109 300.782 413.547 304.367 414.564 306.879C415.058 308.102 415.531 309.576 414.779 310.661Z" fill="#BF986C"/>
<path d="M381.443 381.963C382.324 377.427 385.075 373.52 387.488 369.578C394.365 358.344 399.157 347.745 404.297 335.621C406.296 330.908 409.379 321.98 409.675 321.765C410.13 320.591 409.368 318.988 407.846 317.683C406.862 316.84 404.311 314.421 403.114 313.923C399.882 312.579 396.768 310.378 396.015 308.553C395.235 306.66 396.856 306.845 398.596 305.761C401.801 303.764 405.99 298.873 406.587 298.914C407.507 298.975 413.266 305.965 413.224 306.191C413.162 306.526 412.089 306.323 411.749 306.291C409.958 306.118 408.505 304.83 407.188 303.606C406.348 304.638 405.346 305.529 404.221 306.242C404.248 306.603 403.443 308.408 403.471 308.769C407.451 311.697 412.037 313.488 415.519 316.994C415.834 317.313 416.657 318.56 416.667 318.65C416.8 319.956 416.111 320.909 415.768 321.926C409.138 341.636 409.063 365.835 400.705 386.5C398.503 391.942 395.092 397.219 389.87 399.916C388.857 400.438 387.728 400.865 386.6 400.703C383.908 400.317 382.817 397.093 382.285 394.43C381.465 390.317 380.643 386.079 381.443 381.963Z" fill="#D9AC7B"/>
<path d="M425.146 308.025L419.488 307.854L419.455 308.92L425.114 309.09L425.146 308.025Z" fill="#114B5F"/>
<path d="M421.666 306.48L380.882 305.249L380.763 309.193L421.547 310.424L421.666 306.48Z" fill="#C249FF"/>
<path d="M383.083 310.082L383.148 304.651L398.941 305.128L398.966 304.268L382.298 303.765L382.223 310.071L383.083 310.082Z" fill="#18141B"/>
<path d="M409.286 305.738C407.548 307.001 408.586 309.34 409.352 311.344C411.067 315.835 411.351 316.06 411.638 317.206C411.852 318.062 413.74 324.898 414.437 319.251C415.051 314.273 413.081 312.776 411.481 307.343C411.207 306.41 410.075 305.166 409.286 305.738ZM434.477 346.871C435.145 345.341 435.794 343.751 436.952 342.545C439.085 340.325 442.417 339.889 445.468 339.46C452.902 338.413 462.816 336.658 469.917 334.226C470.203 335.123 469.352 335.955 468.568 336.477C465.251 338.684 458.915 340.049 455.025 340.991C456.646 341.914 459.495 342.359 460.034 343.477C460.336 344.105 458.526 346.431 457.773 347.907C457.467 348.51 457.143 349.131 456.619 349.558C456.168 349.926 455.605 350.12 455.053 350.308L450.342 351.913C449.583 351.347 449.558 350.136 450.097 349.359C450.637 348.581 451.581 348.179 452.511 348.003C453.098 347.892 453.703 347.852 454.263 347.646C455.455 347.206 456.299 345.964 456.269 344.696C452.353 346.138 448.093 346.601 443.952 346.093C437.652 356.014 433.546 367.076 429.161 377.979C420.538 399.424 407.719 401.724 406.771 405.439C402.458 397.827 409.247 386.345 402.038 381.379C414.851 372.192 428.18 361.314 434.477 346.871ZM454.531 341.108C454.389 341.141 454.247 341.175 454.106 341.207L454.378 341.231C454.428 341.189 454.479 341.148 454.531 341.108Z" fill="#D9AC7B"/>
<path d="M341.376 337.77C340.654 334.819 340.479 328.903 341.805 326.169C343.132 323.437 344.463 320.67 347.503 320.771C357.081 330.319 361.91 343.46 368.218 355.417C372.152 362.876 375.385 368.377 381.387 376.222C383.09 378.448 388.578 366.028 388.701 366.126C393.859 370.215 397.952 382.022 404.19 383.312C402.396 387.697 394.08 400.283 387.936 402.77C384.257 404.007 369.739 389.168 363.382 379.622C359.348 373.565 355.385 367.461 351.42 361.357C346.022 353.044 343.741 347.437 341.376 337.77Z" fill="#A57BBA"/>
<path d="M54.5668 403.732C55.426 397.876 56.2843 392.02 57.1443 386.164C57.2194 385.648 57.2891 385.094 57.0559 384.629C56.829 384.174 54.3124 382.826 53.8695 382.576C49.5407 380.139 47.2574 378.777 42.9294 376.34C27.0689 390.874 13.3548 407.889 0.474091 425.317C4.04542 427.738 9.61603 426.147 19.7964 423.242C22.0476 422.598 51.1731 412.696 52.0002 411.207C52.4611 410.379 54.4291 404.671 54.5668 403.732Z" fill="url(#paint2_linear_155_596)"/>
<path d="M333.845 275.764C339.415 273.444 345.911 275.649 350.795 279.194C354.891 282.166 359.396 291.638 361.39 291.279C363.075 290.976 363.963 291.684 364.048 293.391C364.466 301.823 361.398 309.665 358.83 310.814C351.558 314.067 338.292 310.376 335.2 307.51C332.813 305.299 329.791 304.557 328.649 301.688C326.816 297.081 325.283 292.251 325.73 287.439C326.177 282.629 328.953 277.802 333.845 275.764Z" fill="url(#paint3_linear_155_596)"/>
<path d="M354.075 281.076C353.468 279.309 352.329 277.755 350.955 276.487C345.36 271.32 336.131 271.372 329.76 275.545C322.689 280.175 318.979 288.924 318.72 297.283C318.666 299.022 319.036 300.766 319.893 302.28C323.944 309.441 332.028 301.721 335.927 309.922C336.665 311.473 337.012 313.184 337.042 314.9C337.084 317.391 337.103 319.763 336.608 322.276C336.375 323.46 337.379 324.543 338.567 324.325C343.832 323.36 350.021 319.997 352.816 313.427C356.198 305.478 355.929 296.934 355.114 288.454C354.888 286.13 354.834 283.287 354.075 281.076Z" fill="#18141B"/>
<path d="M329.574 309.981C329.877 309.981 330.244 309.847 330.676 309.579C331.76 308.908 334.636 304.498 339.627 296.764C343.806 290.288 348.532 282.962 352.224 278.164C350.978 281.33 346.816 289.342 344.332 292.552C341.972 295.603 335.369 304.899 335.978 307.515C336.079 307.948 336.339 308.156 336.539 308.253C338.315 309.124 341.312 304.448 346.046 296.745C347.868 293.782 349.751 290.717 351.323 288.556C353.548 285.502 356.069 282.041 357.194 278.109C357.226 278 357.212 277.882 357.157 277.782C357.101 277.683 357.008 277.609 356.899 277.578C356.789 277.547 356.671 277.56 356.571 277.616C356.472 277.671 356.398 277.764 356.367 277.873C355.284 281.658 352.916 284.908 350.628 288.05C349.035 290.236 347.143 293.317 345.312 296.294C342.436 300.976 338.106 308.048 336.917 307.479C336.894 307.468 336.845 307.444 336.816 307.317C336.395 305.511 341.395 297.75 345.013 293.075C346.896 290.641 354.46 277.418 353.24 276.474C352.741 276.09 352.204 276.784 351.729 277.395C347.989 282.216 343.162 289.697 338.903 296.297C334.939 302.441 331.195 308.245 330.222 308.847C329.736 309.149 329.577 309.12 329.574 309.119C329.039 308.236 332.883 300.562 335.432 297.084L337.144 294.754C340.336 290.417 343.638 285.93 346.591 281.304C347.748 279.491 348.657 276.741 348.078 274.685C347.822 273.775 347.279 273.096 346.511 272.719C346.408 272.669 346.29 272.662 346.183 272.698C346.075 272.735 345.986 272.813 345.935 272.915C345.885 273.017 345.877 273.135 345.914 273.243C345.951 273.351 346.029 273.44 346.131 273.49C346.682 273.759 347.059 274.239 347.248 274.917C347.68 276.452 347.11 278.889 345.863 280.843C342.926 285.445 339.634 289.919 336.449 294.245L334.736 296.577C333.223 298.642 327.535 308.169 328.981 309.728C329.056 309.81 329.147 309.875 329.25 309.919C329.352 309.963 329.463 309.984 329.574 309.981Z" fill="#F5DD90"/>
<path d="M358.451 290.25C359.498 290.25 360.513 289.977 361.488 289.429C361.537 289.401 361.58 289.364 361.615 289.319C361.65 289.275 361.676 289.224 361.691 289.17C361.706 289.115 361.711 289.058 361.704 289.002C361.697 288.946 361.679 288.892 361.651 288.843C361.624 288.794 361.587 288.75 361.542 288.715C361.498 288.68 361.447 288.654 361.392 288.639C361.338 288.624 361.281 288.619 361.224 288.626C361.168 288.633 361.114 288.652 361.065 288.68C359.464 289.579 357.797 289.629 355.971 288.831C355.919 288.809 355.863 288.797 355.807 288.795C355.751 288.794 355.694 288.804 355.642 288.825C355.589 288.846 355.541 288.876 355.501 288.915C355.46 288.955 355.427 289.001 355.405 289.053C355.382 289.105 355.37 289.16 355.369 289.217C355.368 289.273 355.378 289.329 355.398 289.382C355.419 289.434 355.45 289.482 355.489 289.523C355.528 289.563 355.575 289.596 355.627 289.618C356.588 290.039 357.531 290.25 358.451 290.25Z" fill="#114B5F"/>
<path d="M349.245 309.482C344.517 309.482 340.684 305.652 340.684 300.929C340.684 296.205 344.517 292.376 349.245 292.376C353.974 292.376 357.807 296.205 357.807 300.929C357.807 305.652 353.974 309.482 349.245 309.482Z" fill="#F5DD90"/>
<path d="M349.961 302.374C350.19 302.374 350.415 302.313 350.613 302.198C350.811 302.082 350.974 301.916 351.086 301.716C351.199 301.517 351.255 301.291 351.251 301.062C351.247 300.833 351.182 300.61 351.062 300.415L351.003 300.316C344.114 289.002 340.97 283.837 331.015 275.553C329.454 274.256 327.266 273.584 325.442 273.831C324.164 274.007 323.132 274.618 322.456 275.599C321.035 277.662 323.65 281.595 323.65 281.595L325.324 279.454C325.324 279.454 324.169 277.662 324.583 277.058C324.843 276.682 325.239 276.462 325.793 276.385C326.885 276.233 328.382 276.719 329.361 277.533C338.987 285.543 342.06 290.592 348.795 301.654L348.856 301.753C348.971 301.942 349.134 302.099 349.327 302.208C349.521 302.316 349.739 302.374 349.961 302.374Z" fill="#C249FF"/>
<path d="M360.162 385.676C366.102 377.624 364.514 374.013 367.262 364.396C368.524 359.983 369.61 355.436 369.349 350.854C368.691 339.31 359.876 330.098 351.6 322.013C350.652 321.088 349.601 320.11 348.283 319.965C346.867 319.809 345.547 320.658 344.444 321.56C335.439 328.919 331.135 350.745 325.743 361.044C315.208 381.165 311.755 383.84 289.029 384.532C291.68 392.641 289.244 401.63 291.896 409.738C330.619 412.315 356.147 391.118 360.162 385.676Z" fill="url(#paint4_linear_155_596)"/>
<path d="M184.42 380.009C192.244 380.009 242.207 376.671 249.815 374.853C272.863 369.344 279.396 374.671 297.144 384.875C295.678 392.637 295.442 403.152 296.123 411.022C222.069 408.077 146.804 405.965 72.4281 412.296C64.963 412.932 58.7914 411.803 51.907 411.803C51.8115 400.638 52.9289 396.047 56.6849 385.531C90.6274 375.713 94.0712 385.134 113.861 381.728C131.449 378.701 129.349 375.713 149.14 374.853C161.934 374.298 166.351 380.009 184.42 380.009Z" fill="url(#paint5_linear_155_596)"/>
<path d="M344.602 325.955C345.136 323.627 345.656 319.815 348.044 319.94C352.132 320.155 354.125 323.03 355.143 324.022C363.962 332.615 368.031 340.906 374.46 348.765C379.375 354.774 388.367 372.498 394.294 377.514C400.346 382.637 406.771 375.366 406.771 375.366C406.771 375.366 413.015 391.822 420.464 401.21C420.79 403.129 405.193 406.301 402.038 405.872C400.107 405.61 387.201 394.472 380.526 388.256C372.033 380.348 364.67 366.509 355.787 359.04C351.7 355.601 342.236 336.266 344.602 325.955Z" fill="url(#paint6_linear_155_596)"/>
<path d="M263.109 377.449C262.998 377.535 262.857 377.538 262.769 377.427C262.682 377.316 262.679 377.176 262.79 377.087C262.901 377.001 263.042 376.998 263.13 377.109C263.218 377.22 263.22 377.362 263.109 377.449ZM242.726 389.424C242.728 389.565 242.617 389.653 242.476 389.655C242.335 389.657 242.247 389.546 242.245 389.406C242.243 389.265 242.354 389.177 242.495 389.175C242.663 389.116 242.722 389.284 242.726 389.424ZM243.34 383.43C243.342 383.571 243.231 383.658 243.09 383.661C242.949 383.663 242.862 383.552 242.859 383.411C242.857 383.271 242.968 383.183 243.109 383.181C243.193 383.152 243.337 383.29 243.34 383.43ZM255.022 385.482C254.956 385.485 254.89 385.472 254.83 385.443C254.771 385.415 254.719 385.372 254.679 385.32C254.676 385.254 254.69 385.188 254.718 385.128C254.746 385.069 254.789 385.017 254.842 384.977C254.983 384.975 255.097 385.029 255.127 385.112C255.242 385.309 255.188 385.422 255.022 385.482ZM253.237 379.677C253.171 379.68 253.105 379.667 253.045 379.638C252.986 379.61 252.934 379.568 252.894 379.515C252.891 379.449 252.905 379.383 252.933 379.323C252.961 379.264 253.004 379.212 253.057 379.172C253.198 379.17 253.312 379.224 253.343 379.307C253.46 379.504 253.379 379.675 253.237 379.677ZM232.179 383.372C232.125 383.486 231.956 383.546 231.843 383.492C231.729 383.438 231.669 383.269 231.723 383.156C231.777 383.042 231.946 382.982 232.059 383.036C232.116 383.068 232.16 383.12 232.182 383.182C232.204 383.244 232.203 383.311 232.179 383.372ZM235.009 378.011C234.955 378.125 234.786 378.184 234.673 378.13C234.559 378.076 234.499 377.907 234.553 377.794C234.607 377.68 234.776 377.621 234.89 377.674C235.005 377.73 235.064 377.896 235.009 378.011ZM260.606 383.592C260.522 383.622 260.323 383.598 260.32 383.457C260.29 383.373 260.314 383.175 260.455 383.172C260.539 383.143 260.738 383.166 260.74 383.307C260.828 383.418 260.774 383.532 260.606 383.592ZM258.583 378.583C258.499 378.613 258.3 378.589 258.297 378.448C258.267 378.364 258.264 378.222 258.433 378.163C258.516 378.133 258.658 378.13 258.718 378.298C258.722 378.439 258.668 378.552 258.583 378.583ZM238.085 383.451C238.031 383.565 237.92 383.652 237.805 383.598C237.691 383.544 237.662 383.46 237.657 383.318C237.711 383.204 237.822 383.118 237.937 383.171C238.052 383.226 238.139 383.337 238.085 383.451ZM240.161 378.5C240.107 378.614 239.995 378.701 239.88 378.647C239.766 378.593 239.737 378.509 239.732 378.367C239.786 378.253 239.898 378.166 240.013 378.22C240.128 378.276 240.215 378.387 240.161 378.5ZM249.857 382.962C249.86 383.103 249.748 383.19 249.608 383.193C249.467 383.195 249.379 383.084 249.377 382.943C249.374 382.802 249.486 382.715 249.626 382.713C249.767 382.709 249.854 382.82 249.857 382.962ZM259.814 389.223C259.816 389.363 259.705 389.451 259.564 389.453C259.423 389.456 259.336 389.345 259.333 389.204C259.331 389.063 259.442 388.976 259.583 388.973C259.724 388.971 259.811 389.081 259.814 389.223ZM259.832 383.016C259.834 383.157 259.723 383.244 259.582 383.246C259.441 383.249 259.354 383.138 259.351 382.997C259.349 382.856 259.46 382.769 259.601 382.767C259.741 382.763 259.828 382.874 259.832 383.016ZM259.932 376.779C259.934 376.919 259.823 377.007 259.682 377.009C259.541 377.012 259.454 376.901 259.452 376.76C259.449 376.619 259.56 376.532 259.701 376.529C259.806 376.581 259.888 376.67 259.932 376.779ZM235.627 379.211C235.516 379.298 235.375 379.301 235.286 379.19C235.199 379.079 235.196 378.939 235.307 378.85C235.419 378.763 235.559 378.761 235.648 378.871C235.762 378.928 235.738 379.125 235.627 379.211ZM267.415 372.367C267.475 372.536 267.421 372.65 267.252 372.71L267.415 372.367ZM248.27 384.093C248.216 384.207 248.047 384.267 247.933 384.213C247.819 384.159 247.759 383.99 247.813 383.877C247.867 383.763 248.036 383.703 248.15 383.757C248.263 383.812 248.323 383.981 248.27 384.093ZM251.655 386.678C251.601 386.792 251.432 386.852 251.318 386.798C251.204 386.744 251.144 386.575 251.198 386.462C251.252 386.348 251.364 386.261 251.535 386.342C251.649 386.396 251.709 386.564 251.655 386.678ZM253.855 380.878C253.801 380.992 253.632 381.051 253.519 380.998C253.404 380.944 253.317 380.833 253.399 380.661C253.453 380.547 253.622 380.488 253.763 380.486C253.85 380.596 253.91 380.765 253.855 380.878ZM264.726 379.193C264.729 379.333 264.618 379.421 264.477 379.423C264.336 379.426 264.248 379.315 264.189 379.146C264.186 379.006 264.298 378.918 264.466 378.859C264.637 378.941 264.724 379.052 264.726 379.193ZM263.134 377.25C263.08 377.364 262.995 377.393 262.911 377.424C262.797 377.37 262.768 377.285 262.737 377.201C262.791 377.087 262.876 377.058 262.96 377.027C263.074 377.083 263.16 377.194 263.134 377.25ZM278.244 376.336C278.167 376.38 278.106 376.364 278.062 376.285C278.018 376.208 278.034 376.147 278.113 376.103C278.19 376.059 278.251 376.076 278.295 376.154C278.338 376.231 278.261 376.275 278.244 376.336ZM264.848 376.442C264.831 376.503 264.754 376.546 264.693 376.529C264.632 376.512 264.588 376.435 264.605 376.374C264.622 376.313 264.7 376.269 264.761 376.286C264.899 376.26 264.927 376.399 264.848 376.442ZM271.603 375.946C271.586 376.007 271.569 376.068 271.492 376.112C271.431 376.095 271.37 376.078 271.326 376.001C271.343 375.94 271.36 375.879 271.437 375.835C271.576 375.809 271.619 375.886 271.603 375.946ZM277.584 392.25C277.612 392.389 277.517 392.493 277.379 392.521C277.241 392.548 277.136 392.453 277.108 392.316C277.08 392.177 277.175 392.073 277.314 392.045C277.468 391.957 277.618 392.129 277.584 392.25ZM277.147 386.24C277.174 386.379 277.08 386.484 276.941 386.511C276.803 386.538 276.698 386.444 276.67 386.306C276.642 386.168 276.737 386.063 276.875 386.036C277.015 386.007 277.12 386.103 277.147 386.24ZM276.648 380.215C276.675 380.353 276.58 380.458 276.442 380.486C276.303 380.513 276.199 380.418 276.17 380.281C276.143 380.142 276.238 380.038 276.376 380.01C276.516 379.982 276.622 380.077 276.648 380.215ZM289.007 386.236C288.943 386.25 288.876 386.249 288.812 386.231C288.748 386.213 288.69 386.18 288.642 386.135C288.627 386.07 288.629 386.003 288.647 385.94C288.664 385.876 288.697 385.818 288.743 385.77C288.881 385.742 289.003 385.776 289.047 385.853C289.197 386.026 289.162 386.148 289.007 386.236ZM286.303 380.845C286.238 380.86 286.171 380.858 286.108 380.84C286.044 380.823 285.985 380.79 285.938 380.744C285.923 380.68 285.925 380.613 285.942 380.549C285.96 380.485 285.993 380.427 286.038 380.379C286.177 380.352 286.299 380.385 286.343 380.463C286.431 380.619 286.38 380.801 286.303 380.845ZM266.145 388.118C266.123 388.18 266.08 388.232 266.023 388.264C265.966 388.297 265.899 388.307 265.834 388.294C265.712 388.26 265.624 388.105 265.658 387.984C265.68 387.922 265.723 387.87 265.781 387.837C265.838 387.805 265.905 387.795 265.969 387.808C266.09 387.842 266.179 387.997 266.145 388.118ZM268 382.348C267.979 382.409 267.935 382.461 267.878 382.494C267.821 382.526 267.754 382.537 267.69 382.523C267.568 382.49 267.479 382.334 267.514 382.213C267.535 382.151 267.579 382.099 267.636 382.067C267.693 382.035 267.76 382.024 267.824 382.037C267.946 382.072 268.034 382.226 268 382.348ZM269.839 376.64C269.817 376.701 269.774 376.753 269.717 376.786C269.66 376.818 269.593 376.829 269.529 376.815C269.406 376.782 269.318 376.626 269.352 376.505C269.374 376.443 269.418 376.391 269.475 376.359C269.532 376.327 269.599 376.316 269.663 376.329C269.845 376.378 269.873 376.517 269.839 376.64ZM294.178 383.407C294.101 383.451 293.901 383.461 293.874 383.323C293.83 383.246 293.82 383.046 293.957 383.019C294.035 382.975 294.234 382.965 294.262 383.103C294.367 383.197 294.334 383.319 294.178 383.407ZM271.976 387.172C271.943 387.294 271.848 387.399 271.727 387.365C271.604 387.332 271.561 387.254 271.533 387.116C271.567 386.994 271.662 386.889 271.783 386.923C271.904 386.956 272.009 387.051 271.976 387.172ZM273.159 381.937C273.126 382.059 273.031 382.164 272.91 382.13C272.788 382.097 272.744 382.019 272.716 381.881C272.75 381.759 272.845 381.654 272.966 381.688C273.087 381.721 273.192 381.816 273.159 381.937ZM274.282 376.684C274.249 376.806 274.154 376.911 274.033 376.877C273.911 376.844 273.867 376.766 273.839 376.628C273.873 376.506 273.968 376.401 274.089 376.435C274.272 376.486 274.315 376.563 274.282 376.684ZM283.483 384.65C283.51 384.788 283.416 384.893 283.278 384.92C283.14 384.947 283.034 384.853 283.006 384.715C282.979 384.577 283.074 384.472 283.211 384.445C283.349 384.417 283.516 384.528 283.483 384.65ZM282.584 379.363C282.611 379.501 282.516 379.606 282.44 379.65C282.301 379.677 282.196 379.583 282.168 379.445C282.141 379.307 282.236 379.202 282.373 379.175C282.452 379.131 282.557 379.225 282.584 379.363ZM263.325 380.536C263.23 380.641 263.153 380.685 263.048 380.59C262.943 380.496 262.916 380.357 262.994 380.314C263.089 380.209 263.227 380.181 263.332 380.275C263.331 380.278 263.359 380.415 263.325 380.536ZM266.373 376.142C266.279 376.247 266.14 376.274 266.035 376.181C265.931 376.086 265.903 375.948 265.997 375.843C266.092 375.738 266.23 375.711 266.274 375.789C266.44 375.899 266.467 376.037 266.373 376.142ZM294.378 389.089C294.405 389.227 294.31 389.332 294.173 389.359C294.035 389.387 293.929 389.292 293.901 389.155C293.874 389.016 293.968 388.912 294.107 388.883C294.245 388.857 294.351 388.95 294.378 389.089ZM293.375 382.99C293.403 383.128 293.308 383.233 293.17 383.261C293.032 383.288 292.927 383.193 292.899 383.056C292.871 382.917 292.966 382.813 293.104 382.785C293.183 382.74 293.349 382.852 293.375 382.99ZM268.818 383.424C268.723 383.529 268.585 383.556 268.48 383.462C268.375 383.368 268.348 383.229 268.442 383.125C268.536 383.02 268.675 382.992 268.78 383.086C268.901 383.12 268.911 383.319 268.818 383.424ZM272.45 378.339C272.355 378.444 272.216 378.471 272.112 378.377C272.007 378.283 271.979 378.144 272.073 378.04C272.168 377.935 272.306 377.907 272.411 378.001C272.456 378.079 272.544 378.233 272.45 378.339ZM282.116 386.04C282.094 386.101 282.051 386.153 281.994 386.186C281.936 386.218 281.869 386.229 281.805 386.215C281.683 386.182 281.595 386.026 281.629 385.905C281.651 385.843 281.694 385.791 281.751 385.759C281.809 385.727 281.875 385.716 281.94 385.729C282.061 385.762 282.15 385.918 282.116 386.04ZM283.518 380.013C283.496 380.075 283.453 380.127 283.396 380.159C283.339 380.192 283.272 380.202 283.207 380.189C283.085 380.156 282.997 380 283.031 379.879C283.053 379.817 283.097 379.765 283.154 379.733C283.211 379.7 283.278 379.69 283.342 379.703C283.463 379.737 283.569 379.831 283.518 380.013ZM285.9 387.997C285.878 388.059 285.835 388.111 285.778 388.143C285.721 388.175 285.654 388.186 285.589 388.173C285.467 388.139 285.379 387.984 285.413 387.862C285.447 387.741 285.542 387.636 285.724 387.687C285.786 387.708 285.838 387.752 285.87 387.809C285.902 387.866 285.913 387.933 285.9 387.997ZM287.058 381.904C287.036 381.965 286.993 382.017 286.936 382.05C286.879 382.082 286.812 382.093 286.747 382.079C286.625 382.046 286.521 381.951 286.571 381.769C286.605 381.647 286.761 381.56 286.899 381.532C287.004 381.627 287.092 381.782 287.058 381.904ZM275.401 380.46C275.357 380.508 275.301 380.543 275.238 380.561C275.175 380.578 275.109 380.578 275.047 380.56C274.999 380.516 274.964 380.459 274.946 380.397C274.929 380.334 274.929 380.268 274.947 380.206C274.991 380.158 275.048 380.123 275.11 380.106C275.173 380.088 275.239 380.088 275.302 380.106C275.425 380.14 275.435 380.339 275.401 380.46Z" fill="white"/>
</g>
</g>
<defs>
<linearGradient id="paint0_linear_155_596" x1="354.377" y1="309.535" x2="339.669" y2="328.519" gradientUnits="userSpaceOnUse">
<stop stop-color="#D9AC7B"/>
<stop offset="1" stop-color="#BF986C"/>
</linearGradient>
<linearGradient id="paint1_linear_155_596" x1="90.6862" y1="333.119" x2="38.4081" y2="333.119" gradientUnits="userSpaceOnUse">
<stop stop-color="#61302E"/>
<stop offset="1" stop-color="#491E03"/>
</linearGradient>
<linearGradient id="paint2_linear_155_596" x1="57.3415" y1="401.421" x2="0.598508" y2="401.421" gradientUnits="userSpaceOnUse">
<stop stop-color="#61302E"/>
<stop offset="1" stop-color="#491E03"/>
</linearGradient>
<linearGradient id="paint3_linear_155_596" x1="355.011" y1="293.32" x2="393.431" y2="292.819" gradientUnits="userSpaceOnUse">
<stop stop-color="#D9AC7B"/>
<stop offset="1" stop-color="#BF986C"/>
</linearGradient>
<linearGradient id="paint4_linear_155_596" x1="321.439" y1="357.784" x2="354.098" y2="430.707" gradientUnits="userSpaceOnUse">
<stop stop-color="#D29CED"/>
<stop offset="1" stop-color="#A57BBA"/>
</linearGradient>
<linearGradient id="paint5_linear_155_596" x1="297.143" y1="392.566" x2="51.9007" y2="392.566" gradientUnits="userSpaceOnUse">
<stop stop-color="#114B5F"/>
<stop offset="1" stop-color="#0C3645"/>
</linearGradient>
<linearGradient id="paint6_linear_155_596" x1="360.208" y1="353.448" x2="425.4" y2="392.888" gradientUnits="userSpaceOnUse">
<stop stop-color="#D9A2F5"/>
<stop offset="1" stop-color="#AC80C2"/>
</linearGradient>
<clipPath id="clip0_155_596">
<rect width="551" height="427" fill="white"/>
</clipPath>
<clipPath id="clip1_155_596">
<rect width="285.456" height="299.645" fill="white" transform="translate(226.668 1.23865)"/>
</clipPath>
<clipPath id="clip2_155_596">
<rect width="307.575" height="313" fill="white" transform="translate(45.5454 -0.430664)"/>
</clipPath>
<clipPath id="clip3_155_596">
<rect width="204.076" height="227.029" fill="white" transform="translate(153.635 163.164)"/>
</clipPath>
<clipPath id="clip4_155_596">
<rect width="187.8" height="192.391" fill="white" transform="translate(224.164 79.28)"/>
</clipPath>
<clipPath id="clip5_155_596">
<rect width="210.336" height="125.2" fill="white" transform="translate(340.6 284.191)"/>
</clipPath>
<clipPath id="clip6_155_596">
<rect width="469.5" height="153.996" fill="white" transform="matrix(-1 0 0 1 469.973 272.505)"/>
</clipPath>
</defs>
</svg>
