<svg width="826" height="818" viewBox="0 0 826 818" fill="none" xmlns="http://www.w3.org/2000/svg">
<g clip-path="url(#clip0_155_456)">
<path d="M639.814 299.225L369.799 699.106L0 449.91L270.014 50.0284L639.814 299.225Z" fill="#E9D2F4"/>
<path d="M76.567 465.51L76.6523 465.683C76.685 465.592 76.7251 465.507 76.7603 465.417L76.567 465.51Z" fill="#114B5F"/>
<path d="M177.11 339.485C176.049 340.19 174.992 340.898 173.942 341.618L177.334 339.942L177.11 339.485Z" fill="#114B5F"/>
<path d="M232.774 312.473L232.337 311.59C225.282 314.152 218.395 317.048 211.639 320.184L212.736 322.4L232.774 312.473Z" fill="#114B5F"/>
<path d="M105.103 410.681C100.913 416.846 97.0211 423.227 93.3581 429.754L110.383 421.32L105.103 410.681Z" fill="#114B5F"/>
<path d="M145.8 403.788L135.861 383.767L155.901 373.841L165.838 393.859L145.8 403.788Z" fill="#114B5F"/>
<path d="M201.23 376.323L191.291 356.304L211.331 346.378L221.268 366.396L201.23 376.323Z" fill="#114B5F"/>
<path d="M256.668 348.862L246.731 328.841L266.77 318.915L276.71 338.933L256.668 348.862Z" fill="#114B5F"/>
<path d="M312.095 321.391L332.132 311.465L324.457 296.001C323.528 295.99 322.617 295.928 321.683 295.928C318.67 295.928 315.675 296.053 312.685 296.159L302.158 301.373L312.095 321.391Z" fill="#114B5F"/>
<path d="M106.544 475.599L96.6069 455.581L76.7603 465.414C76.7277 465.505 76.6875 465.59 76.6523 465.68L86.5041 485.526L106.544 475.599Z" fill="#114B5F"/>
<path d="M141.952 458.072L132.014 438.054L152.052 428.123L161.989 448.144L141.952 458.072Z" fill="#114B5F"/>
<path d="M197.391 430.607L187.454 410.591L207.494 400.659L217.434 420.68L197.391 430.607Z" fill="#114B5F"/>
<path d="M252.834 403.141L242.894 383.123L262.937 373.194L272.871 393.215L252.834 403.141Z" fill="#114B5F"/>
<path d="M308.261 375.678L298.324 355.659L318.362 345.73L328.301 365.751L308.261 375.678Z" fill="#114B5F"/>
<path d="M85.0831 509.499L95.0202 529.517L74.9828 539.443L65.0457 519.425L85.0831 509.499Z" fill="#114B5F"/>
<path d="M130.445 511.993L120.508 491.974L140.546 482.048L150.483 502.066L130.445 511.993Z" fill="#114B5F"/>
<path d="M185.875 484.524L175.938 464.506L195.975 454.575L205.915 474.596L185.875 484.524Z" fill="#114B5F"/>
<path d="M241.323 457.064L231.38 437.045L251.423 427.119L261.36 447.135L241.323 457.064Z" fill="#114B5F"/>
<path d="M296.752 429.598L286.81 409.575L306.853 399.648L316.79 419.667L296.752 429.598Z" fill="#114B5F"/>
<path d="M352.192 402.132L342.253 382.111L362.295 372.185L372.232 392.203L352.192 402.132Z" fill="#114B5F"/>
<path d="M81.2342 563.775L91.1714 583.793L71.1314 593.722L61.1943 573.701L81.2342 563.775Z" fill="#114B5F"/>
<path d="M146.624 556.328L126.586 566.257L116.649 546.236L136.687 536.309L146.624 556.328Z" fill="#114B5F"/>
<path d="M182.041 538.809L172.104 518.79L192.144 508.864L202.081 528.882L182.041 538.809Z" fill="#114B5F"/>
<path d="M237.469 511.345L227.529 491.327L247.569 481.398L257.506 501.419L237.469 511.345Z" fill="#114B5F"/>
<path d="M292.904 483.877L282.967 463.856L303.006 453.927L312.946 473.946L292.904 483.877Z" fill="#114B5F"/>
<path d="M348.341 456.414L338.401 436.393L358.441 426.464L368.378 446.482L348.341 456.414Z" fill="#114B5F"/>
<path d="M69.733 617.705L67.4734 618.824C69.2635 626.229 71.3775 633.493 73.7827 640.634L79.6676 637.716L69.733 617.705Z" fill="#114B5F"/>
<path d="M125.16 590.23L135.1 610.248L115.058 620.177L105.12 600.159L125.16 590.23Z" fill="#114B5F"/>
<path d="M180.595 562.766L190.535 582.785L170.495 592.716L160.558 572.695L180.595 562.766Z" fill="#114B5F"/>
<path d="M236.033 535.306L245.975 555.324L225.932 565.253L215.995 545.235L236.033 535.306Z" fill="#114B5F"/>
<path d="M301.425 527.858L281.387 537.785L271.45 517.766L291.488 507.837L301.425 527.858Z" fill="#114B5F"/>
<path d="M326.873 490.326L346.91 480.399L356.852 500.415L336.81 510.347L326.873 490.326Z" fill="#114B5F"/>
<path d="M392.267 482.871L382.33 462.852L402.367 452.926L412.305 472.944L392.267 482.871Z" fill="#114B5F"/>
<path d="M121.307 644.504L131.244 664.525L111.206 674.451L101.269 654.435L121.307 644.504Z" fill="#114B5F"/>
<path d="M176.751 617.045L186.689 637.069L166.651 646.995L156.709 626.977L176.751 617.045Z" fill="#114B5F"/>
<path d="M242.146 609.598L222.104 619.525L212.167 599.506L232.204 589.58L242.146 609.598Z" fill="#114B5F"/>
<path d="M267.584 572.078L287.626 562.149L297.563 582.168L277.523 592.094L267.584 572.078Z" fill="#114B5F"/>
<path d="M353.023 554.659L332.981 564.591L323.044 544.57L343.081 534.641L353.023 554.659Z" fill="#114B5F"/>
<path d="M388.431 537.157L378.494 517.134L398.534 507.208L408.471 527.226L388.431 537.157Z" fill="#114B5F"/>
<path d="M107.491 707.171C111.603 713.027 115.909 718.733 120.481 724.218L111.126 705.369L107.491 707.171Z" fill="#114B5F"/>
<path d="M166.548 677.904L176.485 697.922L156.448 707.851L146.511 687.83L166.548 677.904Z" fill="#114B5F"/>
<path d="M221.978 650.433L231.915 670.451L211.878 680.38L201.941 660.362L221.978 650.433Z" fill="#114B5F"/>
<path d="M277.423 622.977L287.36 642.996L267.323 652.925L257.386 632.904L277.423 622.977Z" fill="#114B5F"/>
<path d="M342.82 615.517L322.778 625.444L312.841 605.425L332.881 595.496L342.82 615.517Z" fill="#114B5F"/>
<path d="M398.255 588.062L378.215 597.988L368.278 577.972L388.315 568.041L398.255 588.062Z" fill="#114B5F"/>
<path d="M433.65 570.54L423.713 550.521L443.75 540.593L453.692 560.613L433.65 570.54Z" fill="#114B5F"/>
<path d="M162.717 732.193L142.68 742.119L147.786 752.404C150.729 755.021 153.721 757.583 156.784 760.07L172.654 752.211L162.717 732.193Z" fill="#114B5F"/>
<path d="M218.134 704.714L228.071 724.73L208.034 734.662L198.094 714.641L218.134 704.714Z" fill="#114B5F"/>
<path d="M273.577 677.256L283.514 697.275L263.476 707.201L253.539 687.183L273.577 677.256Z" fill="#114B5F"/>
<path d="M308.977 659.747L329.017 649.816L338.951 669.837L318.914 679.765L308.977 659.747Z" fill="#114B5F"/>
<path d="M364.419 632.274L384.459 622.347L394.396 642.366L374.359 652.292L364.419 632.274Z" fill="#114B5F"/>
<path d="M429.824 624.827L419.884 604.808L439.927 594.877L449.864 614.9L429.824 624.827Z" fill="#114B5F"/>
<path d="M206.638 758.647L186.601 768.574L195.275 786.04C196.289 786.597 197.299 787.159 198.323 787.704L216.583 778.661L206.638 758.647Z" fill="#114B5F"/>
<path d="M262.063 731.174L272.005 751.192L251.963 761.119L242.026 741.1L262.063 731.174Z" fill="#114B5F"/>
<path d="M317.49 703.703L327.43 723.719L307.39 733.651L297.453 713.63L317.49 703.703Z" fill="#114B5F"/>
<path d="M372.94 676.248L382.882 696.266L362.84 706.195L352.903 686.174L372.94 676.248Z" fill="#114B5F"/>
<path d="M428.365 648.782L438.302 668.8L418.265 678.729L408.328 658.708L428.365 648.782Z" fill="#114B5F"/>
<path d="M483.8 621.316L493.737 641.337L473.7 651.263L463.763 631.243L483.8 621.316Z" fill="#114B5F"/>
<path d="M258.229 785.463L238.192 795.39L243.863 806.814C248.418 808.232 253.04 809.499 257.694 810.666L268.164 805.479L258.229 785.463Z" fill="#114B5F"/>
<path d="M313.657 757.987L323.594 778.008L303.556 787.935L293.614 767.916L313.657 757.987Z" fill="#114B5F"/>
<path d="M369.091 730.524L379.029 750.545L358.991 760.471L349.054 740.453L369.091 730.524Z" fill="#114B5F"/>
<path d="M424.516 703.056L434.456 723.077L414.414 733.003L404.476 712.985L424.516 703.056Z" fill="#114B5F"/>
<path d="M479.964 675.603L489.903 695.621L469.861 705.547L459.924 685.532L479.964 675.603Z" fill="#114B5F"/>
<path d="M292.155 816.868C296.464 817.353 300.805 817.726 305.176 818L302.155 811.915L292.155 816.868Z" fill="#114B5F"/>
<path d="M357.575 784.447L367.512 804.468L347.475 814.394L337.538 794.376L357.575 784.447Z" fill="#114B5F"/>
<path d="M413.015 756.981L422.952 777.002L402.915 786.931L392.973 766.913L413.015 756.981Z" fill="#114B5F"/>
<path d="M468.453 729.518L478.39 749.536L458.35 759.468L448.413 739.447L468.453 729.518Z" fill="#114B5F"/>
<path d="M523.902 702.065L503.865 711.991L513.802 732.012L517.902 729.98C522.2 725.109 526.345 720.093 530.279 714.907L523.902 702.065Z" fill="#114B5F"/>
<path d="M704.809 0L674.031 15.7603H712.893L704.809 0Z" fill="#63D5FF"/>
<path d="M566.375 70.88H741.171L726.29 41.8711H623.04L566.375 70.88Z" fill="#63D5FF"/>
<path d="M458.719 125.997H769.445L754.565 96.9882H515.379L458.719 125.997Z" fill="#63D5FF"/>
<path d="M473.285 181.114H797.725L782.842 152.105H458.402L473.285 181.114Z" fill="#63D5FF"/>
<path d="M501.565 236.231H826L811.119 207.222H486.685L501.565 236.231Z" fill="#63D5FF"/>
<path d="M529.84 291.349H763.149L819.809 262.342H514.957L529.84 291.349Z" fill="#63D5FF"/>
<path d="M558.117 346.463H655.495L712.158 317.459H543.234L558.117 346.463Z" fill="#63D5FF"/>
<path d="M578.373 385.951L604.502 372.574H571.509L578.373 385.951Z" fill="#63D5FF"/>
</g>
<defs>
<clipPath id="clip0_155_456">
<rect width="826" height="818" fill="white"/>
</clipPath>
</defs>
</svg>
