<svg width="471" height="587" viewBox="0 0 471 587" fill="none" xmlns="http://www.w3.org/2000/svg">
<path d="M439.392 93.4499L47.7531 160.981C45.3047 172.974 44 185.319 44 197.963C44 208.691 44.943 219.233 46.7291 229.516L467.026 157.021C461.808 134.132 452.337 112.713 439.392 93.4499Z" fill="#63D5FF"/>
<path d="M260.72 0L177.859 14.2797C132.604 31.1996 95.0749 61.9902 71.3739 100.999L394.037 45.349C357.753 17.4962 311.353 0.632172 260.72 0Z" fill="#63D5FF"/>
<path d="M395.282 349.591L188.353 385.272C210.148 392.207 233.487 396 257.79 396C310.169 396.019 358.115 378.541 395.282 349.591Z" fill="#63D5FF"/>
<path d="M471 212.279L64.3699 282.413C75.9897 305.19 92.1457 325.587 111.793 342.6L450.37 284.217C461.849 262.184 469.033 237.901 471 212.279Z" fill="#63D5FF"/>
<path d="M157.035 584.464L243.548 557.401C250.504 552.764 258.221 549.667 265.177 543.486L130.769 586.789C140.038 586.007 148.536 586.007 157.035 584.464ZM96.0053 584.464L291.436 521.061C295.298 517.967 297.614 514.098 301.476 511.011L82.8742 580.595C87.5071 582.913 92.1434 583.685 96.0053 584.464ZM62.0229 575.957L317.702 494.002C320.793 491.687 321.564 488.59 324.658 485.496L55.0667 571.32C57.3866 574.407 59.6995 574.407 62.0229 575.957ZM41.9322 562.814L335.466 468.483C337.008 466.168 338.556 463.071 340.102 460.749L37.2993 558.173C38.0703 560.492 40.3902 562.042 41.9322 562.814ZM27.2591 548.116L347.058 446.051C348.6 443.729 348.6 441.414 350.149 438.317L23.4007 543.472C25.7172 545.03 26.4881 547.345 27.2591 548.116ZM17.9899 532.658L357.869 424.412C357.869 422.097 359.411 419.775 359.411 416.677L14.8991 527.242C15.677 528.789 16.448 531.111 17.9899 532.658ZM9.49175 515.645L362.502 401.987C362.502 399.665 363.273 397.35 364.044 394.252L7.17185 507.911C7.94978 511.776 8.72076 513.33 9.49175 515.645ZM3.31345 498.64L367.135 381.888C367.135 379.572 367.906 377.25 367.906 374.925L0.993549 493.22C1.76453 493.999 2.54246 496.317 3.31345 498.64ZM0.222564 477.761C0.993549 478.533 -0.548421 479.305 0.222564 480.077L370.229 361.781C370.229 359.466 371 357.144 371 354.818L2.53552 472.342C1.76453 473.892 0.993549 475.439 0.222564 477.761ZM19.5319 451.471C18.7609 452.243 17.9899 453.793 16.441 453.793L370.993 340.135C370.993 337.813 370.222 336.269 370.993 333.951L25.7102 445.294C22.6263 447.605 21.0808 449.927 19.5319 451.471ZM36.5283 429.049L367.909 323.126C367.909 320.804 367.138 319.26 366.367 316.942L39.6192 422.093C39.6192 424.409 38.0703 425.959 36.5283 429.049ZM47.3464 405.853L366.374 303.788C365.603 301.472 365.603 299.922 364.832 297.603L50.4373 398.893C48.1174 401.987 48.1174 404.309 47.3464 405.853ZM52.7537 384.974L361.735 286.779C360.964 284.456 360.193 283.685 360.193 280.594L55.0736 378.79C53.5247 381.116 52.7537 382.659 52.7537 384.974ZM54.2957 364.875L354.778 269.001C354.007 266.686 353.236 265.907 352.465 263.589L53.5247 358.691C54.2957 361.009 54.2957 363.332 54.2957 364.875ZM52.7537 345.547L344.745 251.989C343.974 249.673 343.203 248.895 342.425 246.576L51.9827 339.356C52.7537 341.678 52.7537 344.776 52.7537 345.547ZM48.8884 327.763L333.924 235.755C333.153 233.44 330.833 231.889 330.062 231.117L45.7975 322.351C47.3464 324.669 48.1174 326.213 48.8884 327.763ZM316.156 216.42L38.8482 304.563C39.6192 306.878 40.3902 307.657 41.1681 309.975L320.799 220.286C320.793 219.517 318.48 217.97 316.156 216.42ZM299.934 202.505L29.5721 289.101C30.3431 291.423 32.663 292.966 33.434 293.738L306.109 206.37C303.796 206.37 301.483 204.055 299.934 202.505ZM278.308 190.13L20.3098 272.088C21.0808 274.41 21.8518 275.182 22.6297 277.501L286.036 192.448C282.945 192.455 281.392 190.912 278.308 190.13ZM251.272 180.08C250.501 180.851 249.73 179.308 248.959 180.08L21.0878 252.76C20.3168 254.304 20.3168 257.401 20.3168 259.723L261.319 182.405C257.45 182.405 254.359 180.851 251.272 180.08ZM193.337 177.765L45.7975 224.926C41.1612 228.792 35.7573 231.889 31.1245 235.748L218.054 176.214C210.333 176.993 201.064 176.993 193.337 177.765Z" fill="#E9D2F4"/>
</svg>
