<svg width="741" height="694" viewBox="0 0 741 694" fill="none" xmlns="http://www.w3.org/2000/svg">
<g clip-path="url(#clip0_155_535)">
<g clip-path="url(#clip1_155_535)">
<path d="M544.614 695.8L575.948 371.55H584.938V367.29H572.056L540.31 695.8H544.614Z" fill="#18141B"/>
<path d="M627.324 695.8L584.814 371.55H679.06L736.159 695.8H740.509L682.969 369.052L682.658 367.29H579.935L623.003 695.8H627.324Z" fill="#18141B"/>
<path d="M692.079 445.51H594.512L593.955 441.249H691.322L692.079 445.51Z" fill="#18141B"/>
<path d="M699.363 486.878H599.925L599.368 482.617H698.606L699.363 486.878Z" fill="#18141B"/>
<path d="M706.677 528.402H605.382L604.811 524.141H705.92L706.677 528.402Z" fill="#18141B"/>
<path d="M713.96 569.769H610.794L610.237 565.509H713.203L713.96 569.769Z" fill="#18141B"/>
<path d="M684.766 404.028H588.828L588.271 399.768H684.023L684.766 404.028Z" fill="#18141B"/>
<path d="M721.274 611.308H616.237L615.68 607.047H720.531L721.274 611.308Z" fill="#18141B"/>
<path d="M728.558 652.676H621.664L621.107 648.415H727.815L728.558 652.676Z" fill="#18141B"/>
</g>
<g clip-path="url(#clip2_155_535)">
<path d="M605.028 201.915L593.08 214.533C591.203 203.06 586.362 192.275 579.036 183.246C567.887 168.887 570.397 161.654 576.126 154.698C581.854 147.726 582.747 150.865 584.01 156.714C585.288 162.562 587.813 170.164 590.431 171.826C593.034 173.489 593.804 167.502 597.592 165.901C601.364 164.301 601.98 166.779 600.687 167.994C597.936 170.801 595.451 173.856 593.265 177.121C590.97 180.676 590.57 181.399 594.851 187.97C597.944 192.83 601.343 197.487 605.028 201.915Z" fill="url(#paint0_linear_155_535)"/>
<path d="M641.213 190.194C641.213 190.194 647.4 204.81 636.517 211.07C625.633 217.331 622.687 216.117 614.806 207.989C606.924 199.862 605.7 197.634 605.7 197.634L576.522 228.519C576.522 228.519 580.127 240.404 591.398 243.665C602.668 246.926 606.064 248.811 610.434 253.197C614.804 257.583 625.614 266.251 644.054 262.728C671.355 257.512 671.295 211.534 653.603 190.194H641.213Z" fill="url(#paint1_linear_155_535)"/>
</g>
<g clip-path="url(#clip3_155_535)">
<path d="M598.346 278.191L620.28 -1.21043L367.928 118.648L598.346 278.191Z" fill="#63D5FF"/>
</g>
<g clip-path="url(#clip4_155_535)">
<path d="M661.806 411.535L672.564 441.602L596.613 441.606C596.613 441.606 600.509 434.08 613.49 428.506C626.471 422.931 638.589 411.535 638.589 411.535H661.806Z" fill="url(#paint2_linear_155_535)"/>
<path d="M686.925 454.664L698.315 486.497L617.905 486.5C617.905 486.5 622.029 478.532 635.772 472.631C649.517 466.73 662.346 454.666 662.346 454.666L686.925 454.664Z" fill="#61302E"/>
<path d="M628.325 252.662C628.325 252.662 617.063 286.264 611.059 302.408C604.901 318.97 603.197 327.929 613.291 350.494C621.256 368.302 638.593 411.536 638.593 411.536H659.649C661.477 401.406 660.922 390.99 658.03 381.111C653.171 365.695 649.526 367.722 648.312 356.365C647.097 345.007 634.545 337.298 642.644 318.636C650.743 299.975 664.18 302.867 677.505 251.523L628.325 252.662Z" fill="#150024"/>
<path d="M686.93 454.664H662.348C662.348 454.664 624.283 369.017 622.497 351.598C620.729 334.187 622.147 313.429 624.633 296.336C624.934 294.27 626.586 268.486 626.927 266.494C633.965 266.001 641.025 265.924 648.071 266.261C649.289 266.292 662.451 266.177 665.991 265.868C669.369 265.852 672.745 265.68 676.107 265.354C676.057 273.995 674.363 285.524 669.064 300.364C654.849 340.216 665.518 345.907 670.131 357.969C674.752 370.014 677.238 377.389 676.179 388.78C675.112 400.172 680.434 397.15 683.286 411.891C686.122 426.619 686.93 454.664 686.93 454.664Z" fill="url(#paint3_linear_155_535)"/>
<path opacity="0.86" d="M648.682 289.668C648.688 289.635 648.685 289.601 648.672 289.57C648.66 289.54 648.638 289.513 648.61 289.495C648.583 289.476 648.55 289.466 648.517 289.466C648.484 289.466 648.451 289.476 648.423 289.495C648.396 289.513 648.374 289.539 648.361 289.57C648.348 289.601 648.345 289.634 648.351 289.667C648.358 289.7 648.374 289.73 648.397 289.753C648.421 289.777 648.451 289.793 648.483 289.8C648.505 289.804 648.527 289.804 648.549 289.8C648.571 289.796 648.592 289.788 648.61 289.775C648.629 289.763 648.645 289.747 648.657 289.729C648.669 289.71 648.678 289.689 648.682 289.668ZM649.518 285.616C649.528 285.576 649.522 285.532 649.501 285.496C649.48 285.459 649.445 285.433 649.404 285.421C649.398 285.42 649.392 285.418 649.386 285.418C649.342 285.407 649.295 285.415 649.256 285.438C649.217 285.462 649.189 285.499 649.178 285.543C649.164 285.638 649.226 285.728 649.319 285.75C649.363 285.758 649.409 285.749 649.446 285.724C649.483 285.699 649.509 285.66 649.518 285.616ZM634.262 279.744C634.236 279.709 634.197 279.685 634.153 279.678C634.11 279.67 634.065 279.681 634.029 279.706C634.01 279.717 633.992 279.731 633.979 279.749C633.965 279.767 633.955 279.788 633.95 279.81C633.945 279.832 633.945 279.855 633.949 279.877C633.954 279.899 633.963 279.92 633.976 279.938C633.988 279.958 634.004 279.976 634.023 279.989C634.042 280.003 634.064 280.013 634.087 280.018C634.11 280.023 634.133 280.024 634.156 280.019C634.18 280.015 634.202 280.006 634.221 279.993C634.241 279.98 634.257 279.963 634.27 279.943C634.283 279.924 634.292 279.902 634.295 279.879C634.299 279.855 634.299 279.832 634.293 279.809C634.288 279.786 634.278 279.764 634.264 279.746C634.263 279.746 634.263 279.744 634.262 279.744ZM657.292 287.432C657.284 287.389 657.258 287.351 657.221 287.326C657.185 287.302 657.14 287.293 657.097 287.301C657.054 287.31 657.016 287.336 656.991 287.372C656.967 287.409 656.958 287.453 656.966 287.496C656.97 287.518 656.978 287.538 656.99 287.557C657.002 287.575 657.018 287.591 657.036 287.603C657.054 287.615 657.075 287.623 657.096 287.627C657.118 287.632 657.14 287.631 657.162 287.627C657.182 287.624 657.202 287.617 657.22 287.607C657.237 287.596 657.253 287.582 657.265 287.565C657.278 287.549 657.287 287.53 657.292 287.51C657.297 287.49 657.298 287.469 657.295 287.448C657.294 287.443 657.294 287.438 657.292 287.432ZM641.715 284.246C641.696 284.23 641.674 284.218 641.651 284.211C641.627 284.204 641.602 284.202 641.578 284.206C641.553 284.209 641.53 284.217 641.509 284.23C641.488 284.243 641.469 284.26 641.455 284.28C641.441 284.301 641.432 284.324 641.427 284.348C641.423 284.372 641.423 284.397 641.429 284.421C641.435 284.445 641.445 284.468 641.46 284.487C641.475 284.507 641.494 284.523 641.516 284.535C641.554 284.556 641.599 284.562 641.642 284.552C641.684 284.542 641.722 284.517 641.746 284.481C641.771 284.445 641.782 284.401 641.776 284.357C641.77 284.314 641.748 284.274 641.715 284.246ZM666.725 302.983C666.705 302.9 666.654 302.829 666.581 302.784C666.509 302.739 666.422 302.725 666.339 302.744C666.336 302.746 666.331 302.746 666.328 302.748C666.247 302.769 666.177 302.822 666.134 302.894C666.092 302.966 666.079 303.053 666.1 303.134V303.138C666.12 303.221 666.171 303.292 666.244 303.337C666.316 303.382 666.403 303.396 666.486 303.377C666.49 303.375 666.494 303.375 666.497 303.373C666.579 303.352 666.648 303.299 666.691 303.227C666.734 303.154 666.746 303.068 666.725 302.987C666.727 302.984 666.727 302.983 666.725 302.983ZM664.742 295.378C664.731 295.338 664.713 295.3 664.688 295.267C664.663 295.233 664.632 295.205 664.596 295.184C664.56 295.163 664.521 295.149 664.479 295.143C664.438 295.137 664.396 295.14 664.356 295.15H664.352C664.272 295.175 664.204 295.23 664.163 295.303C664.122 295.376 664.111 295.463 664.132 295.544C664.153 295.626 664.204 295.696 664.275 295.74C664.346 295.785 664.432 295.8 664.514 295.783C664.597 295.758 664.667 295.702 664.709 295.626C664.752 295.551 664.763 295.462 664.742 295.378ZM635.892 305.881C635.818 305.838 635.73 305.825 635.646 305.846C635.563 305.867 635.491 305.92 635.446 305.993C635.403 306.064 635.39 306.149 635.41 306.23C635.429 306.31 635.479 306.38 635.55 306.423L635.565 306.433C635.639 306.476 635.728 306.489 635.811 306.468C635.895 306.447 635.967 306.394 636.011 306.321C636.054 306.246 636.065 306.159 636.042 306.076C636.02 305.994 635.966 305.924 635.892 305.881ZM639.844 299.098C639.807 299.077 639.767 299.063 639.725 299.058C639.684 299.053 639.641 299.056 639.601 299.067C639.56 299.078 639.522 299.097 639.489 299.123C639.456 299.149 639.428 299.181 639.407 299.218C639.383 299.255 639.367 299.296 639.359 299.339C639.352 299.382 639.353 299.426 639.363 299.469C639.372 299.512 639.391 299.552 639.417 299.588C639.442 299.623 639.475 299.653 639.513 299.675C639.55 299.698 639.592 299.713 639.635 299.719C639.679 299.725 639.723 299.722 639.765 299.71C639.808 299.699 639.847 299.679 639.882 299.652C639.916 299.625 639.945 299.591 639.966 299.553C640.006 299.475 640.015 299.386 639.993 299.302C639.97 299.217 639.917 299.145 639.844 299.098ZM643.805 292.321C643.728 292.281 643.639 292.27 643.555 292.293C643.471 292.315 643.398 292.368 643.351 292.442C643.308 292.513 643.295 292.598 643.315 292.678C643.334 292.759 643.385 292.828 643.455 292.872L643.47 292.881C643.62 292.975 643.817 292.929 643.91 292.78C643.911 292.776 643.914 292.774 643.916 292.77C643.961 292.696 643.974 292.607 643.953 292.523C643.932 292.439 643.879 292.367 643.805 292.321ZM647.751 285.546C647.714 285.525 647.674 285.512 647.632 285.506C647.59 285.501 647.548 285.504 647.507 285.516C647.467 285.527 647.429 285.546 647.396 285.572C647.362 285.598 647.335 285.63 647.314 285.666C647.281 285.722 647.266 285.787 647.27 285.851C647.274 285.916 647.297 285.978 647.336 286.029C647.376 286.08 647.43 286.119 647.491 286.139C647.552 286.16 647.618 286.162 647.681 286.144C647.743 286.127 647.799 286.092 647.841 286.043C647.883 285.993 647.91 285.933 647.917 285.869C647.925 285.804 647.913 285.739 647.883 285.682C647.854 285.624 647.807 285.577 647.751 285.546ZM652.996 308.122C653.006 308.079 653.006 308.034 652.997 307.99C652.989 307.946 652.971 307.905 652.946 307.868C652.921 307.831 652.889 307.8 652.851 307.776C652.814 307.752 652.772 307.736 652.728 307.728C652.684 307.721 652.639 307.723 652.595 307.733C652.552 307.744 652.511 307.763 652.476 307.79C652.44 307.817 652.41 307.85 652.388 307.889C652.366 307.927 652.351 307.97 652.346 308.014C652.336 308.099 652.358 308.184 652.409 308.252C652.46 308.32 652.536 308.365 652.619 308.379C652.703 308.393 652.789 308.374 652.859 308.326C652.93 308.279 652.979 308.205 652.996 308.122ZM654.063 300.344C654.074 300.3 654.076 300.254 654.068 300.209C654.06 300.164 654.044 300.122 654.019 300.084C653.994 300.046 653.961 300.013 653.923 299.989C653.885 299.964 653.842 299.947 653.798 299.94C653.753 299.932 653.707 299.934 653.663 299.945C653.619 299.956 653.578 299.976 653.542 300.004C653.506 300.032 653.476 300.067 653.454 300.107C653.433 300.146 653.419 300.19 653.415 300.236C653.408 300.318 653.432 300.4 653.483 300.466C653.534 300.531 653.607 300.575 653.689 300.589C653.771 300.603 653.855 300.585 653.924 300.54C653.993 300.494 654.043 300.424 654.063 300.344ZM655.129 292.567C655.137 292.48 655.111 292.393 655.058 292.324C655.004 292.255 654.926 292.208 654.84 292.194C654.797 292.189 654.753 292.193 654.712 292.205C654.67 292.217 654.631 292.237 654.597 292.264C654.564 292.291 654.535 292.324 654.515 292.362C654.494 292.4 654.48 292.442 654.476 292.485C654.466 292.569 654.489 292.653 654.54 292.721C654.591 292.788 654.666 292.833 654.749 292.847C654.836 292.858 654.924 292.835 654.995 292.783C655.066 292.731 655.114 292.654 655.129 292.567ZM626.92 292.93C626.896 292.897 626.866 292.869 626.831 292.848C626.797 292.827 626.758 292.813 626.718 292.806C626.677 292.8 626.636 292.802 626.597 292.811C626.557 292.821 626.52 292.839 626.487 292.863L626.467 292.878C626.4 292.928 626.356 293.004 626.344 293.087C626.332 293.17 626.354 293.255 626.404 293.322C626.404 293.323 626.405 293.323 626.405 293.325C626.457 293.394 626.534 293.44 626.619 293.453C626.704 293.465 626.791 293.444 626.861 293.393C626.927 293.337 626.969 293.259 626.98 293.173C626.991 293.088 626.97 293.001 626.92 292.93ZM633.163 288.196C633.138 288.161 633.107 288.132 633.071 288.11C633.035 288.088 632.995 288.073 632.953 288.066C632.911 288.059 632.869 288.061 632.828 288.071C632.787 288.081 632.748 288.098 632.714 288.123L632.709 288.127C632.641 288.178 632.595 288.255 632.582 288.341C632.57 288.426 632.591 288.513 632.642 288.582C632.697 288.648 632.776 288.691 632.861 288.702C632.947 288.714 633.034 288.692 633.105 288.643C633.172 288.592 633.216 288.517 633.228 288.433C633.239 288.35 633.218 288.266 633.168 288.198C633.165 288.198 633.164 288.197 633.163 288.196ZM639.404 283.446C639.352 283.377 639.275 283.331 639.19 283.318C639.105 283.306 639.018 283.327 638.948 283.378C638.88 283.429 638.834 283.504 638.821 283.589C638.808 283.673 638.829 283.759 638.879 283.828C638.883 283.832 638.886 283.837 638.89 283.84C638.915 283.874 638.946 283.903 638.982 283.925C639.018 283.946 639.059 283.96 639.1 283.966C639.142 283.972 639.184 283.969 639.225 283.957C639.266 283.946 639.303 283.926 639.336 283.899C639.405 283.848 639.451 283.772 639.463 283.687C639.476 283.602 639.455 283.515 639.404 283.446ZM660.561 308.962C660.563 308.886 660.536 308.811 660.484 308.755C660.432 308.699 660.36 308.666 660.283 308.663C660.211 308.666 660.141 308.696 660.09 308.748C660.038 308.799 660.008 308.869 660.005 308.942C660.003 309.015 660.028 309.086 660.075 309.141C660.123 309.196 660.19 309.232 660.262 309.24C660.339 309.242 660.413 309.214 660.468 309.162C660.524 309.11 660.557 309.038 660.561 308.962ZM660.844 301.961C660.846 301.885 660.818 301.811 660.766 301.755C660.715 301.699 660.643 301.666 660.566 301.662C660.491 301.662 660.419 301.691 660.365 301.743C660.311 301.795 660.279 301.866 660.276 301.941C660.273 302.016 660.3 302.089 660.35 302.144C660.4 302.2 660.47 302.234 660.545 302.239C660.62 302.244 660.693 302.218 660.749 302.168C660.805 302.119 660.839 302.049 660.844 301.974V301.961ZM661.135 294.953C661.14 294.926 661.14 294.899 661.135 294.872C661.129 294.845 661.118 294.82 661.103 294.798L661.093 294.79C661.06 294.737 661.01 294.697 660.952 294.674C660.893 294.651 660.829 294.647 660.768 294.664C660.708 294.68 660.654 294.715 660.615 294.764C660.575 294.813 660.553 294.873 660.55 294.936V294.94C660.548 295.016 660.576 295.09 660.628 295.146C660.68 295.202 660.752 295.235 660.828 295.239C660.864 295.241 660.9 295.236 660.933 295.222C660.967 295.209 660.997 295.189 661.022 295.163C661.058 295.141 661.087 295.11 661.107 295.073C661.127 295.036 661.136 294.994 661.135 294.953ZM633.781 296.36C633.755 296.332 633.725 296.309 633.69 296.293C633.656 296.277 633.619 296.268 633.581 296.266C633.543 296.265 633.505 296.271 633.47 296.284C633.434 296.297 633.401 296.317 633.374 296.342L633.369 296.346C633.341 296.37 633.317 296.401 633.3 296.434C633.284 296.468 633.274 296.505 633.272 296.543C633.27 296.581 633.276 296.619 633.289 296.654C633.302 296.69 633.322 296.722 633.348 296.75C633.402 296.806 633.475 296.84 633.553 296.843C633.632 296.847 633.708 296.821 633.767 296.77C633.821 296.716 633.852 296.643 633.855 296.567C633.857 296.491 633.831 296.417 633.781 296.36ZM638.923 291.615C638.898 291.587 638.867 291.564 638.832 291.548C638.798 291.532 638.761 291.523 638.723 291.521C638.685 291.52 638.647 291.526 638.612 291.539C638.576 291.552 638.544 291.572 638.516 291.597L638.512 291.601C638.483 291.625 638.459 291.656 638.443 291.689C638.426 291.723 638.416 291.76 638.414 291.798C638.412 291.836 638.418 291.874 638.431 291.909C638.444 291.945 638.464 291.977 638.49 292.005C638.515 292.032 638.545 292.055 638.579 292.071C638.613 292.087 638.65 292.097 638.687 292.099C638.724 292.101 638.762 292.095 638.797 292.083C638.833 292.07 638.865 292.051 638.893 292.026C638.951 291.975 638.986 291.903 638.991 291.826C638.997 291.749 638.973 291.674 638.923 291.615ZM644.067 286.867C644.015 286.811 643.943 286.778 643.867 286.775C643.79 286.772 643.716 286.799 643.659 286.85L643.655 286.854C643.626 286.878 643.602 286.908 643.585 286.942C643.568 286.976 643.558 287.013 643.556 287.051C643.554 287.088 643.56 287.126 643.573 287.162C643.587 287.197 643.607 287.23 643.634 287.257C643.686 287.313 643.758 287.346 643.834 287.349C643.911 287.353 643.985 287.325 644.041 287.274L644.046 287.27C644.1 287.219 644.132 287.148 644.136 287.073C644.14 286.998 644.115 286.925 644.067 286.867ZM669.882 290.099C669.852 290.028 669.797 289.971 669.727 289.939C669.657 289.908 669.578 289.903 669.505 289.928C669.432 289.955 669.374 290.011 669.342 290.081C669.31 290.152 669.307 290.233 669.334 290.305C669.362 290.378 669.417 290.437 669.488 290.469C669.558 290.501 669.639 290.503 669.711 290.476C669.784 290.448 669.843 290.393 669.875 290.323C669.907 290.252 669.909 290.171 669.882 290.099ZM647.805 302.211C647.733 302.183 647.654 302.182 647.582 302.211C647.51 302.239 647.452 302.293 647.419 302.362C647.387 302.431 647.385 302.51 647.411 302.581C647.438 302.652 647.491 302.71 647.56 302.742C647.629 302.775 647.708 302.779 647.781 302.754C647.853 302.729 647.913 302.677 647.947 302.608C647.98 302.537 647.984 302.455 647.957 302.381C647.93 302.306 647.876 302.246 647.805 302.211ZM650.745 295.855C650.673 295.826 650.593 295.825 650.521 295.853C650.45 295.881 650.391 295.936 650.358 296.006C650.327 296.075 650.325 296.153 650.351 296.224C650.377 296.295 650.431 296.353 650.5 296.385C650.636 296.453 650.802 296.397 650.871 296.258C650.875 296.254 650.875 296.247 650.879 296.243C650.912 296.174 650.916 296.094 650.891 296.022C650.866 295.949 650.813 295.889 650.745 295.855ZM653.677 289.507C653.644 289.491 653.609 289.481 653.572 289.479C653.536 289.476 653.499 289.481 653.465 289.493C653.43 289.505 653.398 289.523 653.371 289.547C653.344 289.571 653.321 289.601 653.305 289.633C653.302 289.638 653.301 289.644 653.298 289.648C653.279 289.683 653.268 289.721 653.265 289.76C653.262 289.798 653.267 289.837 653.279 289.874C653.292 289.911 653.312 289.945 653.338 289.974C653.364 290.003 653.396 290.026 653.431 290.043C653.467 290.059 653.505 290.068 653.544 290.068C653.583 290.069 653.622 290.062 653.658 290.047C653.694 290.033 653.727 290.011 653.754 289.983C653.782 289.955 653.803 289.922 653.817 289.886C653.834 289.852 653.844 289.815 653.846 289.777C653.847 289.739 653.842 289.702 653.829 289.666C653.815 289.631 653.795 289.598 653.769 289.571C653.743 289.543 653.712 289.522 653.677 289.507ZM629.662 282.819C629.636 282.747 629.582 282.689 629.514 282.655C629.445 282.622 629.366 282.617 629.293 282.64C629.258 282.653 629.225 282.673 629.197 282.698C629.169 282.724 629.146 282.754 629.13 282.789C629.114 282.823 629.105 282.86 629.103 282.897C629.101 282.935 629.107 282.973 629.12 283.009C629.121 283.012 629.123 283.015 629.123 283.018C629.135 283.054 629.154 283.087 629.178 283.115C629.203 283.143 629.233 283.166 629.267 283.182C629.301 283.198 629.338 283.207 629.376 283.208C629.413 283.21 629.451 283.203 629.486 283.189C629.521 283.178 629.554 283.159 629.583 283.135C629.611 283.111 629.635 283.082 629.652 283.048C629.669 283.015 629.679 282.979 629.682 282.942C629.685 282.904 629.681 282.867 629.669 282.831C629.665 282.828 629.664 282.824 629.662 282.819ZM636.221 280.396C636.191 280.324 636.133 280.267 636.061 280.238C635.989 280.208 635.908 280.209 635.836 280.238C635.768 280.268 635.714 280.321 635.683 280.388C635.653 280.455 635.648 280.532 635.671 280.602C635.7 280.673 635.755 280.731 635.825 280.763C635.896 280.795 635.976 280.798 636.048 280.773C636.085 280.76 636.119 280.741 636.148 280.715C636.177 280.689 636.2 280.657 636.216 280.622C636.232 280.586 636.241 280.548 636.242 280.509C636.243 280.47 636.236 280.432 636.221 280.396ZM669.807 294.45C669.8 294.404 669.776 294.363 669.739 294.336C669.702 294.309 669.656 294.297 669.611 294.303C669.566 294.31 669.525 294.334 669.498 294.371C669.47 294.407 669.458 294.453 669.464 294.498C669.478 294.592 669.566 294.658 669.659 294.645C669.704 294.638 669.745 294.613 669.772 294.577C669.8 294.541 669.812 294.495 669.807 294.45ZM669.181 290.371C669.174 290.326 669.15 290.285 669.113 290.257C669.077 290.23 669.03 290.218 668.985 290.225C668.94 290.231 668.899 290.256 668.872 290.292C668.844 290.329 668.833 290.374 668.839 290.42C668.852 290.513 668.94 290.58 669.034 290.566C669.079 290.559 669.119 290.534 669.147 290.498C669.174 290.462 669.186 290.416 669.181 290.371ZM652.873 290.186C652.837 290.16 652.792 290.149 652.747 290.156C652.703 290.162 652.663 290.186 652.636 290.222C652.61 290.258 652.599 290.304 652.606 290.348C652.612 290.392 652.636 290.432 652.672 290.459C652.708 290.486 652.753 290.497 652.798 290.49C652.842 290.483 652.882 290.46 652.909 290.424C652.935 290.388 652.947 290.342 652.94 290.298C652.933 290.253 652.909 290.213 652.873 290.186ZM655.312 286.854C655.278 286.827 655.235 286.815 655.192 286.82C655.149 286.825 655.11 286.846 655.082 286.88C655.079 286.883 655.078 286.886 655.075 286.891C655.062 286.908 655.052 286.929 655.047 286.95C655.042 286.972 655.041 286.994 655.044 287.016C655.047 287.038 655.055 287.059 655.066 287.078C655.078 287.096 655.093 287.113 655.11 287.126C655.147 287.154 655.193 287.166 655.239 287.161C655.284 287.156 655.326 287.133 655.356 287.098C655.382 287.06 655.392 287.014 655.385 286.969C655.377 286.924 655.352 286.883 655.314 286.856L655.312 286.854ZM661.656 291.996C661.663 291.974 661.665 291.951 661.662 291.928C661.66 291.906 661.652 291.884 661.64 291.864C661.629 291.845 661.613 291.828 661.594 291.815C661.575 291.802 661.554 291.793 661.532 291.788C661.489 291.777 661.444 291.782 661.405 291.804C661.367 291.826 661.339 291.862 661.327 291.904C661.325 291.907 661.325 291.91 661.323 291.914C661.316 291.957 661.324 292.003 661.347 292.041C661.37 292.079 661.406 292.108 661.448 292.122C661.492 292.132 661.539 292.124 661.578 292.101C661.616 292.077 661.645 292.04 661.656 291.996ZM669.985 299.502C669.986 299.478 669.983 299.453 669.974 299.43C669.966 299.407 669.954 299.386 669.937 299.368C669.921 299.35 669.901 299.335 669.879 299.324C669.857 299.314 669.833 299.308 669.809 299.307H669.803C669.778 299.305 669.753 299.308 669.729 299.316C669.705 299.324 669.683 299.336 669.664 299.352C669.646 299.369 669.63 299.389 669.619 299.411C669.608 299.434 669.601 299.458 669.6 299.483V299.498C669.599 299.522 669.602 299.547 669.61 299.57C669.618 299.593 669.631 299.614 669.647 299.632C669.664 299.65 669.683 299.665 669.705 299.675C669.727 299.686 669.751 299.692 669.776 299.693H669.782C669.808 299.694 669.834 299.689 669.858 299.68C669.882 299.671 669.904 299.657 669.923 299.64C669.942 299.622 669.957 299.601 669.968 299.577C669.978 299.553 669.984 299.528 669.985 299.502ZM670.127 294.787C670.128 294.763 670.125 294.738 670.117 294.715C670.109 294.692 670.096 294.671 670.08 294.653C670.063 294.635 670.044 294.62 670.022 294.61C669.999 294.599 669.976 294.593 669.951 294.592H669.945C669.919 294.591 669.893 294.595 669.869 294.605C669.845 294.614 669.823 294.628 669.804 294.646C669.785 294.664 669.77 294.685 669.76 294.709C669.749 294.733 669.744 294.758 669.744 294.784C669.742 294.836 669.761 294.886 669.796 294.924C669.831 294.961 669.88 294.984 669.931 294.986C669.956 294.987 669.981 294.983 670.004 294.974C670.028 294.965 670.049 294.952 670.067 294.935C670.085 294.917 670.1 294.897 670.11 294.874C670.12 294.851 670.126 294.827 670.126 294.802L670.127 294.787ZM670.275 290.079C670.277 290.026 670.258 289.975 670.222 289.937C670.186 289.899 670.137 289.876 670.085 289.874C670.032 289.872 669.981 289.891 669.943 289.927C669.904 289.963 669.882 290.012 669.88 290.065C669.872 290.074 669.88 290.082 669.881 290.097C669.889 290.142 669.912 290.184 669.946 290.215C669.98 290.246 670.024 290.264 670.07 290.268C670.096 290.269 670.122 290.265 670.146 290.256C670.171 290.247 670.193 290.233 670.212 290.216C670.231 290.198 670.246 290.177 670.257 290.154C670.268 290.13 670.274 290.105 670.275 290.079ZM651.865 291.214C651.826 291.179 651.777 291.16 651.726 291.159C651.675 291.159 651.625 291.177 651.586 291.21C651.567 291.227 651.552 291.248 651.542 291.271C651.531 291.293 651.525 291.318 651.524 291.343C651.523 291.368 651.527 291.394 651.536 291.417C651.545 291.441 651.558 291.463 651.575 291.481C651.59 291.5 651.609 291.515 651.629 291.527C651.65 291.538 651.674 291.545 651.697 291.548C651.721 291.55 651.745 291.548 651.768 291.541C651.791 291.534 651.812 291.522 651.83 291.507C651.837 291.503 651.841 291.497 651.848 291.492C651.886 291.457 651.91 291.408 651.913 291.356C651.917 291.304 651.899 291.253 651.865 291.214C651.866 291.214 651.866 291.214 651.865 291.214ZM655.292 287.982C655.254 287.948 655.204 287.929 655.153 287.928C655.102 287.927 655.052 287.945 655.013 287.979C654.995 287.996 654.98 288.016 654.969 288.039C654.959 288.062 654.953 288.087 654.952 288.112C654.951 288.137 654.954 288.162 654.963 288.186C654.972 288.21 654.985 288.231 655.002 288.25C655.019 288.269 655.04 288.286 655.063 288.297C655.086 288.309 655.112 288.316 655.137 288.318C655.163 288.32 655.189 288.316 655.214 288.308C655.239 288.3 655.261 288.287 655.281 288.27L655.282 288.268C655.319 288.23 655.341 288.18 655.342 288.127C655.344 288.074 655.326 288.022 655.292 287.982ZM661.197 295.058C661.219 295.012 661.222 294.96 661.206 294.912C661.189 294.864 661.155 294.824 661.109 294.802C661.108 294.801 661.105 294.8 661.103 294.798L661.093 294.79C661.047 294.773 660.995 294.775 660.949 294.794C660.903 294.813 660.865 294.849 660.844 294.894C660.822 294.94 660.819 294.992 660.836 295.04C660.852 295.088 660.887 295.128 660.933 295.15C660.935 295.151 660.937 295.151 660.939 295.153C660.966 295.163 660.994 295.167 661.022 295.165C661.059 295.168 661.095 295.159 661.127 295.139C661.158 295.12 661.182 295.092 661.197 295.058ZM663.035 290.489C662.986 290.47 662.931 290.471 662.882 290.49C662.833 290.508 662.793 290.545 662.769 290.591C662.751 290.64 662.753 290.694 662.774 290.742C662.794 290.789 662.832 290.828 662.88 290.849C662.902 290.859 662.927 290.864 662.952 290.864C662.977 290.865 663.001 290.86 663.024 290.851C663.047 290.841 663.068 290.828 663.086 290.81C663.104 290.793 663.118 290.772 663.127 290.749L663.129 290.745C663.15 290.699 663.152 290.646 663.135 290.598C663.117 290.55 663.081 290.511 663.035 290.489ZM656.031 315.017C655.95 314.978 655.858 314.973 655.773 315.002C655.688 315.031 655.619 315.092 655.579 315.172C655.542 315.252 655.538 315.344 655.568 315.427C655.598 315.51 655.66 315.578 655.74 315.616C655.821 315.653 655.913 315.658 655.997 315.629C656.082 315.601 656.151 315.54 656.192 315.461C656.229 315.381 656.232 315.289 656.202 315.206C656.172 315.123 656.11 315.055 656.031 315.017ZM659.49 307.706C659.45 307.688 659.407 307.677 659.363 307.675C659.32 307.673 659.276 307.679 659.234 307.695C659.193 307.71 659.155 307.733 659.123 307.762C659.091 307.792 659.065 307.828 659.046 307.868C659.028 307.908 659.017 307.951 659.015 307.994C659.013 308.038 659.019 308.082 659.035 308.124C659.05 308.165 659.073 308.203 659.102 308.235C659.132 308.267 659.168 308.294 659.208 308.312C659.248 308.331 659.291 308.341 659.335 308.343C659.378 308.345 659.422 308.339 659.463 308.324C659.505 308.309 659.543 308.286 659.575 308.256C659.607 308.226 659.633 308.19 659.652 308.15C659.688 308.07 659.692 307.978 659.662 307.895C659.632 307.812 659.57 307.744 659.49 307.706ZM662.958 300.404C662.879 300.365 662.789 300.359 662.706 300.386C662.623 300.413 662.554 300.472 662.514 300.55C662.474 300.627 662.467 300.718 662.493 300.801C662.518 300.884 662.576 300.954 662.653 300.995L662.667 301.001C662.747 301.04 662.84 301.046 662.924 301.017C663.009 300.988 663.079 300.927 663.119 300.847C663.156 300.767 663.16 300.675 663.13 300.592C663.1 300.509 663.038 300.441 662.958 300.404ZM666.418 293.094C666.379 293.075 666.336 293.064 666.293 293.062C666.25 293.059 666.207 293.066 666.166 293.08C666.125 293.094 666.087 293.117 666.055 293.146C666.023 293.175 665.997 293.21 665.978 293.249C665.977 293.25 665.977 293.253 665.975 293.255C665.956 293.295 665.945 293.338 665.943 293.382C665.941 293.425 665.948 293.469 665.963 293.511C665.978 293.552 666.001 293.59 666.031 293.622C666.061 293.654 666.096 293.681 666.136 293.699C666.176 293.718 666.219 293.728 666.263 293.73C666.307 293.732 666.351 293.726 666.392 293.711C666.433 293.696 666.471 293.673 666.503 293.643C666.536 293.613 666.562 293.577 666.58 293.537C666.618 293.459 666.623 293.368 666.594 293.285C666.565 293.203 666.505 293.135 666.426 293.097L666.418 293.094ZM633.419 289.934C633.387 289.85 633.324 289.782 633.243 289.745C633.162 289.708 633.069 289.704 632.985 289.735C632.904 289.765 632.838 289.825 632.8 289.903C632.761 289.981 632.755 290.071 632.781 290.153C632.848 290.327 633.039 290.42 633.217 290.363C633.3 290.331 633.367 290.269 633.405 290.189C633.443 290.109 633.447 290.017 633.419 289.934ZM641.024 287.223C641.011 287.179 640.99 287.138 640.961 287.103C640.932 287.067 640.896 287.038 640.855 287.018C640.815 286.997 640.77 286.984 640.725 286.981C640.679 286.978 640.634 286.984 640.591 286.999C640.548 287.014 640.508 287.038 640.475 287.069C640.441 287.1 640.414 287.137 640.396 287.179C640.377 287.221 640.368 287.266 640.367 287.311C640.367 287.357 640.375 287.402 640.393 287.444L640.394 287.448C640.407 287.492 640.428 287.533 640.457 287.568C640.486 287.603 640.522 287.632 640.563 287.653C640.603 287.674 640.648 287.687 640.693 287.69C640.739 287.693 640.784 287.687 640.827 287.672C640.87 287.657 640.91 287.633 640.943 287.602C640.977 287.571 641.004 287.533 641.022 287.492C641.041 287.45 641.05 287.405 641.051 287.36C641.051 287.314 641.043 287.269 641.025 287.227L641.024 287.223ZM648.627 284.509C648.614 284.467 648.593 284.429 648.565 284.396C648.538 284.364 648.503 284.336 648.465 284.317C648.427 284.297 648.385 284.285 648.342 284.282C648.299 284.278 648.256 284.283 648.215 284.296C648.211 284.298 648.209 284.298 648.207 284.3C648.123 284.333 648.055 284.396 648.016 284.478C647.977 284.559 647.971 284.652 647.998 284.738C648.029 284.821 648.091 284.888 648.171 284.925C648.251 284.963 648.342 284.968 648.426 284.938C648.467 284.924 648.504 284.902 648.537 284.874C648.569 284.845 648.596 284.811 648.615 284.772C648.634 284.733 648.645 284.691 648.648 284.648C648.65 284.605 648.644 284.562 648.63 284.521C648.63 284.517 648.629 284.513 648.627 284.509ZM645.437 302.599C645.379 302.534 645.297 302.496 645.211 302.492C645.124 302.487 645.039 302.518 644.975 302.576L644.97 302.58C644.905 302.639 644.864 302.72 644.858 302.808C644.851 302.896 644.879 302.982 644.935 303.05C645.064 303.181 645.27 303.192 645.412 303.076C645.478 303.016 645.518 302.932 645.522 302.843C645.527 302.753 645.497 302.666 645.437 302.599ZM651.425 297.178C651.396 297.145 651.361 297.118 651.322 297.099C651.282 297.08 651.239 297.07 651.195 297.068C651.152 297.067 651.108 297.074 651.067 297.09C651.026 297.106 650.989 297.13 650.958 297.161C650.894 297.218 650.854 297.299 650.849 297.385C650.844 297.472 650.873 297.557 650.93 297.621C650.96 297.655 650.996 297.681 651.036 297.701C651.076 297.72 651.119 297.731 651.163 297.733C651.208 297.736 651.252 297.73 651.294 297.715C651.336 297.7 651.374 297.677 651.407 297.647C651.472 297.592 651.511 297.513 651.518 297.428C651.524 297.343 651.496 297.259 651.441 297.194L651.425 297.178ZM657.42 291.749C657.39 291.716 657.354 291.69 657.314 291.672C657.273 291.653 657.23 291.643 657.186 291.641C657.141 291.64 657.097 291.647 657.056 291.662C657.014 291.678 656.976 291.701 656.944 291.731C656.911 291.761 656.885 291.798 656.866 291.838C656.848 291.878 656.838 291.922 656.836 291.966C656.834 292.01 656.842 292.054 656.857 292.096C656.872 292.137 656.896 292.175 656.926 292.208C656.985 292.272 657.066 292.311 657.153 292.315C657.24 292.319 657.324 292.289 657.389 292.23L657.393 292.226C657.426 292.197 657.453 292.161 657.473 292.121C657.492 292.081 657.503 292.038 657.506 291.993C657.508 291.949 657.502 291.904 657.487 291.862C657.473 291.82 657.45 291.782 657.42 291.749ZM647.997 307.511C647.967 307.479 647.93 307.454 647.89 307.436C647.849 307.418 647.806 307.409 647.762 307.408C647.717 307.407 647.674 307.415 647.632 307.431C647.591 307.447 647.554 307.471 647.522 307.502C647.458 307.564 647.421 307.649 647.419 307.738C647.417 307.827 647.451 307.913 647.512 307.978C647.543 308.01 647.58 308.035 647.62 308.053C647.66 308.071 647.704 308.08 647.748 308.081C647.792 308.082 647.836 308.074 647.877 308.058C647.918 308.042 647.956 308.018 647.988 307.988C648.052 307.926 648.089 307.841 648.091 307.751C648.092 307.662 648.059 307.576 647.997 307.511ZM653.736 301.864C653.67 301.803 653.584 301.768 653.494 301.768C653.404 301.768 653.318 301.802 653.252 301.863C653.192 301.926 653.159 302.01 653.159 302.097C653.159 302.184 653.191 302.268 653.25 302.332C653.312 302.396 653.398 302.433 653.487 302.435C653.576 302.437 653.663 302.403 653.728 302.341C653.789 302.278 653.824 302.193 653.826 302.104C653.827 302.016 653.795 301.93 653.736 301.864ZM659.458 296.219C659.394 296.165 659.313 296.136 659.229 296.139C659.145 296.142 659.066 296.176 659.006 296.235C658.947 296.295 658.912 296.374 658.909 296.458C658.906 296.541 658.934 296.623 658.989 296.687C659.051 296.751 659.136 296.788 659.225 296.79C659.315 296.792 659.401 296.758 659.466 296.696C659.526 296.631 659.558 296.545 659.557 296.456C659.555 296.367 659.52 296.283 659.458 296.219ZM665.196 290.573C665.136 290.511 665.054 290.475 664.967 290.474C664.881 290.473 664.797 290.506 664.735 290.565L664.729 290.572C664.667 290.634 664.632 290.718 664.632 290.806C664.632 290.893 664.666 290.978 664.727 291.04C664.756 291.071 664.79 291.096 664.828 291.114C664.867 291.131 664.908 291.141 664.95 291.142C664.992 291.144 665.034 291.137 665.073 291.123C665.112 291.108 665.148 291.086 665.179 291.057C665.183 291.053 665.19 291.048 665.194 291.042C665.225 291.013 665.25 290.977 665.267 290.938C665.284 290.898 665.293 290.856 665.294 290.813C665.295 290.77 665.287 290.728 665.271 290.688C665.255 290.648 665.232 290.611 665.202 290.581C665.201 290.576 665.198 290.574 665.196 290.573ZM667.3 305.872C667.218 305.838 667.125 305.837 667.042 305.87C666.96 305.903 666.893 305.967 666.857 306.049C666.824 306.131 666.825 306.222 666.86 306.304C666.894 306.385 666.959 306.449 667.041 306.483C667.206 306.557 667.401 306.483 667.474 306.316L667.475 306.312C667.509 306.23 667.51 306.139 667.477 306.057C667.444 305.974 667.381 305.908 667.3 305.872ZM642.584 291.65C642.568 291.609 642.544 291.572 642.513 291.541C642.482 291.51 642.445 291.486 642.404 291.469C642.363 291.453 642.32 291.445 642.276 291.446C642.232 291.447 642.189 291.457 642.149 291.475C642.068 291.507 642.003 291.571 641.969 291.651C641.934 291.731 641.933 291.822 641.965 291.903C641.998 291.986 642.062 292.053 642.144 292.089C642.226 292.125 642.318 292.127 642.402 292.096C642.443 292.079 642.48 292.055 642.511 292.025C642.543 291.994 642.568 291.958 642.586 291.918C642.603 291.877 642.612 291.834 642.613 291.79C642.614 291.746 642.606 291.703 642.589 291.662C642.587 291.656 642.585 291.653 642.584 291.65ZM650.042 288.632C650.026 288.591 650.002 288.554 649.971 288.523C649.94 288.492 649.903 288.468 649.862 288.451C649.822 288.435 649.778 288.427 649.734 288.428C649.691 288.429 649.647 288.439 649.607 288.457C649.526 288.49 649.461 288.553 649.427 288.633C649.392 288.714 649.391 288.804 649.423 288.885C649.456 288.968 649.52 289.035 649.602 289.071C649.683 289.107 649.775 289.109 649.859 289.078C649.9 289.062 649.937 289.038 649.968 289.007C650 288.977 650.025 288.94 650.043 288.9C650.06 288.859 650.069 288.816 650.07 288.772C650.071 288.728 650.063 288.685 650.046 288.644C650.044 288.638 650.044 288.635 650.042 288.632ZM655.75 296.062C655.734 296.033 655.711 296.007 655.684 295.987C655.657 295.966 655.627 295.952 655.594 295.945C655.561 295.937 655.527 295.936 655.494 295.943C655.461 295.949 655.43 295.962 655.402 295.981C655.285 296.055 655.25 296.21 655.323 296.329C655.397 296.449 655.553 296.482 655.671 296.408C655.727 296.372 655.767 296.316 655.781 296.251C655.796 296.186 655.785 296.118 655.75 296.062ZM660.866 292.798C660.849 292.77 660.827 292.745 660.801 292.725C660.775 292.706 660.745 292.692 660.714 292.684C660.682 292.676 660.649 292.674 660.617 292.679C660.584 292.684 660.553 292.695 660.525 292.711C660.522 292.713 660.521 292.715 660.518 292.716C660.466 292.754 660.431 292.81 660.419 292.872C660.407 292.935 660.419 293 660.453 293.054C660.487 293.109 660.54 293.148 660.601 293.165C660.663 293.182 660.728 293.176 660.785 293.147C660.814 293.129 660.838 293.106 660.857 293.079C660.877 293.052 660.891 293.021 660.898 292.989C660.906 292.957 660.907 292.923 660.901 292.89C660.896 292.857 660.884 292.826 660.866 292.798ZM665.982 289.531C665.965 289.503 665.942 289.479 665.915 289.459C665.888 289.44 665.857 289.426 665.825 289.418C665.792 289.411 665.759 289.41 665.726 289.415C665.693 289.421 665.661 289.432 665.633 289.45C665.582 289.488 665.547 289.544 665.535 289.607C665.523 289.67 665.535 289.734 665.568 289.789C665.602 289.843 665.655 289.883 665.717 289.9C665.778 289.917 665.844 289.91 665.901 289.881C665.957 289.845 665.997 289.788 666.012 289.723C666.028 289.658 666.017 289.589 665.982 289.531ZM666.578 302.816C666.524 302.777 666.457 302.762 666.392 302.772C666.327 302.782 666.268 302.818 666.229 302.871L666.227 302.872C666.192 302.928 666.178 302.994 666.189 303.059C666.2 303.124 666.234 303.183 666.286 303.223C666.341 303.261 666.408 303.276 666.473 303.265C666.539 303.254 666.597 303.218 666.637 303.164C666.656 303.139 666.671 303.111 666.679 303.08C666.688 303.049 666.69 303.017 666.686 302.985C666.682 302.954 666.672 302.923 666.656 302.896C666.64 302.868 666.619 302.844 666.594 302.824C666.588 302.824 666.583 302.82 666.578 302.816ZM670.052 297.84C670.026 297.821 669.997 297.808 669.966 297.801C669.935 297.794 669.903 297.794 669.872 297.799C669.84 297.805 669.811 297.816 669.784 297.833C669.757 297.85 669.734 297.873 669.716 297.899C669.714 297.902 669.712 297.903 669.711 297.907C669.673 297.961 669.657 298.027 669.668 298.093C669.678 298.158 669.713 298.217 669.766 298.257L669.768 298.258C669.825 298.294 669.893 298.308 669.96 298.296C670.026 298.283 670.085 298.246 670.126 298.192C670.144 298.165 670.157 298.134 670.163 298.101C670.169 298.069 670.169 298.036 670.163 298.003C670.156 297.971 670.143 297.94 670.125 297.913C670.106 297.886 670.083 297.862 670.055 297.844C670.054 297.843 670.054 297.84 670.052 297.84ZM669.336 294.899C669.325 294.872 669.309 294.848 669.288 294.827C669.267 294.807 669.242 294.791 669.214 294.781C669.187 294.771 669.158 294.767 669.128 294.768C669.099 294.77 669.071 294.777 669.045 294.79C668.993 294.809 668.95 294.847 668.927 294.897C668.903 294.946 668.9 295.003 668.918 295.055C668.921 295.063 668.922 295.07 668.928 295.075C668.939 295.103 668.955 295.128 668.976 295.149C668.996 295.17 669.021 295.187 669.048 295.199C669.076 295.21 669.105 295.217 669.135 295.217C669.164 295.217 669.194 295.211 669.221 295.2C669.248 295.19 669.273 295.174 669.294 295.154C669.314 295.134 669.331 295.109 669.342 295.083C669.354 295.056 669.36 295.028 669.36 294.999C669.36 294.97 669.355 294.941 669.344 294.914C669.341 294.909 669.338 294.904 669.336 294.899Z" fill="white"/>
<path d="M637.167 181.778C637.685 188.311 637.007 194.884 635.166 201.175C635.166 201.175 642.627 192.532 646.199 190.563L648.295 180.951L636.952 181.129L637.167 181.778Z" fill="#BF986C"/>
<path d="M652.333 177.492C650.21 177.908 647.843 180.173 646.597 183.378C645.105 183.408 644.075 183.363 644.075 183.363C622.1 181.267 627.067 161.269 627.067 161.269C625.114 156.493 625.238 155.338 630.696 155.245C634.772 155.184 641.568 149.606 641.568 149.606C641.725 149.474 641.902 149.365 642.091 149.283C642.211 153.823 643.122 158.307 644.783 162.533C647.935 170.252 649.657 171.037 652.487 170.884C655.316 170.714 657.191 176.553 652.333 177.492Z" fill="#D9AC7B"/>
<path d="M684.302 287.926C684.302 287.926 656.207 301.222 619.717 260.995L635.187 201.141C635.633 200.633 642.737 192.468 646.197 190.557L646.319 190.018C647.421 189.037 648.513 188.046 649.595 187.044C659.154 194.787 666.994 204.436 672.615 215.376C682.18 233.802 678.797 240.041 683.918 250.856C689.038 261.673 696.281 275.062 684.302 287.926Z" fill="url(#paint4_linear_155_535)"/>
<path d="M585.87 208.693L573.938 221.325C572.066 209.843 567.232 199.048 559.913 190.003C548.781 175.629 551.287 168.388 557.007 161.425C562.727 154.446 563.619 157.588 564.881 163.443C566.157 169.297 568.679 176.907 571.293 178.572C573.892 180.235 574.661 174.243 578.444 172.641C582.212 171.039 582.827 173.519 581.535 174.736C578.788 177.546 576.307 180.604 574.124 183.872C571.833 187.431 571.432 188.154 575.708 194.733C578.796 199.597 582.19 204.26 585.87 208.693Z" fill="url(#paint5_linear_155_535)"/>
<path d="M626.637 271.21C608.214 274.739 597.42 266.064 593.052 261.674C588.685 257.283 585.302 255.387 574.046 252.121C562.789 248.855 559.191 236.961 559.191 236.961L588.331 206.04C588.331 206.04 589.546 208.274 597.419 216.408C605.291 224.543 608.229 225.76 619.101 219.489C629.973 213.234 635.171 201.171 635.171 201.171C635.172 201.159 635.177 201.148 635.186 201.14L635.247 201.078L641.537 194.33C641.56 194.318 641.581 194.302 641.598 194.284C643.006 192.895 644.548 191.648 646.201 190.562L646.012 189.539L655.961 178.877V179.339C675.46 199.617 654.823 265.818 626.637 271.21Z" fill="#E9D2F4"/>
<path d="M676.827 164.926C682.501 164.926 687.101 160.317 687.101 154.633C687.101 148.948 682.501 144.34 676.827 144.34C671.153 144.34 666.554 148.948 666.554 154.633C666.554 160.317 671.153 164.926 676.827 164.926Z" fill="#18141B"/>
<path d="M630.873 167.451C630.435 167.731 629.945 167.922 629.433 168.013C628.921 168.104 628.396 168.093 627.888 167.981C627.38 167.869 626.899 167.658 626.473 167.359C626.047 167.061 625.684 166.682 625.405 166.243C624.978 165.574 624.762 164.792 624.784 163.999C624.796 163.395 625.739 163.301 625.726 163.913C625.673 164.711 625.94 165.498 626.467 166.1C626.995 166.702 627.739 167.07 628.538 167.124C629.165 167.165 629.789 167.008 630.322 166.677C630.842 166.368 631.397 167.137 630.873 167.451Z" fill="#150024"/>
<path d="M694.057 198.976C690.465 194.497 684.551 192.968 680.377 189.43C679.426 188.526 678.551 187.545 677.761 186.497C677.634 186.302 677.499 186.119 677.382 185.914C677.371 185.895 677.351 185.897 677.338 185.881C674.822 182.074 675.051 178.54 674.956 171.509C674.905 169.532 674.548 167.575 673.898 165.707C676.001 166.442 678.262 166.605 680.448 166.178C682.635 165.752 684.668 164.751 686.34 163.279C686.72 162.96 686.174 162.418 685.795 162.734C684.148 164.181 682.128 165.138 679.964 165.496C677.8 165.854 675.579 165.599 673.553 164.76C668.623 152.123 655.425 144.778 642.111 147.263C641.965 152.481 642.873 157.675 644.782 162.533C647.925 170.248 649.653 171.035 652.482 170.877C655.31 170.72 657.196 176.545 652.325 177.49C649.171 178.102 645.496 182.805 645.723 188.609C645.712 188.88 645.682 189.14 645.687 189.417C645.871 198.657 659.034 209.174 649.492 217.438C649.117 217.763 649.662 218.305 650.037 217.983C651.516 216.746 652.612 215.114 653.198 213.278C653.784 211.442 653.835 209.477 653.346 207.613C652.484 204.231 651.237 200.958 649.631 197.859C649.842 198.102 650.053 198.346 650.283 198.588C655.506 203.909 657.051 211.841 654.212 218.739C654.212 218.739 678.255 225.666 694.442 214.803C694.442 214.803 699.156 204.411 686.742 194.809C685.742 194.035 684.755 193.246 683.779 192.441C685.217 193.223 686.71 193.983 688.18 194.902C691.344 196.856 693.914 199.635 695.615 202.941C697.316 206.247 698.083 209.953 697.833 213.662C697.808 214.158 698.576 214.157 698.601 213.662C698.962 208.373 697.342 203.139 694.057 198.976Z" fill="#18141B"/>
</g>
<g clip-path="url(#clip5_155_535)">
<path d="M320.09 461.02H555.78V696.71H320.09V461.02Z" fill="#114B5F"/>
</g>
<g clip-path="url(#clip6_155_535)">
<path d="M-0.396826 648.504L216.761 446.391C243.728 475.365 258.15 513.799 256.855 553.238C255.561 592.677 238.655 629.891 209.858 656.693C181.061 683.494 142.732 697.689 103.301 696.153C63.8706 694.617 26.5694 677.477 -0.396826 648.504Z" fill="#E9D2F4"/>
</g>
<g clip-path="url(#clip7_155_535)">
<mask id="mask0_155_535" style="mask-type:luminance" maskUnits="userSpaceOnUse" x="304" y="200" width="261" height="262">
<path d="M304.62 200.76H564.937V461.077H304.62V200.76Z" fill="white"/>
</mask>
<g mask="url(#mask0_155_535)">
<path d="M434.778 461.077C506.663 461.077 564.937 402.803 564.937 330.918C564.937 259.033 506.663 200.76 434.778 200.76C362.893 200.76 304.62 259.033 304.62 330.918C304.62 402.803 362.893 461.077 434.778 461.077Z" fill="#F5DD90"/>
</g>
</g>
</g>
<defs>
<linearGradient id="paint0_linear_155_535" x1="597.496" y1="190.741" x2="621.328" y2="219.599" gradientUnits="userSpaceOnUse">
<stop stop-color="#BF986C"/>
<stop offset="1" stop-color="#A6845E"/>
</linearGradient>
<linearGradient id="paint1_linear_155_535" x1="623.879" y1="201.658" x2="618.626" y2="256.551" gradientUnits="userSpaceOnUse">
<stop stop-color="#E9D2F4"/>
<stop offset="0.696" stop-color="#C69BDB"/>
<stop offset="1" stop-color="#351644"/>
</linearGradient>
<linearGradient id="paint2_linear_155_535" x1="602.786" y1="410.374" x2="643.642" y2="435.439" gradientUnits="userSpaceOnUse">
<stop offset="0.129" stop-color="#793D3A"/>
<stop offset="0.999" stop-color="#512827"/>
</linearGradient>
<linearGradient id="paint3_linear_155_535" x1="621.708" y1="360.009" x2="686.93" y2="360.009" gradientUnits="userSpaceOnUse">
<stop stop-color="#2B0047"/>
<stop offset="1" stop-color="#150024"/>
</linearGradient>
<linearGradient id="paint4_linear_155_535" x1="668.418" y1="237.16" x2="596.73" y2="257.211" gradientUnits="userSpaceOnUse">
<stop stop-color="#E9D2F4"/>
<stop offset="0.696" stop-color="#C69BDB"/>
<stop offset="1" stop-color="#351644"/>
</linearGradient>
<linearGradient id="paint5_linear_155_535" x1="578.371" y1="197.532" x2="602.23" y2="226.419" gradientUnits="userSpaceOnUse">
<stop stop-color="#D7AA77"/>
<stop offset="1" stop-color="#BF986C"/>
</linearGradient>
<clipPath id="clip0_155_535">
<rect width="741" height="694" fill="white"/>
</clipPath>
<clipPath id="clip1_155_535">
<rect width="200.2" height="328.51" fill="white" transform="translate(540.31 367.29)"/>
</clipPath>
<clipPath id="clip2_155_535">
<rect width="94.64" height="112.84" fill="white" transform="translate(571.25 150.71)"/>
</clipPath>
<clipPath id="clip3_155_535">
<rect width="277.55" height="241.15" fill="white" transform="translate(724.521 218.262) rotate(154.594)"/>
</clipPath>
<clipPath id="clip4_155_535">
<rect width="145.6" height="340.34" fill="white" transform="translate(552.14 144.34)"/>
</clipPath>
<clipPath id="clip5_155_535">
<rect width="232.96" height="232.96" fill="white" transform="translate(320.09 461.02)"/>
</clipPath>
<clipPath id="clip6_155_535">
<rect width="293.93" height="147.42" fill="white" transform="matrix(-0.73201 0.681294 -0.681293 -0.732011 318.438 555.636)"/>
</clipPath>
<clipPath id="clip7_155_535">
<rect width="261.17" height="261.17" fill="white" transform="translate(304.62 200.76)"/>
</clipPath>
</defs>
</svg>
