<svg width="309" height="394" viewBox="0 0 309 394" fill="none" xmlns="http://www.w3.org/2000/svg">
<path d="M150.398 93.9217L69.9974 13.1714C56.915 18.4963 44.9506 25.7735 34.6336 35.5782L121.561 122.883C126.438 127.78 126.438 135.717 121.561 140.615C116.684 145.512 108.782 145.512 103.907 140.615L18.599 54.9374C10.5119 67.4232 5.07193 81.4575 2.21024 96.4039L74.1856 168.691C79.0627 173.589 79.0627 181.526 74.1856 186.423C69.3085 191.32 61.4064 191.32 56.5313 186.423L0 129.648C2.11773 171.947 22.1063 217.458 58.7376 254.25C59.5937 255.109 60.4597 255.95 61.3257 256.793C55.2342 265.477 49.5286 274.458 44.3956 283.828C29.9907 310.108 14.4561 350.556 22.2441 394L34.5312 391.778C27.3908 351.948 41.902 314.377 55.3326 289.872C59.9637 281.42 65.1124 273.263 70.6213 265.331C105.001 295.167 145.671 311.884 183.515 313.959L129.8 260.012C124.923 255.115 124.923 247.178 129.8 242.28C134.677 237.383 142.579 237.383 147.454 242.28L216.674 311.802C231.534 308.906 245.403 303.341 257.604 294.986L177.173 214.206C172.296 209.309 172.296 201.371 177.173 196.474C182.05 191.577 189.952 191.577 194.827 196.474L276.36 278.361C285.591 267.792 292.367 255.261 297.278 241.445L223.667 167.509C218.79 162.612 218.79 154.675 223.667 149.777C228.544 144.88 236.446 144.88 241.321 149.777L304.593 213.323C307.677 196.242 308.87 178.088 308.998 159.822L269.277 119.926C264.4 115.028 264.4 107.091 269.277 102.194C274.154 97.2963 282.056 97.2963 286.931 102.194L308.085 123.44C305.471 72.3601 298.724 25.5647 306.794 5.11018C279.997 11.3157 234.407 4.04047 186.278 1.1032L213.659 28.6024C218.536 33.4999 218.536 41.437 213.659 46.3344C208.782 51.2318 200.88 51.2318 196.004 46.3344L149.869 0C131.811 0.13593 113.97 1.4972 97.1874 5.01562L168.055 76.1898C172.932 81.0872 172.932 89.0243 168.055 93.9217C163.178 98.8172 155.273 98.8172 150.398 93.9217Z" fill="#E9D2F4"/>
</svg>
