<svg width="218" height="101" viewBox="0 0 218 101" xmlns="http://www.w3.org/2000/svg">
<path d="M34.56 100.608C27.9893 100.608 22.1013 99.072 16.896 96C11.6907 92.8427 7.552 88.576 4.48 83.2C1.49333 77.824 0 71.7653 0 65.024C0 58.1973 1.536 52.096 4.608 46.72C7.76533 41.344 12.032 37.12 17.408 34.048C22.784 30.8907 28.8427 29.312 35.584 29.312C42.3253 29.312 48.3413 30.8907 53.632 34.048C59.008 37.12 63.232 41.344 66.304 46.72C69.4613 52.096 71.0827 58.1973 71.168 65.024L67.2 68.096C67.2 74.24 65.7493 79.7867 62.848 84.736C60.032 89.6 56.1493 93.4827 51.2 96.384C46.336 99.2 40.7893 100.608 34.56 100.608ZM35.584 91.648C40.5333 91.648 44.928 90.496 48.768 88.192C52.6933 85.888 55.7653 82.7307 57.984 78.72C60.288 74.624 61.44 70.0587 61.44 65.024C61.44 59.904 60.288 55.3387 57.984 51.328C55.7653 47.3173 52.6933 44.16 48.768 41.856C44.928 39.4667 40.5333 38.272 35.584 38.272C30.72 38.272 26.3253 39.4667 22.4 41.856C18.4747 44.16 15.36 47.3173 13.056 51.328C10.752 55.3387 9.6 59.904 9.6 65.024C9.6 70.0587 10.752 74.624 13.056 78.72C15.36 82.7307 18.4747 85.888 22.4 88.192C26.3253 90.496 30.72 91.648 35.584 91.648ZM66.176 99.968C64.7253 99.968 63.5307 99.5413 62.592 98.688C61.6533 97.7493 61.184 96.5547 61.184 95.104V73.216L63.616 63.104L71.168 65.024V95.104C71.168 96.5547 70.6987 97.7493 69.76 98.688C68.8213 99.5413 67.6267 99.968 66.176 99.968Z" />
<path d="M115.553 100.608C108.897 100.608 102.881 99.072 97.505 96C92.2143 92.928 87.9903 88.7467 84.833 83.456C81.761 78.08 80.1823 72.064 80.097 65.408V4.992C80.097 3.456 80.5237 2.26133 81.377 1.408C82.3157 0.469332 83.553 0 85.089 0C86.5397 0 87.6917 0.469332 88.545 1.408C89.4837 2.26133 89.953 3.456 89.953 4.992V42.624C92.769 38.6133 96.481 35.4133 101.089 33.024C105.782 30.5493 110.988 29.312 116.705 29.312C123.276 29.312 129.164 30.8907 134.369 34.048C139.574 37.12 143.67 41.344 146.657 46.72C149.729 52.096 151.265 58.1547 151.265 64.896C151.265 71.7227 149.686 77.824 146.529 83.2C143.457 88.576 139.233 92.8427 133.857 96C128.481 99.072 122.38 100.608 115.553 100.608ZM115.553 91.648C120.502 91.648 124.94 90.496 128.865 88.192C132.79 85.8027 135.862 82.6027 138.081 78.592C140.385 74.5813 141.537 70.016 141.537 64.896C141.537 59.8613 140.385 55.3387 138.081 51.328C135.862 47.232 132.79 44.032 128.865 41.728C124.94 39.424 120.502 38.272 115.553 38.272C110.689 38.272 106.294 39.424 102.369 41.728C98.4437 44.032 95.3717 47.232 93.153 51.328C90.9343 55.3387 89.825 59.8613 89.825 64.896C89.825 70.016 90.9343 74.5813 93.153 78.592C95.3717 82.6027 98.4437 85.8027 102.369 88.192C106.294 90.496 110.689 91.648 115.553 91.648Z" />
<path d="M191.589 100.608C184.848 100.608 178.832 99.072 173.541 96C168.336 92.8427 164.197 88.576 161.125 83.2C158.138 77.824 156.645 71.7653 156.645 65.024C156.645 58.1973 158.096 52.096 160.997 46.72C163.898 41.344 167.866 37.12 172.901 34.048C177.936 30.8907 183.738 29.312 190.309 29.312C195.514 29.312 200.293 30.336 204.645 32.384C209.082 34.432 212.965 37.504 216.293 41.6C217.232 42.624 217.573 43.7333 217.317 44.928C217.061 46.0373 216.336 47.0187 215.141 47.872C214.202 48.5547 213.136 48.8107 211.941 48.64C210.832 48.384 209.85 47.744 208.997 46.72C204.048 41.088 197.818 38.272 190.309 38.272C185.53 38.272 181.306 39.424 177.637 41.728C174.053 44.032 171.237 47.1893 169.189 51.2C167.226 55.2107 166.245 59.8187 166.245 65.024C166.245 70.144 167.312 74.7093 169.445 78.72C171.578 82.7307 174.565 85.888 178.405 88.192C182.245 90.496 186.64 91.648 191.589 91.648C194.917 91.648 197.946 91.2213 200.677 90.368C203.493 89.4293 205.968 88.0213 208.101 86.144C209.125 85.2907 210.192 84.8213 211.301 84.736C212.41 84.6507 213.434 84.992 214.373 85.76C215.397 86.6987 215.952 87.7653 216.037 88.96C216.208 90.1547 215.824 91.1787 214.885 92.032C208.656 97.7493 200.89 100.608 191.589 100.608Z" />
<path d="M139.92 69.888C138.555 69.888 137.403 69.4187 136.464 68.48C135.525 67.5413 135.056 66.3893 135.056 65.024C135.056 63.5733 135.525 62.3787 136.464 61.44C137.403 60.5013 138.555 60.032 139.92 60.032H170C171.451 60.032 172.645 60.5013 173.584 61.44C174.523 62.3787 174.992 63.5733 174.992 65.024C174.992 66.3893 174.523 67.5413 173.584 68.48C172.645 69.4187 171.451 69.888 170 69.888H139.92Z" />
<path d="M140.528 71.928C138.651 71.928 137.072 71.3307 135.792 70.136C134.597 68.9413 134 67.4053 134 65.528C134 63.5653 134.597 61.9867 135.792 60.792C137.072 59.5973 138.651 59 140.528 59H169.072C170.949 59 172.485 59.5973 173.68 60.792C174.875 61.9867 175.472 63.5653 175.472 65.528C175.472 67.4053 174.875 68.9413 173.68 70.136C172.485 71.3307 170.949 71.928 169.072 71.928H140.528Z" />
</svg>
